SplineFontDB: 3.0
FontName: CherrySwash-Bold
FullName: Cherry Swash Bold
FamilyName: Cherry Swash
Weight: Bold
Copyright: Copyright (c) 2012, Natalia Kasatkina (kasatkinanataliya@gmail.com)
Version: 1.001
ItalicAngle: 0
UnderlinePosition: -210
UnderlineWidth: 50
Ascent: 800
Descent: 200
sfntRevision: 0x00010042
LayerCount: 2
Layer: 0 1 "Back"  1
Layer: 1 1 "Fore"  0
XUID: [1021 915 595410161 15778378]
FSType: 0
OS2Version: 3
OS2_WeightWidthSlopeOnly: 0
OS2_UseTypoMetrics: 1
CreationTime: 1325665560
ModificationTime: 1349496248
PfmFamily: 17
TTFWeight: 700
TTFWidth: 5
LineGap: 0
VLineGap: 0
Panose: 2 0 0 0 0 0 0 0 0 0
OS2TypoAscent: 1025
OS2TypoAOffset: 0
OS2TypoDescent: -301
OS2TypoDOffset: 0
OS2TypoLinegap: 0
OS2WinAscent: 1025
OS2WinAOffset: 0
OS2WinDescent: 301
OS2WinDOffset: 0
HheadAscent: 1025
HheadAOffset: 0
HheadDescent: -301
HheadDOffset: 0
OS2SubXSize: 650
OS2SubYSize: 600
OS2SubXOff: 0
OS2SubYOff: 75
OS2SupXSize: 650
OS2SupYSize: 600
OS2SupXOff: 0
OS2SupYOff: 350
OS2StrikeYSize: 50
OS2StrikeYPos: 300
OS2Vendor: 'PYRS'
OS2CodePages: 20000003.00000000
OS2UnicodeRanges: a0000027.00000002.00000000.00000000
DEI: 91125
TtTable: prep
PUSHW_1
 511
SCANCTRL
PUSHB_1
 4
SCANTYPE
EndTTInstrs
ShortTable: maxp 16
  1
  0
  268
  77
  5
  0
  0
  2
  0
  1
  1
  0
  64
  0
  0
  0
EndShort
LangName: 1033 "" "" "" "NataliyaKasatkina: Cherry Swash Bold: 2012" "" "Version 1.001" "" "Please refer to the Copyright section for the font trademark attribution notices." "Nataliya Kasatkina" "Kasatkina Nataliya" "" "" "" "This Font Software is licensed under the SIL Open Font License, Version 1.1. This license is available with a FAQ at: http://scripts.sil.org/OFL" "http://scripts.sil.org/OFL" 
GaspTable: 1 65535 15 1
Encoding: UnicodeBmp
UnicodeInterp: none
NameList: AGL For New Fonts
DisplaySize: -24
AntiAlias: 1
FitToEm: 1
BeginChars: 65540 268

StartChar: exclam
Encoding: 33 33 4
Width: 360
GlyphClass: 2
Flags: W
LayerCount: 2
Fore
SplineSet
128 201 m 1,0,-1
 108 801 l 1,1,-1
 258 801 l 1,2,-1
 238 201 l 1,3,-1
 128 201 l 1,0,-1
130.5 11.5 m 128,-1,5
 109 33 109 33 109 63.5 c 128,-1,6
 109 94 109 94 130.5 115.5 c 128,-1,7
 152 137 152 137 182.5 137 c 128,-1,8
 213 137 213 137 234.5 115.5 c 128,-1,9
 256 94 256 94 256 63.5 c 128,-1,10
 256 33 256 33 234.5 11.5 c 128,-1,11
 213 -10 213 -10 182.5 -10 c 128,-1,4
 152 -10 152 -10 130.5 11.5 c 128,-1,5
EndSplineSet
EndChar

StartChar: quotedbl
Encoding: 34 34 5
Width: 450
GlyphClass: 2
Flags: W
LayerCount: 2
Fore
SplineSet
180 472 m 1,0,-1
 74 472 l 1,1,-1
 60 700 l 1,2,-1
 195 700 l 1,3,-1
 180 472 l 1,0,-1
375 472 m 1,4,-1
 269 472 l 1,5,-1
 255 700 l 1,6,-1
 390 700 l 1,7,-1
 375 472 l 1,4,-1
EndSplineSet
EndChar

StartChar: numbersign
Encoding: 35 35 6
Width: 686
GlyphClass: 2
Flags: W
LayerCount: 2
Fore
SplineSet
347 20 m 1,0,-1
 371 160 l 1,1,-1
 261 160 l 1,2,-1
 237 20 l 1,3,-1
 136 20 l 1,4,-1
 160 160 l 1,5,-1
 60 160 l 1,6,-1
 81 258 l 1,7,-1
 177 258 l 1,8,9
 181 281 181 281 188 318 c 128,-1,10
 195 355 195 355 198 375 c 1,11,-1
 82 375 l 1,12,-1
 103 473 l 1,13,-1
 215 473 l 1,14,-1
 243 630 l 1,15,-1
 344 630 l 1,16,-1
 316 473 l 1,17,-1
 426 473 l 1,18,-1
 454 630 l 1,19,-1
 555 630 l 1,20,-1
 527 473 l 1,21,-1
 626 473 l 1,22,-1
 614 375 l 1,23,-1
 510 375 l 1,24,25
 506 352 506 352 499 315 c 128,-1,26
 492 278 492 278 489 258 c 1,27,-1
 604 258 l 1,28,-1
 592 160 l 1,29,-1
 472 160 l 1,30,-1
 448 20 l 1,31,-1
 347 20 l 1,0,-1
299 375 m 1,32,-1
 278 258 l 1,33,-1
 388 258 l 1,34,35
 392 281 392 281 399 318 c 128,-1,36
 406 355 406 355 409 375 c 1,37,-1
 299 375 l 1,32,-1
EndSplineSet
EndChar

StartChar: dollar
Encoding: 36 36 7
Width: 565
GlyphClass: 2
Flags: W
LayerCount: 2
Fore
SplineSet
339 -61 m 1,0,-1
 224 -61 l 1,1,-1
 224 13 l 1,2,3
 114 20 114 20 36 63 c 1,4,-1
 36 243 l 1,5,-1
 151 243 l 1,6,-1
 151 152 l 1,7,8
 203 132 203 132 265.5 132 c 128,-1,9
 328 132 328 132 368 155 c 128,-1,10
 408 178 408 178 408 210 c 0,11,12
 408 237 408 237 376 256 c 0,13,14
 354 270 354 270 317 286.5 c 128,-1,15
 280 303 280 303 266.5 309.5 c 128,-1,16
 253 316 253 316 222 330.5 c 128,-1,17
 191 345 191 345 177 353 c 128,-1,18
 163 361 163 361 137.5 375.5 c 128,-1,19
 112 390 112 390 99.5 402.5 c 128,-1,20
 87 415 87 415 72 433 c 0,21,22
 45 465 45 465 45 516 c 0,23,24
 45 583 45 583 93.5 628 c 128,-1,25
 142 673 142 673 224 688 c 1,26,-1
 224 769 l 1,27,-1
 339 769 l 1,28,-1
 339 696 l 1,29,30
 451 688 451 688 512 656 c 1,31,-1
 512 477 l 1,32,-1
 397 477 l 1,33,-1
 397 565 l 1,34,35
 366 577 366 577 306 577 c 128,-1,36
 246 577 246 577 210 560.5 c 128,-1,37
 174 544 174 544 174 514 c 0,38,39
 174 492 174 492 202 476 c 0,40,41
 223 464 223 464 238 457.5 c 128,-1,42
 253 451 253 451 264 446 c 128,-1,43
 275 441 275 441 294 433 c 0,44,45
 436 373 436 373 487.5 321 c 128,-1,46
 539 269 539 269 539 195 c 128,-1,47
 539 121 539 121 485.5 75 c 128,-1,48
 432 29 432 29 339 16 c 1,49,-1
 339 -61 l 1,0,-1
EndSplineSet
EndChar

StartChar: percent
Encoding: 37 37 8
Width: 895
GlyphClass: 2
Flags: W
LayerCount: 2
Fore
SplineSet
249 -22 m 1,0,-1
 521 701 l 1,1,-1
 636 701 l 1,2,-1
 364 -22 l 1,3,-1
 249 -22 l 1,0,-1
65 391 m 128,-1,5
 18 442 18 442 18 519.5 c 128,-1,6
 18 597 18 597 65 648.5 c 128,-1,7
 112 700 112 700 195 700 c 128,-1,8
 278 700 278 700 325 648.5 c 128,-1,9
 372 597 372 597 372 519.5 c 128,-1,10
 372 442 372 442 325 391 c 128,-1,11
 278 340 278 340 195 340 c 128,-1,4
 112 340 112 340 65 391 c 128,-1,5
154 568 m 128,-1,13
 139 549 139 549 139 519.5 c 128,-1,14
 139 490 139 490 154 471 c 128,-1,15
 169 452 169 452 195 452 c 128,-1,16
 221 452 221 452 235.5 471 c 128,-1,17
 250 490 250 490 250 520 c 128,-1,18
 250 550 250 550 235.5 568.5 c 128,-1,19
 221 587 221 587 195 587 c 128,-1,12
 169 587 169 587 154 568 c 128,-1,13
567 47 m 128,-1,21
 520 98 520 98 520 175.5 c 128,-1,22
 520 253 520 253 567 304.5 c 128,-1,23
 614 356 614 356 697 356 c 128,-1,24
 780 356 780 356 827 304.5 c 128,-1,25
 874 253 874 253 874 175.5 c 128,-1,26
 874 98 874 98 827 47 c 128,-1,27
 780 -4 780 -4 697 -4 c 128,-1,20
 614 -4 614 -4 567 47 c 128,-1,21
656 224 m 128,-1,29
 641 205 641 205 641 175.5 c 128,-1,30
 641 146 641 146 656 127 c 128,-1,31
 671 108 671 108 697 108 c 128,-1,32
 723 108 723 108 737.5 127 c 128,-1,33
 752 146 752 146 752 176 c 128,-1,34
 752 206 752 206 737.5 224.5 c 128,-1,35
 723 243 723 243 697 243 c 128,-1,28
 671 243 671 243 656 224 c 128,-1,29
EndSplineSet
EndChar

StartChar: ampersand
Encoding: 38 38 9
Width: 726
GlyphClass: 2
Flags: W
LayerCount: 2
Fore
SplineSet
16 183 m 0,0,1
 16 291 16 291 149 396 c 1,2,3
 90 480 90 480 90 553.5 c 128,-1,4
 90 627 90 627 134.5 674.5 c 128,-1,5
 179 722 179 722 269 722 c 128,-1,6
 359 722 359 722 407 679.5 c 128,-1,7
 455 637 455 637 455 575 c 128,-1,8
 455 513 455 513 421.5 470 c 128,-1,9
 388 427 388 427 313 372 c 1,10,11
 385 281 385 281 456 211 c 1,12,13
 487 251 487 251 510 306 c 1,14,-1
 465 306 l 1,15,-1
 465 409 l 1,16,-1
 690 409 l 1,17,-1
 690 306 l 1,18,-1
 635 306 l 1,19,20
 608 208 608 208 544 129 c 1,21,22
 624 62 624 62 690 30 c 1,23,-1
 625 -70 l 1,24,25
 546 -26 546 -26 459 49 c 1,26,27
 370 -12 370 -12 260.5 -12 c 128,-1,28
 151 -12 151 -12 83.5 37.5 c 128,-1,29
 16 87 16 87 16 183 c 0,0,1
181 128 m 128,-1,31
 211 109 211 109 265 109 c 128,-1,32
 319 109 319 109 367 134 c 1,33,34
 281 220 281 220 220 302 c 1,35,36
 151 242 151 242 151 183 c 0,37,30
 151 147 151 147 181 128 c 128,-1,31
219 556 m 0,38,39
 219 506 219 506 246 466 c 1,40,41
 288 488 288 488 306.5 514 c 128,-1,42
 325 540 325 540 325 561 c 128,-1,43
 325 582 325 582 310.5 594 c 128,-1,44
 296 606 296 606 273 606 c 128,-1,45
 250 606 250 606 234.5 590.5 c 128,-1,46
 219 575 219 575 219 556 c 0,38,39
EndSplineSet
EndChar

StartChar: quotesingle
Encoding: 39 39 10
Width: 255
GlyphClass: 2
Flags: W
LayerCount: 2
Fore
SplineSet
180 472 m 1,0,-1
 74 472 l 1,1,-1
 60 700 l 1,2,-1
 195 700 l 1,3,-1
 180 472 l 1,0,-1
EndSplineSet
EndChar

StartChar: parenleft
Encoding: 40 40 11
Width: 329
GlyphClass: 2
Flags: W
LayerCount: 2
Fore
SplineSet
213 504.5 m 128,-1,1
 186 405 186 405 186 297.5 c 128,-1,2
 186 190 186 190 213 90 c 128,-1,3
 240 -10 240 -10 265 -56.5 c 128,-1,4
 290 -103 290 -103 316 -139 c 1,5,-1
 228 -201 l 1,6,7
 175 -136 175 -136 135.5 -49 c 128,-1,8
 96 38 96 38 78 122.5 c 128,-1,9
 60 207 60 207 60 297 c 128,-1,10
 60 387 60 387 78 471.5 c 128,-1,11
 96 556 96 556 125 620 c 0,12,13
 175 730 175 730 228 795 c 1,14,-1
 316 733 l 1,15,16
 290 697 290 697 265 650.5 c 128,-1,0
 240 604 240 604 213 504.5 c 128,-1,1
EndSplineSet
EndChar

StartChar: parenright
Encoding: 41 41 12
Width: 331
GlyphClass: 2
Flags: W
LayerCount: 2
Fore
SplineSet
118 90 m 128,-1,1
 145 190 145 190 145 297.5 c 128,-1,2
 145 405 145 405 118 504.5 c 128,-1,3
 91 604 91 604 66 650.5 c 128,-1,4
 41 697 41 697 15 733 c 1,5,-1
 103 795 l 1,6,7
 156 730 156 730 195.5 643 c 128,-1,8
 235 556 235 556 253 471.5 c 128,-1,9
 271 387 271 387 271 297 c 128,-1,10
 271 207 271 207 253 122.5 c 128,-1,11
 235 38 235 38 206 -26 c 0,12,13
 156 -136 156 -136 103 -201 c 1,14,-1
 15 -139 l 1,15,16
 41 -103 41 -103 66 -56.5 c 128,-1,0
 91 -10 91 -10 118 90 c 128,-1,1
EndSplineSet
EndChar

StartChar: asterisk
Encoding: 42 42 13
Width: 443
GlyphClass: 2
Flags: W
LayerCount: 2
Fore
SplineSet
289 710 m 1,0,-1
 270 616 l 1,1,2
 338 652 338 652 353 661 c 1,3,-1
 397 534 l 1,4,-1
 297 523 l 1,5,6
 308 513 308 513 332 490 c 128,-1,7
 356 467 356 467 366 458 c 1,8,-1
 263 379 l 1,9,-1
 220 468 l 1,10,11
 212 451 212 451 198 421 c 128,-1,12
 184 391 184 391 179 381 c 1,13,-1
 72 457 l 1,14,-1
 143 525 l 1,15,16
 68 534 68 534 49 537 c 1,17,-1
 89 664 l 1,18,-1
 174 616 l 1,19,-1
 154 710 l 1,20,-1
 289 710 l 1,0,-1
EndSplineSet
EndChar

StartChar: plus
Encoding: 43 43 14
Width: 550
GlyphClass: 2
Flags: W
LayerCount: 2
Fore
SplineSet
215 231 m 1,0,-1
 60 231 l 1,1,-1
 60 348 l 1,2,-1
 215 348 l 1,3,-1
 215 504 l 1,4,-1
 335 504 l 1,5,-1
 335 348 l 1,6,-1
 490 348 l 1,7,-1
 490 231 l 1,8,-1
 335 231 l 1,9,-1
 335 74 l 1,10,-1
 215 74 l 1,11,-1
 215 231 l 1,0,-1
EndSplineSet
EndChar

StartChar: comma
Encoding: 44 44 15
Width: 284
GlyphClass: 2
Flags: W
LayerCount: 2
Fore
SplineSet
87 10 m 128,-1,1
 74 32 74 32 74 56.5 c 128,-1,2
 74 81 74 81 95 100.5 c 128,-1,3
 116 120 116 120 147.5 120 c 128,-1,4
 179 120 179 120 201 99.5 c 128,-1,5
 223 79 223 79 223 38.5 c 128,-1,6
 223 -2 223 -2 195.5 -65 c 128,-1,7
 168 -128 168 -128 127 -171 c 1,8,-1
 70 -136 l 1,9,10
 119 -75 119 -75 124 -21 c 1,11,0
 100 -12 100 -12 87 10 c 128,-1,1
EndSplineSet
EndChar

StartChar: hyphen
Encoding: 45 45 16
Width: 430
GlyphClass: 2
Flags: W
LayerCount: 2
Fore
SplineSet
370 231 m 1,0,-1
 60 231 l 1,1,-1
 60 348 l 1,2,-1
 370 348 l 1,3,-1
 370 231 l 1,0,-1
EndSplineSet
EndChar

StartChar: period
Encoding: 46 46 17
Width: 275
GlyphClass: 2
Flags: W
LayerCount: 2
Fore
SplineSet
91.5 11.5 m 128,-1,1
 70 33 70 33 70 63.5 c 128,-1,2
 70 94 70 94 91.5 115.5 c 128,-1,3
 113 137 113 137 143.5 137 c 128,-1,4
 174 137 174 137 195.5 115.5 c 128,-1,5
 217 94 217 94 217 63.5 c 128,-1,6
 217 33 217 33 195.5 11.5 c 128,-1,7
 174 -10 174 -10 143.5 -10 c 128,-1,0
 113 -10 113 -10 91.5 11.5 c 128,-1,1
EndSplineSet
EndChar

StartChar: slash
Encoding: 47 47 18
Width: 420
GlyphClass: 2
Flags: W
LayerCount: 2
Fore
SplineSet
10 -30 m 1,0,-1
 300 700 l 1,1,-1
 410 700 l 1,2,-1
 120 -30 l 1,3,-1
 10 -30 l 1,0,-1
EndSplineSet
EndChar

StartChar: zero
Encoding: 48 48 19
Width: 600
GlyphClass: 2
Flags: W
LayerCount: 2
Fore
SplineSet
159 280 m 128,-1,1
 159 206 159 206 197.5 158 c 128,-1,2
 236 110 236 110 300.5 110 c 128,-1,3
 365 110 365 110 403 158 c 128,-1,4
 441 206 441 206 441 280 c 128,-1,5
 441 354 441 354 402.5 402 c 128,-1,6
 364 450 364 450 299.5 450 c 128,-1,7
 235 450 235 450 197 402 c 128,-1,0
 159 354 159 354 159 280 c 128,-1,1
24 280 m 128,-1,9
 24 406 24 406 97.5 488 c 128,-1,10
 171 570 171 570 300 570 c 128,-1,11
 429 570 429 570 502.5 488 c 128,-1,12
 576 406 576 406 576 280 c 128,-1,13
 576 154 576 154 502.5 72 c 128,-1,14
 429 -10 429 -10 300 -10 c 128,-1,15
 171 -10 171 -10 97.5 72 c 128,-1,8
 24 154 24 154 24 280 c 128,-1,9
EndSplineSet
EndChar

StartChar: one
Encoding: 49 49 20
Width: 487
GlyphClass: 2
Flags: W
LayerCount: 2
Fore
SplineSet
310 120 m 1,0,-1
 437 120 l 1,1,-1
 437 0 l 1,2,-1
 55 0 l 1,3,-1
 55 120 l 1,4,-1
 180 120 l 1,5,-1
 180 406 l 1,6,-1
 70 383 l 1,7,-1
 44 475 l 1,8,-1
 310 570 l 1,9,-1
 310 120 l 1,0,-1
EndSplineSet
EndChar

StartChar: two
Encoding: 50 50 21
Width: 561
GlyphClass: 2
Flags: W
LayerCount: 2
Fore
SplineSet
54 0 m 1,0,-1
 54 100 l 1,1,2
 114 130 114 130 174.5 167.5 c 128,-1,3
 235 205 235 205 261 226.5 c 128,-1,4
 287 248 287 248 312 273 c 0,5,6
 365 324 365 324 365 378 c 0,7,8
 365 440 365 440 248 440 c 0,9,10
 201 440 201 440 162 423 c 1,11,-1
 162 340 l 1,12,-1
 47 340 l 1,13,-1
 47 519 l 1,14,15
 124 560 124 560 245 560 c 0,16,17
 494 560 494 560 494 379 c 0,18,19
 494 310 494 310 434.5 238 c 128,-1,20
 375 166 375 166 280 104 c 1,21,-1
 282 101 l 1,22,-1
 400 115 l 1,23,-1
 402 150 l 1,24,-1
 517 150 l 1,25,-1
 508 0 l 1,26,-1
 54 0 l 1,0,-1
EndSplineSet
EndChar

StartChar: three
Encoding: 51 51 22
Width: 552
GlyphClass: 2
Flags: W
LayerCount: 2
Fore
SplineSet
58 345 m 1,0,-1
 58 531 l 1,1,2
 163 559 163 559 239.5 559 c 128,-1,3
 316 559 316 559 370.5 542 c 128,-1,4
 425 525 425 525 461 484.5 c 128,-1,5
 497 444 497 444 497 383 c 0,6,7
 497 252 497 252 383 202 c 1,8,9
 443 185 443 185 478.5 141.5 c 128,-1,10
 514 98 514 98 514 36 c 0,11,12
 514 -73 514 -73 437 -126.5 c 128,-1,13
 360 -180 360 -180 232.5 -180 c 128,-1,14
 105 -180 105 -180 17 -139 c 1,15,-1
 65 -28 l 1,16,17
 144 -60 144 -60 223 -60 c 128,-1,18
 302 -60 302 -60 343.5 -37.5 c 128,-1,19
 385 -15 385 -15 385 37 c 128,-1,20
 385 89 385 89 343.5 113 c 128,-1,21
 302 137 302 137 239 137 c 2,22,-1
 162 137 l 1,23,-1
 162 257 l 1,24,-1
 222 257 l 2,25,26
 284 257 284 257 326 281 c 128,-1,27
 368 305 368 305 368 354 c 0,28,29
 368 439 368 439 242 439 c 0,30,31
 196 439 196 439 173 432 c 1,32,-1
 173 345 l 1,33,-1
 58 345 l 1,0,-1
EndSplineSet
EndChar

StartChar: four
Encoding: 52 52 23
Width: 588
GlyphClass: 2
Flags: W
LayerCount: 2
Fore
SplineSet
464 560 m 1,0,-1
 464 141 l 1,1,-1
 572 141 l 1,2,-1
 572 21 l 1,3,-1
 464 21 l 1,4,-1
 464 -49 l 1,5,-1
 541 -49 l 1,6,-1
 541 -169 l 1,7,-1
 257 -169 l 1,8,-1
 257 -49 l 1,9,-1
 334 -49 l 1,10,-1
 334 21 l 1,11,-1
 22 21 l 1,12,-1
 22 141 l 1,13,-1
 335 560 l 1,14,-1
 464 560 l 1,0,-1
335 141 m 1,15,-1
 335 360 l 1,16,-1
 172 141 l 1,17,-1
 335 141 l 1,15,-1
EndSplineSet
EndChar

StartChar: five
Encoding: 53 53 24
Width: 554
GlyphClass: 2
Flags: W
LayerCount: 2
Fore
SplineSet
493 560 m 1,0,-1
 493 366 l 1,1,-1
 378 366 l 1,2,-1
 378 440 l 1,3,-1
 226 440 l 1,4,-1
 201 287 l 1,5,6
 234 298 234 298 272 298 c 0,7,8
 375 298 375 298 441 241 c 128,-1,9
 507 184 507 184 507 69 c 0,10,11
 507 -59 507 -59 424 -121 c 0,12,13
 348 -179 348 -179 226.5 -179 c 128,-1,14
 105 -179 105 -179 20 -138 c 1,15,-1
 68 -27 l 1,16,17
 97 -41 97 -41 144 -50 c 128,-1,18
 191 -59 191 -59 228 -59 c 0,19,20
 292 -59 292 -59 335 -28 c 128,-1,21
 378 3 378 3 378 64 c 128,-1,22
 378 125 378 125 342.5 151.5 c 128,-1,23
 307 178 307 178 258 178 c 128,-1,24
 209 178 209 178 161 150 c 1,25,-1
 63 174 l 1,26,-1
 123 560 l 1,27,-1
 493 560 l 1,0,-1
EndSplineSet
EndChar

StartChar: six
Encoding: 54 54 25
Width: 537
GlyphClass: 2
Flags: W
LayerCount: 2
Fore
SplineSet
333 590 m 0,0,1
 256 590 256 590 219.5 545 c 128,-1,2
 183 500 183 500 174 407 c 1,3,4
 221 433 221 433 286 433 c 0,5,6
 391 433 391 433 453.5 375 c 128,-1,7
 516 317 516 317 516 217 c 128,-1,8
 516 117 516 117 456 53.5 c 128,-1,9
 396 -10 396 -10 285 -10 c 0,10,11
 220 -10 220 -10 171 17 c 128,-1,12
 122 44 122 44 94 90 c 1,13,14
 40 183 40 183 40 309 c 0,15,16
 40 604 40 604 193 681 c 0,17,18
 251 710 251 710 327 710 c 128,-1,19
 403 710 403 710 488 676 c 1,20,-1
 448 567 l 1,21,22
 377 590 377 590 333 590 c 0,0,1
362.5 137 m 128,-1,24
 386 164 386 164 386 209.5 c 128,-1,25
 386 255 386 255 355.5 284 c 128,-1,26
 325 313 325 313 268 313 c 128,-1,27
 211 313 211 313 170 287 c 1,28,29
 172 240 172 240 182 203 c 128,-1,30
 192 166 192 166 218.5 138 c 128,-1,31
 245 110 245 110 292 110 c 128,-1,23
 339 110 339 110 362.5 137 c 128,-1,24
EndSplineSet
EndChar

StartChar: seven
Encoding: 55 55 26
Width: 514
GlyphClass: 2
Flags: W
LayerCount: 2
Fore
SplineSet
270 -170 m 1,0,-1
 145 -170 l 1,1,2
 145 -83 145 -83 169 5 c 128,-1,3
 193 93 193 93 223.5 155 c 128,-1,4
 254 217 254 217 294 299.5 c 128,-1,5
 334 382 334 382 354 439 c 1,6,-1
 152 439 l 1,7,-1
 152 360 l 1,8,-1
 37 360 l 1,9,-1
 37 559 l 1,10,-1
 479 559 l 1,11,-1
 479 440 l 2,12,13
 479 380 479 380 405 242 c 0,14,15
 374 185 374 185 343.5 122 c 128,-1,16
 313 59 313 59 291.5 -18.5 c 128,-1,17
 270 -96 270 -96 270 -170 c 1,0,-1
EndSplineSet
EndChar

StartChar: eight
Encoding: 56 56 27
Width: 563
GlyphClass: 2
Flags: W
LayerCount: 2
Fore
SplineSet
524 188 m 0,0,1
 524 104 524 104 462 47 c 128,-1,2
 400 -10 400 -10 282 -10 c 128,-1,3
 164 -10 164 -10 102 47 c 128,-1,4
 40 104 40 104 40 189 c 0,5,6
 40 293 40 293 151 373 c 1,7,8
 71 427 71 427 71 517 c 128,-1,9
 71 607 71 607 133 658.5 c 128,-1,10
 195 710 195 710 282 710 c 128,-1,11
 369 710 369 710 431 658.5 c 128,-1,12
 493 607 493 607 493 522 c 0,13,14
 493 472 493 472 471 436 c 128,-1,15
 449 400 449 400 405 358 c 1,16,17
 462 327 462 327 493 287 c 128,-1,18
 524 247 524 247 524 188 c 0,0,1
170 197 m 0,19,20
 170 110 170 110 282 110 c 128,-1,21
 394 110 394 110 394 189 c 0,22,23
 394 231 394 231 358 257.5 c 128,-1,24
 322 284 322 284 233 316 c 1,25,26
 170 272 170 272 170 197 c 0,19,20
363 513 m 0,27,28
 363 590 363 590 283 590 c 0,29,30
 245 590 245 590 223 571.5 c 128,-1,31
 201 553 201 553 201 522 c 128,-1,32
 201 491 201 491 212.5 471 c 128,-1,33
 224 451 224 451 247 438 c 1,34,35
 282 420 282 420 325 408 c 1,36,37
 363 457 363 457 363 513 c 0,27,28
EndSplineSet
EndChar

StartChar: nine
Encoding: 57 57 28
Width: 537
GlyphClass: 2
Flags: W
LayerCount: 2
Fore
SplineSet
208 -55 m 0,0,1
 285 -55 285 -55 321.5 -10 c 128,-1,2
 358 35 358 35 367 128 c 1,3,4
 320 102 320 102 255 102 c 0,5,6
 150 102 150 102 87.5 164 c 128,-1,7
 25 226 25 226 25 329.5 c 128,-1,8
 25 433 25 433 85 496.5 c 128,-1,9
 145 560 145 560 256 560 c 0,10,11
 321 560 321 560 370 531.5 c 128,-1,12
 419 503 419 503 446 454 c 0,13,14
 501 358 501 358 501 226 c 0,15,16
 501 -70 501 -70 348 -146 c 0,17,18
 290 -175 290 -175 216 -175 c 128,-1,19
 142 -175 142 -175 53 -141 c 1,20,-1
 93 -32 l 1,21,22
 164 -55 164 -55 208 -55 c 0,0,1
255 440 m 0,23,24
 155 440 155 440 155 337 c 0,25,26
 155 288 155 288 185.5 255 c 128,-1,27
 216 222 216 222 274.5 222 c 128,-1,28
 333 222 333 222 371 248 c 1,29,30
 369 321 369 321 344 378 c 1,31,32
 318 440 318 440 255 440 c 0,23,24
EndSplineSet
EndChar

StartChar: colon
Encoding: 58 58 29
Width: 277
GlyphClass: 2
Flags: W
LayerCount: 2
Fore
SplineSet
91.5 11.5 m 128,-1,1
 70 33 70 33 70 63.5 c 128,-1,2
 70 94 70 94 91.5 115.5 c 128,-1,3
 113 137 113 137 143.5 137 c 128,-1,4
 174 137 174 137 195.5 115.5 c 128,-1,5
 217 94 217 94 217 63.5 c 128,-1,6
 217 33 217 33 195.5 11.5 c 128,-1,7
 174 -10 174 -10 143.5 -10 c 128,-1,0
 113 -10 113 -10 91.5 11.5 c 128,-1,1
91.5 294.5 m 128,-1,9
 70 316 70 316 70 346.5 c 128,-1,10
 70 377 70 377 91.5 398.5 c 128,-1,11
 113 420 113 420 143.5 420 c 128,-1,12
 174 420 174 420 195.5 398.5 c 128,-1,13
 217 377 217 377 217 346.5 c 128,-1,14
 217 316 217 316 195.5 294.5 c 128,-1,15
 174 273 174 273 143.5 273 c 128,-1,8
 113 273 113 273 91.5 294.5 c 128,-1,9
EndSplineSet
EndChar

StartChar: semicolon
Encoding: 59 59 30
Width: 283
GlyphClass: 2
Flags: W
LayerCount: 2
Fore
SplineSet
87 10 m 128,-1,1
 74 32 74 32 74 56.5 c 128,-1,2
 74 81 74 81 95 100.5 c 128,-1,3
 116 120 116 120 147.5 120 c 128,-1,4
 179 120 179 120 201 99.5 c 128,-1,5
 223 79 223 79 223 38.5 c 128,-1,6
 223 -2 223 -2 195.5 -65 c 128,-1,7
 168 -128 168 -128 127 -171 c 1,8,-1
 70 -136 l 1,9,10
 119 -75 119 -75 124 -21 c 1,11,0
 100 -12 100 -12 87 10 c 128,-1,1
95.5 294.5 m 128,-1,13
 74 316 74 316 74 346.5 c 128,-1,14
 74 377 74 377 95.5 398.5 c 128,-1,15
 117 420 117 420 147.5 420 c 128,-1,16
 178 420 178 420 199.5 398.5 c 128,-1,17
 221 377 221 377 221 346.5 c 128,-1,18
 221 316 221 316 199.5 294.5 c 128,-1,19
 178 273 178 273 147.5 273 c 128,-1,12
 117 273 117 273 95.5 294.5 c 128,-1,13
EndSplineSet
EndChar

StartChar: less
Encoding: 60 60 31
Width: 618
GlyphClass: 2
Flags: W
LayerCount: 2
Fore
SplineSet
547 151 m 1,0,-1
 547 5 l 1,1,-1
 79 242 l 1,2,-1
 79 333 l 1,3,-1
 547 568 l 1,4,-1
 547 422 l 1,5,-1
 268 288 l 1,6,-1
 547 151 l 1,0,-1
EndSplineSet
EndChar

StartChar: equal
Encoding: 61 61 32
Width: 550
GlyphClass: 2
Flags: W
LayerCount: 2
Fore
SplineSet
490 326 m 1,0,-1
 60 326 l 1,1,-1
 60 443 l 1,2,-1
 490 443 l 1,3,-1
 490 326 l 1,0,-1
490 125 m 1,4,-1
 60 125 l 1,5,-1
 60 242 l 1,6,-1
 490 242 l 1,7,-1
 490 125 l 1,4,-1
EndSplineSet
EndChar

StartChar: greater
Encoding: 62 62 33
Width: 618
GlyphClass: 2
Flags: W
LayerCount: 2
Fore
SplineSet
79 5 m 1,0,-1
 79 151 l 1,1,-1
 358 288 l 1,2,-1
 79 422 l 1,3,-1
 79 568 l 1,4,-1
 547 333 l 1,5,-1
 547 242 l 1,6,-1
 79 5 l 1,0,-1
EndSplineSet
EndChar

StartChar: question
Encoding: 63 63 34
Width: 580
GlyphClass: 2
Flags: W
LayerCount: 2
Fore
SplineSet
320 201 m 1,0,-1
 204 201 l 1,1,-1
 204 363 l 1,2,3
 332 408 332 408 360 456 c 0,4,5
 373 479 373 479 373 508 c 0,6,7
 373 590 373 590 256 590 c 0,8,9
 204 590 204 590 170 578 c 1,10,-1
 170 490 l 1,11,-1
 55 490 l 1,12,-1
 55 669 l 1,13,14
 132 710 132 710 253 710 c 0,15,16
 502 710 502 710 502 509 c 0,17,18
 502 425 502 425 454 377 c 128,-1,19
 406 329 406 329 320 292 c 1,20,-1
 320 201 l 1,0,-1
213.5 11.5 m 128,-1,22
 192 33 192 33 192 63.5 c 128,-1,23
 192 94 192 94 213.5 115.5 c 128,-1,24
 235 137 235 137 265.5 137 c 128,-1,25
 296 137 296 137 317.5 115.5 c 128,-1,26
 339 94 339 94 339 63.5 c 128,-1,27
 339 33 339 33 317.5 11.5 c 128,-1,28
 296 -10 296 -10 265.5 -10 c 128,-1,21
 235 -10 235 -10 213.5 11.5 c 128,-1,22
EndSplineSet
EndChar

StartChar: at
Encoding: 64 64 35
Width: 1214
GlyphClass: 2
Flags: W
LayerCount: 2
Fore
SplineSet
799 434 m 0,0,1
 826 434 826 434 836.5 455 c 128,-1,2
 847 476 847 476 847 497 c 0,3,4
 847 563 847 563 764 605 c 128,-1,5
 681 647 681 647 577 647 c 0,6,7
 504 647 504 647 435 617.5 c 128,-1,8
 366 588 366 588 311.5 535 c 128,-1,9
 257 482 257 482 224 401.5 c 128,-1,10
 191 321 191 321 191 227 c 0,11,12
 191 79 191 79 280 -7 c 128,-1,13
 369 -93 369 -93 536 -93 c 0,14,15
 669 -93 669 -93 776.5 -51 c 128,-1,16
 884 -9 884 -9 953.5 64 c 128,-1,17
 1023 137 1023 137 1060 232 c 128,-1,18
 1097 327 1097 327 1097 435 c 0,19,20
 1097 616 1097 616 970.5 717.5 c 128,-1,21
 844 819 844 819 627 838 c 1,22,-1
 649 978 l 1,23,24
 921 960 921 960 1080 812.5 c 128,-1,25
 1239 665 1239 665 1239 436 c 0,26,27
 1239 305 1239 305 1189.5 185 c 128,-1,28
 1140 65 1140 65 1051.5 -28.5 c 128,-1,29
 963 -122 963 -122 827.5 -177.5 c 128,-1,30
 692 -233 692 -233 532 -233 c 0,31,32
 303 -233 303 -233 176.5 -111 c 128,-1,33
 50 11 50 11 50 220 c 0,34,35
 50 351 50 351 97.5 461 c 128,-1,36
 145 571 145 571 221.5 640.5 c 128,-1,37
 298 710 298 710 391.5 748.5 c 128,-1,38
 485 787 485 787 584.5 787 c 128,-1,39
 684 787 684 787 775.5 753.5 c 128,-1,40
 867 720 867 720 927.5 650.5 c 128,-1,41
 988 581 988 581 988 498.5 c 128,-1,42
 988 416 988 416 944 362.5 c 128,-1,43
 900 309 900 309 834 309 c 0,44,45
 794 309 794 309 755 330 c 1,46,-1
 730 128 l 1,47,-1
 806 128 l 1,48,-1
 792 41 l 1,49,50
 736 9 736 9 675 9 c 0,51,52
 650 9 650 9 629.5 24.5 c 128,-1,53
 609 40 609 40 605 60 c 1,54,55
 542 4 542 4 460.5 4 c 128,-1,56
 379 4 379 4 335 60.5 c 128,-1,57
 291 117 291 117 291 216 c 0,58,59
 291 352 291 352 371 447.5 c 128,-1,60
 451 543 451 543 594 543 c 0,61,62
 676 543 676 543 787 507 c 1,63,-1
 783 455 l 1,64,65
 787 434 787 434 799 434 c 0,0,1
493 133 m 0,66,67
 538 133 538 133 569 165 c 128,-1,68
 600 197 600 197 610 256 c 2,69,-1
 634 407 l 1,70,71
 612 414 612 414 586 414 c 0,72,73
 513 414 513 414 471.5 359.5 c 128,-1,74
 430 305 430 305 430 229 c 0,75,76
 430 133 430 133 493 133 c 0,66,67
EndSplineSet
EndChar

StartChar: A
Encoding: 65 65 36
Width: 897
GlyphClass: 2
Flags: W
LayerCount: 2
Fore
SplineSet
262 335 m 128,-1,1
 221 282 221 282 131 282 c 128,-1,2
 41 282 41 282 -2 333 c 128,-1,3
 -45 384 -45 384 -45 456 c 0,4,5
 -45 570 -45 570 69 635 c 128,-1,6
 183 700 183 700 434 700 c 2,7,-1
 708 700 l 1,8,-1
 708 580 l 1,9,-1
 649 580 l 1,10,-1
 831 120 l 1,11,-1
 897 120 l 1,12,-1
 897 0 l 1,13,-1
 640 0 l 1,14,-1
 640 120 l 1,15,-1
 699 120 l 1,16,-1
 678 176 l 1,17,-1
 416 176 l 1,18,-1
 395 120 l 1,19,-1
 455 120 l 1,20,-1
 455 0 l 1,21,-1
 198 0 l 1,22,-1
 198 120 l 1,23,-1
 263 120 l 1,24,-1
 444 580 l 1,25,-1
 434 580 l 2,26,27
 233 580 233 580 156.5 552 c 128,-1,28
 80 524 80 524 80 456 c 0,29,30
 80 402 80 402 131 402 c 0,31,32
 178 402 178 402 178 466 c 1,33,-1
 303 466 l 1,34,0
 303 388 303 388 262 335 c 128,-1,1
547 524 m 1,35,-1
 457 286 l 1,36,-1
 636 286 l 1,37,-1
 547 524 l 1,35,-1
EndSplineSet
EndChar

StartChar: B
Encoding: 66 66 37
Width: 904
GlyphClass: 2
Flags: W
LayerCount: 2
Fore
SplineSet
262 345.5 m 128,-1,1
 221 292 221 292 131 292 c 128,-1,2
 41 292 41 292 -2 343 c 128,-1,3
 -45 394 -45 394 -45 466 c 0,4,5
 -45 580 -45 580 62 645 c 128,-1,6
 169 710 169 710 404 710 c 2,7,-1
 449 710 l 2,8,9
 832 710 832 710 832 506 c 0,10,11
 832 404 832 404 737 362 c 1,12,13
 795 342 795 342 829 296.5 c 128,-1,14
 863 251 863 251 863 187 c 0,15,16
 863 101 863 101 794 45.5 c 128,-1,17
 725 -10 725 -10 594 -10 c 0,18,19
 572 -10 572 -10 492 -5 c 128,-1,20
 412 0 412 0 364 0 c 2,21,-1
 252 0 l 1,22,-1
 252 120 l 1,23,-1
 349 120 l 1,24,-1
 349 589 l 1,25,26
 199 585 199 585 139.5 556.5 c 128,-1,27
 80 528 80 528 80 470 c 128,-1,28
 80 412 80 412 131 412 c 0,29,30
 178 412 178 412 178 476 c 1,31,-1
 303 476 l 1,32,0
 303 399 303 399 262 345.5 c 128,-1,1
519 287 m 1,33,-1
 519 407 l 1,34,-1
 598 407 l 2,35,36
 636 407 636 407 661.5 429 c 128,-1,37
 687 451 687 451 687 496.5 c 128,-1,38
 687 542 687 542 640 566 c 128,-1,39
 593 590 593 590 479 590 c 1,40,-1
 479 117 l 1,41,42
 579 110 579 110 619 110 c 128,-1,43
 659 110 659 110 688.5 135 c 128,-1,44
 718 160 718 160 718 202.5 c 128,-1,45
 718 245 718 245 688 266 c 128,-1,46
 658 287 658 287 609 287 c 2,47,-1
 519 287 l 1,33,-1
EndSplineSet
EndChar

StartChar: C
Encoding: 67 67 38
Width: 645
GlyphClass: 2
Flags: W
LayerCount: 2
Fore
SplineSet
569 372 m 128,-1,1
 526 321 526 321 436 321 c 128,-1,2
 346 321 346 321 305 374.5 c 128,-1,3
 264 428 264 428 264 505 c 1,4,-1
 389 505 l 1,5,6
 389 441 389 441 436 441 c 0,7,8
 472 441 472 441 472 495 c 0,9,10
 472 535 472 535 441 560 c 128,-1,11
 410 585 410 585 370 585 c 0,12,13
 279 585 279 585 224.5 518.5 c 128,-1,14
 170 452 170 452 170 350 c 128,-1,15
 170 248 170 248 224.5 181.5 c 128,-1,16
 279 115 279 115 376 115 c 128,-1,17
 473 115 473 115 555 201 c 1,18,-1
 631 106 l 1,19,20
 538 -10 538 -10 376.5 -10 c 128,-1,21
 215 -10 215 -10 125 89.5 c 128,-1,22
 35 189 35 189 35 348 c 128,-1,23
 35 507 35 507 125 608.5 c 128,-1,24
 215 710 215 710 370 710 c 0,25,26
 467 710 467 710 539.5 650 c 128,-1,27
 612 590 612 590 612 495 c 0,28,0
 612 423 612 423 569 372 c 128,-1,1
EndSplineSet
EndChar

StartChar: D
Encoding: 68 68 39
Width: 922
GlyphClass: 2
Flags: W
LayerCount: 2
Fore
SplineSet
569 -10 m 1,0,-1
 364 0 l 1,1,-1
 261 0 l 1,2,-1
 261 120 l 1,3,-1
 349 120 l 1,4,-1
 349 579 l 1,5,6
 199 575 199 575 139.5 546.5 c 128,-1,7
 80 518 80 518 80 460 c 128,-1,8
 80 402 80 402 131 402 c 0,9,10
 178 402 178 402 178 466 c 1,11,-1
 303 466 l 1,12,13
 303 389 303 389 262 335.5 c 128,-1,14
 221 282 221 282 131 282 c 128,-1,15
 41 282 41 282 -2 333 c 128,-1,16
 -45 384 -45 384 -45 456 c 0,17,18
 -45 570 -45 570 62 635 c 128,-1,19
 169 700 169 700 404 700 c 2,20,-1
 449 700 l 2,21,22
 662 700 662 700 774.5 597.5 c 128,-1,23
 887 495 887 495 887 320 c 0,24,25
 887 149 887 149 786 58 c 1,26,27
 708 -10 708 -10 569 -10 c 1,0,-1
479 116 m 1,28,29
 547 110 547 110 584 110 c 128,-1,30
 621 110 621 110 658.5 128.5 c 128,-1,31
 696 147 696 147 716 178 c 0,32,33
 752 237 752 237 752 320 c 0,34,35
 752 444 752 444 682.5 512 c 128,-1,36
 613 580 613 580 479 580 c 1,37,-1
 479 116 l 1,28,29
EndSplineSet
EndChar

StartChar: E
Encoding: 69 69 40
Width: 855
GlyphClass: 2
Flags: W
LayerCount: 2
Fore
SplineSet
262 335.5 m 128,-1,1
 221 282 221 282 131 282 c 128,-1,2
 41 282 41 282 -2 333 c 128,-1,3
 -45 384 -45 384 -45 456 c 0,4,5
 -45 570 -45 570 62 635 c 128,-1,6
 169 700 169 700 404 700 c 2,7,-1
 814 700 l 1,8,-1
 814 495 l 1,9,-1
 699 495 l 1,10,-1
 699 580 l 1,11,-1
 479 580 l 1,12,-1
 479 406 l 1,13,-1
 557 406 l 1,14,-1
 557 466 l 1,15,-1
 672 466 l 1,16,-1
 672 226 l 1,17,-1
 557 226 l 1,18,-1
 557 286 l 1,19,-1
 479 286 l 1,20,-1
 479 120 l 1,21,-1
 708 120 l 1,22,-1
 708 205 l 1,23,-1
 823 205 l 1,24,-1
 823 0 l 1,25,-1
 252 0 l 1,26,-1
 252 120 l 1,27,-1
 349 120 l 1,28,-1
 349 579 l 1,29,30
 199 575 199 575 139.5 546.5 c 128,-1,31
 80 518 80 518 80 460 c 128,-1,32
 80 402 80 402 131 402 c 0,33,34
 178 402 178 402 178 466 c 1,35,-1
 303 466 l 1,36,0
 303 389 303 389 262 335.5 c 128,-1,1
EndSplineSet
EndChar

StartChar: F
Encoding: 70 70 41
Width: 818
GlyphClass: 2
Flags: W
LayerCount: 2
Fore
SplineSet
262 335.5 m 128,-1,1
 221 282 221 282 131 282 c 128,-1,2
 41 282 41 282 -2 333 c 128,-1,3
 -45 384 -45 384 -45 456 c 0,4,5
 -45 570 -45 570 62 635 c 128,-1,6
 169 700 169 700 404 700 c 2,7,-1
 814 700 l 1,8,-1
 814 495 l 1,9,-1
 699 495 l 1,10,-1
 699 580 l 1,11,-1
 479 580 l 1,12,-1
 479 406 l 1,13,-1
 557 406 l 1,14,-1
 557 466 l 1,15,-1
 672 466 l 1,16,-1
 672 226 l 1,17,-1
 557 226 l 1,18,-1
 557 286 l 1,19,-1
 479 286 l 1,20,-1
 479 120 l 1,21,-1
 571 120 l 1,22,-1
 571 0 l 1,23,-1
 252 0 l 1,24,-1
 252 120 l 1,25,-1
 349 120 l 1,26,-1
 349 579 l 1,27,28
 199 575 199 575 139.5 546.5 c 128,-1,29
 80 518 80 518 80 460 c 128,-1,30
 80 402 80 402 131 402 c 0,31,32
 178 402 178 402 178 466 c 1,33,-1
 303 466 l 1,34,0
 303 389 303 389 262 335.5 c 128,-1,1
EndSplineSet
EndChar

StartChar: G
Encoding: 71 71 42
Width: 705
GlyphClass: 2
Flags: W
LayerCount: 2
Fore
SplineSet
572.5 397.5 m 128,-1,1
 533 351 533 351 447 351 c 128,-1,2
 361 351 361 351 320 395.5 c 128,-1,3
 279 440 279 440 279 505 c 1,4,-1
 404 505 l 1,5,6
 404 471 404 471 436 471 c 0,7,8
 472 471 472 471 472 507 c 128,-1,9
 472 543 472 543 441 564 c 128,-1,10
 410 585 410 585 370 585 c 0,11,12
 279 585 279 585 224.5 518.5 c 128,-1,13
 170 452 170 452 170 350 c 128,-1,14
 170 248 170 248 224.5 181.5 c 128,-1,15
 279 115 279 115 363 115 c 128,-1,16
 447 115 447 115 505 180 c 1,17,-1
 336 180 l 1,18,-1
 336 300 l 1,19,-1
 635 300 l 1,20,-1
 635 0 l 1,21,-1
 528 0 l 1,22,-1
 514 44 l 1,23,24
 446 -10 446 -10 355 -10 c 0,25,26
 206 -10 206 -10 120.5 89.5 c 128,-1,27
 35 189 35 189 35 348 c 128,-1,28
 35 507 35 507 125 608.5 c 128,-1,29
 215 710 215 710 370 710 c 0,30,31
 467 710 467 710 539.5 654 c 128,-1,32
 612 598 612 598 612 510 c 0,33,0
 612 444 612 444 572.5 397.5 c 128,-1,1
EndSplineSet
EndChar

StartChar: H
Encoding: 72 72 43
Width: 994
GlyphClass: 2
Flags: W
LayerCount: 2
Fore
SplineSet
262 335.5 m 128,-1,1
 221 282 221 282 131 282 c 128,-1,2
 41 282 41 282 -2 333 c 128,-1,3
 -45 384 -45 384 -45 456 c 0,4,5
 -45 570 -45 570 62 635 c 128,-1,6
 169 700 169 700 404 700 c 2,7,-1
 566 700 l 1,8,-1
 566 580 l 1,9,-1
 479 580 l 1,10,-1
 479 408 l 1,11,-1
 747 408 l 1,12,-1
 747 580 l 1,13,-1
 660 580 l 1,14,-1
 660 700 l 1,15,-1
 974 700 l 1,16,-1
 974 580 l 1,17,-1
 877 580 l 1,18,-1
 877 120 l 1,19,-1
 974 120 l 1,20,-1
 974 0 l 1,21,-1
 660 0 l 1,22,-1
 660 120 l 1,23,-1
 747 120 l 1,24,-1
 747 288 l 1,25,-1
 479 288 l 1,26,-1
 479 120 l 1,27,-1
 566 120 l 1,28,-1
 566 0 l 1,29,-1
 252 0 l 1,30,-1
 252 120 l 1,31,-1
 349 120 l 1,32,-1
 349 579 l 1,33,34
 199 575 199 575 139.5 546.5 c 128,-1,35
 80 518 80 518 80 460 c 128,-1,36
 80 402 80 402 131 402 c 0,37,38
 178 402 178 402 178 466 c 1,39,-1
 303 466 l 1,40,0
 303 389 303 389 262 335.5 c 128,-1,1
EndSplineSet
EndChar

StartChar: I
Encoding: 73 73 44
Width: 600
GlyphClass: 2
Flags: W
LayerCount: 2
Fore
SplineSet
262 335.5 m 128,-1,1
 221 282 221 282 131 282 c 128,-1,2
 41 282 41 282 -2 333 c 128,-1,3
 -45 384 -45 384 -45 456 c 0,4,5
 -45 570 -45 570 62 635 c 128,-1,6
 169 700 169 700 404 700 c 2,7,-1
 576 700 l 1,8,-1
 576 580 l 1,9,-1
 479 580 l 1,10,-1
 479 120 l 1,11,-1
 576 120 l 1,12,-1
 576 0 l 1,13,-1
 261 0 l 1,14,-1
 261 120 l 1,15,-1
 349 120 l 1,16,-1
 349 579 l 1,17,18
 199 575 199 575 139.5 546.5 c 128,-1,19
 80 518 80 518 80 460 c 128,-1,20
 80 402 80 402 131 402 c 0,21,22
 178 402 178 402 178 466 c 1,23,-1
 303 466 l 1,24,0
 303 389 303 389 262 335.5 c 128,-1,1
EndSplineSet
EndChar

StartChar: J
Encoding: 74 74 45
Width: 600
GlyphClass: 2
Flags: W
LayerCount: 2
Fore
SplineSet
479 580 m 1,0,-1
 479 100 l 2,1,2
 479 -21 479 -21 413 -90.5 c 128,-1,3
 347 -160 347 -160 220 -160 c 1,4,-1
 220 -45 l 1,5,6
 282 -45 282 -45 315.5 -7 c 128,-1,7
 349 31 349 31 349 100 c 2,8,-1
 349 579 l 1,9,10
 199 575 199 575 139.5 546.5 c 128,-1,11
 80 518 80 518 80 460 c 128,-1,12
 80 402 80 402 131 402 c 0,13,14
 178 402 178 402 178 466 c 1,15,-1
 303 466 l 1,16,17
 303 389 303 389 262 335.5 c 128,-1,18
 221 282 221 282 131 282 c 128,-1,19
 41 282 41 282 -2 333 c 128,-1,20
 -45 384 -45 384 -45 456 c 0,21,22
 -45 570 -45 570 62 635 c 128,-1,23
 169 700 169 700 404 700 c 2,24,-1
 576 700 l 1,25,-1
 576 580 l 1,26,-1
 479 580 l 1,0,-1
EndSplineSet
EndChar

StartChar: K
Encoding: 75 75 46
Width: 968
GlyphClass: 2
Flags: W
LayerCount: 2
Fore
SplineSet
262 335.5 m 128,-1,1
 221 282 221 282 131 282 c 128,-1,2
 41 282 41 282 -2 333 c 128,-1,3
 -45 384 -45 384 -45 456 c 0,4,5
 -45 570 -45 570 62 635 c 128,-1,6
 169 700 169 700 404 700 c 2,7,-1
 530 700 l 1,8,-1
 530 580 l 1,9,-1
 479 580 l 1,10,-1
 479 400 l 1,11,-1
 536 436 l 1,12,-1
 654 580 l 1,13,-1
 615 580 l 1,14,-1
 615 700 l 1,15,-1
 891 700 l 1,16,-1
 891 580 l 1,17,-1
 813 580 l 1,18,-1
 631 367 l 1,19,-1
 730 160 l 1,20,21
 759 109 759 109 793.5 109 c 128,-1,22
 828 109 828 109 838.5 123.5 c 128,-1,23
 849 138 849 138 849 170 c 1,24,-1
 969 170 l 1,25,26
 969 75 969 75 927 32 c 128,-1,27
 885 -11 885 -11 805 -11 c 0,28,29
 686 -11 686 -11 617 111 c 1,30,-1
 534 283 l 1,31,-1
 479 260 l 1,32,-1
 479 120 l 1,33,-1
 546 120 l 1,34,-1
 546 0 l 1,35,-1
 252 0 l 1,36,-1
 252 120 l 1,37,-1
 349 120 l 1,38,-1
 349 579 l 1,39,40
 199 575 199 575 139.5 546.5 c 128,-1,41
 80 518 80 518 80 460 c 128,-1,42
 80 402 80 402 131 402 c 0,43,44
 178 402 178 402 178 466 c 1,45,-1
 303 466 l 1,46,0
 303 389 303 389 262 335.5 c 128,-1,1
EndSplineSet
EndChar

StartChar: L
Encoding: 76 76 47
Width: 839
GlyphClass: 2
Flags: W
LayerCount: 2
Fore
SplineSet
262 335.5 m 128,-1,1
 221 282 221 282 131 282 c 128,-1,2
 41 282 41 282 -2 333 c 128,-1,3
 -45 384 -45 384 -45 456 c 0,4,5
 -45 570 -45 570 62 635 c 128,-1,6
 169 700 169 700 404 700 c 2,7,-1
 551 700 l 1,8,-1
 551 580 l 1,9,-1
 479 580 l 1,10,-1
 479 120 l 1,11,-1
 698 120 l 1,12,-1
 698 205 l 1,13,-1
 813 205 l 1,14,-1
 813 0 l 1,15,-1
 252 0 l 1,16,-1
 252 120 l 1,17,-1
 349 120 l 1,18,-1
 349 579 l 1,19,20
 199 575 199 575 139.5 546.5 c 128,-1,21
 80 518 80 518 80 460 c 128,-1,22
 80 402 80 402 131 402 c 0,23,24
 178 402 178 402 178 466 c 1,25,-1
 303 466 l 1,26,0
 303 389 303 389 262 335.5 c 128,-1,1
EndSplineSet
EndChar

StartChar: M
Encoding: 77 77 48
Width: 1110
GlyphClass: 2
Flags: W
LayerCount: 2
Fore
SplineSet
262 335.5 m 128,-1,1
 221 282 221 282 131 282 c 128,-1,2
 41 282 41 282 -2 333 c 128,-1,3
 -45 384 -45 384 -45 456 c 0,4,5
 -45 570 -45 570 62 635 c 128,-1,6
 169 700 169 700 404 700 c 2,7,-1
 494 700 l 1,8,-1
 671 269 l 1,9,-1
 848 700 l 1,10,-1
 1090 700 l 1,11,-1
 1090 580 l 1,12,-1
 993 580 l 1,13,-1
 993 105 l 1,14,-1
 1090 105 l 1,15,-1
 1090 0 l 1,16,-1
 791 0 l 1,17,-1
 791 105 l 1,18,-1
 863 105 l 1,19,-1
 863 421 l 1,20,-1
 721 60 l 1,21,-1
 621 60 l 1,22,-1
 479 421 l 1,23,-1
 479 105 l 1,24,-1
 551 105 l 1,25,-1
 551 0 l 1,26,-1
 252 0 l 1,27,-1
 252 105 l 1,28,-1
 349 105 l 1,29,-1
 349 579 l 1,30,31
 199 575 199 575 139.5 546.5 c 128,-1,32
 80 518 80 518 80 460 c 128,-1,33
 80 402 80 402 131 402 c 0,34,35
 178 402 178 402 178 466 c 1,36,-1
 303 466 l 1,37,0
 303 389 303 389 262 335.5 c 128,-1,1
EndSplineSet
EndChar

StartChar: N
Encoding: 78 78 49
Width: 1009
GlyphClass: 2
Flags: W
LayerCount: 2
Fore
SplineSet
262 335.5 m 128,-1,1
 221 282 221 282 131 282 c 128,-1,2
 41 282 41 282 -2 333 c 128,-1,3
 -45 384 -45 384 -45 456 c 0,4,5
 -45 570 -45 570 62 635 c 128,-1,6
 169 700 169 700 404 700 c 2,7,-1
 481 700 l 1,8,-1
 772 233 l 1,9,-1
 772 580 l 1,10,-1
 685 580 l 1,11,-1
 685 700 l 1,12,-1
 999 700 l 1,13,-1
 999 580 l 1,14,-1
 902 580 l 1,15,-1
 902 0 l 1,16,-1
 779 0 l 1,17,-1
 479 479 l 1,18,-1
 479 120 l 1,19,-1
 566 120 l 1,20,-1
 566 0 l 1,21,-1
 252 0 l 1,22,-1
 252 120 l 1,23,-1
 349 120 l 1,24,-1
 349 579 l 1,25,26
 199 575 199 575 139.5 546.5 c 128,-1,27
 80 518 80 518 80 460 c 128,-1,28
 80 402 80 402 131 402 c 0,29,30
 178 402 178 402 178 466 c 1,31,-1
 303 466 l 1,32,0
 303 389 303 389 262 335.5 c 128,-1,1
EndSplineSet
EndChar

StartChar: O
Encoding: 79 79 50
Width: 740
GlyphClass: 2
Flags: W
LayerCount: 2
Fore
SplineSet
35 350 m 128,-1,1
 35 507 35 507 126 608.5 c 128,-1,2
 217 710 217 710 370.5 710 c 128,-1,3
 524 710 524 710 614.5 609.5 c 128,-1,4
 705 509 705 509 705 351 c 128,-1,5
 705 193 705 193 615 91.5 c 128,-1,6
 525 -10 525 -10 370 -10 c 128,-1,7
 215 -10 215 -10 125 91.5 c 128,-1,0
 35 193 35 193 35 350 c 128,-1,1
303 321 m 0,8,9
 262 321 262 321 227 347 c 128,-1,10
 192 373 192 373 175 404 c 1,11,12
 170 392 170 392 170 350 c 0,13,14
 170 246 170 246 224.5 178 c 128,-1,15
 279 110 279 110 370 110 c 128,-1,16
 461 110 461 110 515.5 178 c 128,-1,17
 570 246 570 246 570 349 c 128,-1,18
 570 452 570 452 515.5 518.5 c 128,-1,19
 461 585 461 585 370 585 c 0,20,21
 330 585 330 585 299 560 c 128,-1,22
 268 535 268 535 268 495 c 0,23,24
 268 441 268 441 304 441 c 0,25,26
 351 441 351 441 351 505 c 1,27,-1
 476 505 l 1,28,29
 476 427 476 427 435 374 c 128,-1,30
 394 321 394 321 303 321 c 0,8,9
EndSplineSet
EndChar

StartChar: P
Encoding: 80 80 51
Width: 852
GlyphClass: 2
Flags: W
LayerCount: 2
Fore
SplineSet
262 335.5 m 128,-1,1
 221 282 221 282 131 282 c 128,-1,2
 41 282 41 282 -2 333 c 128,-1,3
 -45 384 -45 384 -45 456 c 0,4,5
 -45 570 -45 570 62 635 c 128,-1,6
 169 700 169 700 404 700 c 2,7,-1
 449 700 l 2,8,9
 636 700 636 700 726.5 638.5 c 128,-1,10
 817 577 817 577 817 469.5 c 128,-1,11
 817 362 817 362 749.5 302 c 128,-1,12
 682 242 682 242 578 242 c 0,13,14
 522 242 522 242 479 250 c 1,15,-1
 479 120 l 1,16,-1
 596 120 l 1,17,-1
 596 0 l 1,18,-1
 252 0 l 1,19,-1
 252 120 l 1,20,-1
 349 120 l 1,21,-1
 349 579 l 1,22,23
 199 575 199 575 139.5 546.5 c 128,-1,24
 80 518 80 518 80 460 c 128,-1,25
 80 402 80 402 131 402 c 0,26,27
 178 402 178 402 178 466 c 1,28,-1
 303 466 l 1,29,0
 303 389 303 389 262 335.5 c 128,-1,1
479 580 m 1,30,-1
 479 373 l 1,31,32
 518 362 518 362 570.5 362 c 128,-1,33
 623 362 623 362 655 392 c 128,-1,34
 687 422 687 422 687 473.5 c 128,-1,35
 687 525 687 525 639.5 552.5 c 128,-1,36
 592 580 592 580 479 580 c 1,30,-1
EndSplineSet
EndChar

StartChar: Q
Encoding: 81 81 52
Width: 730
GlyphClass: 2
Flags: W
LayerCount: 2
Fore
SplineSet
115 103 m 128,-1,1
 35 202 35 202 35 354.5 c 128,-1,2
 35 507 35 507 126 608.5 c 128,-1,3
 217 710 217 710 370.5 710 c 128,-1,4
 524 710 524 710 614.5 609.5 c 128,-1,5
 705 509 705 509 705 352 c 0,6,7
 705 228 705 228 649.5 137 c 128,-1,8
 594 46 594 46 493 10 c 1,9,-1
 715 -163 l 1,10,-1
 631 -260 l 1,11,-1
 334 -8 l 1,12,0
 195 4 195 4 115 103 c 128,-1,1
303 321 m 0,13,14
 262 321 262 321 227 347 c 128,-1,15
 192 373 192 373 175 404 c 1,16,17
 170 391 170 391 170 350 c 0,18,19
 170 246 170 246 224.5 178 c 128,-1,20
 279 110 279 110 370 110 c 128,-1,21
 461 110 461 110 515.5 178 c 128,-1,22
 570 246 570 246 570 349 c 128,-1,23
 570 452 570 452 515.5 518.5 c 128,-1,24
 461 585 461 585 370 585 c 0,25,26
 330 585 330 585 299 560 c 128,-1,27
 268 535 268 535 268 495 c 0,28,29
 268 441 268 441 304 441 c 0,30,31
 351 441 351 441 351 505 c 1,32,-1
 476 505 l 1,33,34
 476 427 476 427 435 374 c 128,-1,35
 394 321 394 321 303 321 c 0,13,14
EndSplineSet
EndChar

StartChar: R
Encoding: 82 82 53
Width: 904
GlyphClass: 2
Flags: W
LayerCount: 2
Fore
SplineSet
479 120 m 1,0,-1
 536 120 l 1,1,-1
 536 0 l 1,2,-1
 252 0 l 1,3,-1
 252 120 l 1,4,-1
 349 120 l 1,5,-1
 349 579 l 1,6,7
 199 575 199 575 139.5 546.5 c 128,-1,8
 80 518 80 518 80 460 c 128,-1,9
 80 402 80 402 131 402 c 0,10,11
 178 402 178 402 178 466 c 1,12,-1
 303 466 l 1,13,14
 303 389 303 389 262 335.5 c 128,-1,15
 221 282 221 282 131 282 c 128,-1,16
 41 282 41 282 -2 333 c 128,-1,17
 -45 384 -45 384 -45 456 c 0,18,19
 -45 570 -45 570 62 635 c 128,-1,20
 169 700 169 700 404 700 c 2,21,-1
 449 700 l 2,22,23
 636 700 636 700 726.5 638.5 c 128,-1,24
 817 577 817 577 817 471 c 0,25,26
 817 383 817 383 772.5 326.5 c 128,-1,27
 728 270 728 270 653 251 c 1,28,29
 675 174 675 174 699 141.5 c 128,-1,30
 723 109 723 109 754 109 c 0,31,32
 778 109 778 109 778 140 c 1,33,-1
 898 140 l 1,34,35
 898 63 898 63 859 26 c 128,-1,36
 820 -11 820 -11 764 -11 c 0,37,38
 676 -11 676 -11 622.5 46.5 c 128,-1,39
 569 104 569 104 526 243 c 1,40,41
 496 246 496 246 479 250 c 1,42,-1
 479 120 l 1,0,-1
479 580 m 1,43,-1
 479 373 l 1,44,45
 518 362 518 362 570.5 362 c 128,-1,46
 623 362 623 362 655 392 c 128,-1,47
 687 422 687 422 687 473.5 c 128,-1,48
 687 525 687 525 639.5 552.5 c 128,-1,49
 592 580 592 580 479 580 c 1,43,-1
EndSplineSet
EndChar

StartChar: S
Encoding: 83 83 54
Width: 482
GlyphClass: 2
Flags: W
LayerCount: 2
Fore
SplineSet
351 320 m 2,0,1
 456 255 456 255 456 168 c 128,-1,2
 456 81 456 81 382.5 36.5 c 128,-1,3
 309 -8 309 -8 179 -8 c 128,-1,4
 49 -8 49 -8 -45 43 c 1,5,-1
 -45 223 l 1,6,-1
 70 223 l 1,7,-1
 70 132 l 1,8,9
 127 112 127 112 188.5 112 c 128,-1,10
 250 112 250 112 288.5 126.5 c 128,-1,11
 327 141 327 141 327 165 c 0,12,13
 327 180 327 180 317 190.5 c 128,-1,14
 307 201 307 201 277 219 c 2,15,-1
 104 320 l 1,16,17
 3 387 3 387 -22 452 c 0,18,19
 -36 487 -36 487 -36 527 c 0,20,21
 -36 616 -36 616 35 666.5 c 128,-1,22
 106 717 106 717 211 717 c 128,-1,23
 316 717 316 717 385.5 669.5 c 128,-1,24
 455 622 455 622 455 547 c 0,25,26
 455 469 455 469 409 433 c 0,27,28
 367 400 367 400 284 400 c 1,29,-1
 284 515 l 1,30,31
 308 515 308 515 316.5 521.5 c 128,-1,32
 325 528 325 528 325 545 c 128,-1,33
 325 562 325 562 297.5 579.5 c 128,-1,34
 270 597 270 597 216 597 c 128,-1,35
 162 597 162 597 128 580.5 c 128,-1,36
 94 564 94 564 94 532 c 128,-1,37
 94 500 94 500 108.5 479.5 c 128,-1,38
 123 459 123 459 159 437 c 2,39,-1
 351 320 l 2,0,1
EndSplineSet
EndChar

StartChar: T
Encoding: 84 84 55
Width: 775
GlyphClass: 2
Flags: W
LayerCount: 2
Fore
SplineSet
519 580 m 1,0,-1
 519 120 l 1,1,-1
 616 120 l 1,2,-1
 616 0 l 1,3,-1
 301 0 l 1,4,-1
 301 120 l 1,5,-1
 389 120 l 1,6,-1
 389 580 l 1,7,-1
 319 580 l 2,8,9
 188 580 188 580 134 549 c 128,-1,10
 80 518 80 518 80 460 c 128,-1,11
 80 402 80 402 131 402 c 0,12,13
 178 402 178 402 178 466 c 1,14,-1
 303 466 l 1,15,16
 303 389 303 389 262 335.5 c 128,-1,17
 221 282 221 282 131 282 c 128,-1,18
 41 282 41 282 -2 333 c 128,-1,19
 -45 384 -45 384 -45 456 c 0,20,21
 -45 570 -45 570 58.5 635 c 128,-1,22
 162 700 162 700 389 700 c 2,23,-1
 741 700 l 1,24,-1
 741 493 l 1,25,-1
 622 493 l 1,26,-1
 622 580 l 1,27,-1
 519 580 l 1,0,-1
EndSplineSet
EndChar

StartChar: U
Encoding: 85 85 56
Width: 1013
GlyphClass: 2
Flags: W
LayerCount: 2
Fore
SplineSet
262 335.5 m 128,-1,1
 221 282 221 282 131 282 c 128,-1,2
 41 282 41 282 -2 333 c 128,-1,3
 -45 384 -45 384 -45 456 c 0,4,5
 -45 570 -45 570 62 635 c 128,-1,6
 169 700 169 700 404 700 c 2,7,-1
 566 700 l 1,8,-1
 566 580 l 1,9,-1
 479 580 l 1,10,-1
 479 235 l 2,11,12
 479 184 479 184 521.5 149.5 c 128,-1,13
 564 115 564 115 631.5 115 c 128,-1,14
 699 115 699 115 743 149.5 c 128,-1,15
 787 184 787 184 787 235 c 2,16,-1
 787 580 l 1,17,-1
 700 580 l 1,18,-1
 700 700 l 1,19,-1
 1014 700 l 1,20,-1
 1014 580 l 1,21,-1
 917 580 l 1,22,-1
 917 235 l 2,23,24
 917 131 917 131 839.5 60.5 c 128,-1,25
 762 -10 762 -10 631.5 -10 c 128,-1,26
 501 -10 501 -10 425 60 c 128,-1,27
 349 130 349 130 349 235 c 2,28,-1
 349 579 l 1,29,30
 199 575 199 575 139.5 546.5 c 128,-1,31
 80 518 80 518 80 460 c 128,-1,32
 80 402 80 402 131 402 c 0,33,34
 178 402 178 402 178 466 c 1,35,-1
 303 466 l 1,36,0
 303 389 303 389 262 335.5 c 128,-1,1
EndSplineSet
EndChar

StartChar: V
Encoding: 86 86 57
Width: 880
GlyphClass: 2
Flags: W
LayerCount: 2
Fore
SplineSet
262 335.5 m 128,-1,1
 221 282 221 282 131 282 c 128,-1,2
 41 282 41 282 -2 333 c 128,-1,3
 -45 384 -45 384 -45 456 c 0,4,5
 -45 570 -45 570 62 635 c 128,-1,6
 169 700 169 700 404 700 c 2,7,-1
 513 700 l 1,8,-1
 513 580 l 1,9,-1
 458 580 l 1,10,-1
 570 201 l 1,11,-1
 683 580 l 1,12,-1
 628 580 l 1,13,-1
 628 700 l 1,14,-1
 880 700 l 1,15,-1
 880 580 l 1,16,-1
 816 580 l 1,17,-1
 637 0 l 1,18,-1
 504 0 l 1,19,-1
 325 578 l 1,20,21
 189 572 189 572 134.5 543.5 c 128,-1,22
 80 515 80 515 80 458.5 c 128,-1,23
 80 402 80 402 131 402 c 0,24,25
 178 402 178 402 178 466 c 1,26,-1
 303 466 l 1,27,0
 303 389 303 389 262 335.5 c 128,-1,1
EndSplineSet
EndChar

StartChar: W
Encoding: 87 87 58
Width: 1213
GlyphClass: 2
Flags: W
LayerCount: 2
Fore
SplineSet
262 335.5 m 128,-1,1
 221 282 221 282 131 282 c 128,-1,2
 41 282 41 282 -2 333 c 128,-1,3
 -45 384 -45 384 -45 456 c 0,4,5
 -45 570 -45 570 62 635 c 128,-1,6
 169 700 169 700 404 700 c 2,7,-1
 538 700 l 1,8,-1
 538 580 l 1,9,-1
 481 580 l 1,10,-1
 575 211 l 1,11,-1
 698 700 l 1,12,-1
 801 700 l 1,13,-1
 923 211 l 1,14,-1
 1018 580 l 1,15,-1
 961 580 l 1,16,-1
 961 700 l 1,17,-1
 1213 700 l 1,18,-1
 1213 580 l 1,19,-1
 1151 580 l 1,20,-1
 995 0 l 1,21,-1
 862 0 l 1,22,-1
 749 405 l 1,23,-1
 637 0 l 1,24,-1
 504 0 l 1,25,-1
 348 579 l 1,26,27
 198 575 198 575 139 546.5 c 128,-1,28
 80 518 80 518 80 460 c 128,-1,29
 80 402 80 402 131 402 c 0,30,31
 178 402 178 402 178 466 c 1,32,-1
 303 466 l 1,33,0
 303 389 303 389 262 335.5 c 128,-1,1
EndSplineSet
EndChar

StartChar: X
Encoding: 88 88 59
Width: 818
GlyphClass: 2
Flags: W
LayerCount: 2
Fore
SplineSet
262 335 m 128,-1,1
 221 282 221 282 131 282 c 128,-1,2
 41 282 41 282 -2 333 c 128,-1,3
 -45 384 -45 384 -45 456 c 0,4,5
 -45 570 -45 570 65.5 635 c 128,-1,6
 176 700 176 700 419 700 c 2,7,-1
 462 700 l 1,8,-1
 462 580 l 1,9,-1
 441 580 l 1,10,-1
 513 464 l 1,11,-1
 585 580 l 1,12,-1
 548 580 l 1,13,-1
 548 700 l 1,14,-1
 800 700 l 1,15,-1
 800 580 l 1,16,-1
 727 580 l 1,17,-1
 590 360 l 1,18,-1
 742 120 l 1,19,-1
 817 120 l 1,20,-1
 817 0 l 1,21,-1
 565 0 l 1,22,-1
 565 120 l 1,23,-1
 599 120 l 1,24,-1
 513 258 l 1,25,-1
 428 120 l 1,26,-1
 459 120 l 1,27,-1
 459 0 l 1,28,-1
 207 0 l 1,29,-1
 207 120 l 1,30,-1
 286 120 l 1,31,-1
 436 360 l 1,32,-1
 301 576 l 1,33,34
 178 566 178 566 129 538.5 c 128,-1,35
 80 511 80 511 80 456.5 c 128,-1,36
 80 402 80 402 131 402 c 0,37,38
 178 402 178 402 178 466 c 1,39,-1
 303 466 l 1,40,0
 303 388 303 388 262 335 c 128,-1,1
EndSplineSet
EndChar

StartChar: Y
Encoding: 89 89 60
Width: 804
GlyphClass: 2
Flags: W
LayerCount: 2
Fore
SplineSet
262 335.5 m 128,-1,1
 221 282 221 282 131 282 c 128,-1,2
 41 282 41 282 -2 333 c 128,-1,3
 -45 384 -45 384 -45 456 c 0,4,5
 -45 570 -45 570 58.5 635 c 128,-1,6
 162 700 162 700 389 700 c 2,7,-1
 481 700 l 1,8,-1
 481 580 l 1,9,-1
 441 580 l 1,10,-1
 516 414 l 1,11,-1
 591 580 l 1,12,-1
 551 580 l 1,13,-1
 551 700 l 1,14,-1
 803 700 l 1,15,-1
 803 580 l 1,16,-1
 733 580 l 1,17,-1
 581 273 l 1,18,-1
 581 120 l 1,19,-1
 678 120 l 1,20,-1
 678 0 l 1,21,-1
 354 0 l 1,22,-1
 354 120 l 1,23,-1
 451 120 l 1,24,-1
 451 273 l 1,25,-1
 300 578 l 1,26,27
 178 571 178 571 129 543 c 128,-1,28
 80 515 80 515 80 458.5 c 128,-1,29
 80 402 80 402 131 402 c 0,30,31
 178 402 178 402 178 466 c 1,32,-1
 303 466 l 1,33,0
 303 389 303 389 262 335.5 c 128,-1,1
EndSplineSet
EndChar

StartChar: Z
Encoding: 90 90 61
Width: 737
GlyphClass: 2
Flags: W
LayerCount: 2
Fore
SplineSet
262 335.5 m 128,-1,1
 221 282 221 282 131 282 c 128,-1,2
 41 282 41 282 -2 333 c 128,-1,3
 -45 384 -45 384 -45 456 c 0,4,5
 -45 570 -45 570 62 635 c 128,-1,6
 169 700 169 700 404 700 c 2,7,-1
 682 700 l 1,8,-1
 682 600 l 1,9,-1
 344 120 l 1,10,-1
 585 120 l 1,11,-1
 585 189 l 1,12,-1
 685 189 l 1,13,-1
 685 0 l 1,14,-1
 173 0 l 1,15,-1
 173 100 l 1,16,-1
 510 580 l 1,17,-1
 402 580 l 2,18,19
 220 580 220 580 150 551.5 c 128,-1,20
 80 523 80 523 80 456 c 0,21,22
 80 402 80 402 131 402 c 0,23,24
 178 402 178 402 178 466 c 1,25,-1
 303 466 l 1,26,0
 303 389 303 389 262 335.5 c 128,-1,1
EndSplineSet
EndChar

StartChar: bracketleft
Encoding: 91 91 62
Width: 288
GlyphClass: 2
Flags: W
LayerCount: 2
Fore
SplineSet
248 795 m 1,0,-1
 248 685 l 1,1,-1
 160 685 l 1,2,-1
 160 -90 l 1,3,-1
 248 -90 l 1,4,-1
 248 -200 l 1,5,-1
 40 -200 l 1,6,-1
 40 795 l 1,7,-1
 248 795 l 1,0,-1
EndSplineSet
EndChar

StartChar: backslash
Encoding: 92 92 63
Width: 420
GlyphClass: 2
Flags: W
LayerCount: 2
Fore
SplineSet
120 700 m 1,0,-1
 410 -30 l 1,1,-1
 300 -30 l 1,2,-1
 10 700 l 1,3,-1
 120 700 l 1,0,-1
EndSplineSet
EndChar

StartChar: bracketright
Encoding: 93 93 64
Width: 288
GlyphClass: 2
Flags: W
LayerCount: 2
Fore
SplineSet
40 685 m 1,0,-1
 40 795 l 1,1,-1
 248 795 l 1,2,-1
 248 -200 l 1,3,-1
 40 -200 l 1,4,-1
 40 -90 l 1,5,-1
 128 -90 l 1,6,-1
 128 685 l 1,7,-1
 40 685 l 1,0,-1
EndSplineSet
EndChar

StartChar: asciicircum
Encoding: 94 94 65
Width: 489
GlyphClass: 2
Flags: W
LayerCount: 2
Fore
SplineSet
290 700 m 1,0,-1
 478 365 l 1,1,-1
 346 365 l 1,2,-1
 245 539 l 1,3,-1
 143 365 l 1,4,-1
 13 365 l 1,5,-1
 200 700 l 1,6,-1
 290 700 l 1,0,-1
EndSplineSet
EndChar

StartChar: underscore
Encoding: 95 95 66
Width: 590
GlyphClass: 2
Flags: W
LayerCount: 2
Fore
SplineSet
590 -117 m 1,0,-1
 0 -117 l 1,1,-1
 0 0 l 1,2,-1
 590 0 l 1,3,-1
 590 -117 l 1,0,-1
EndSplineSet
EndChar

StartChar: grave
Encoding: 96 96 67
Width: 335
GlyphClass: 2
Flags: W
LayerCount: 2
Fore
SplineSet
172 760 m 1,0,-1
 44 918 l 1,1,-1
 155 993 l 1,2,-1
 256 810 l 1,3,-1
 172 760 l 1,0,-1
EndSplineSet
EndChar

StartChar: a
Encoding: 97 97 68
Width: 552
GlyphClass: 2
Flags: W
LayerCount: 2
Fore
SplineSet
192 -10 m 128,-1,1
 116 -10 116 -10 73 29 c 128,-1,2
 30 68 30 68 30 138.5 c 128,-1,3
 30 209 30 209 86 258 c 128,-1,4
 142 307 142 307 251 307 c 2,5,-1
 330 307 l 1,6,-1
 330 343 l 2,7,8
 330 390 330 390 271 390 c 128,-1,9
 212 390 212 390 166 377 c 1,10,-1
 166 320 l 1,11,-1
 51 320 l 1,12,-1
 51 469 l 1,13,14
 100 488 100 488 165.5 499 c 128,-1,15
 231 510 231 510 275 510 c 0,16,17
 362 510 362 510 411 464.5 c 128,-1,18
 460 419 460 419 460 343 c 2,19,-1
 460 105 l 1,20,-1
 542 105 l 1,21,-1
 542 18 l 1,22,23
 499 -5 499 -5 434 -5 c 0,24,25
 330 -5 330 -5 330 65 c 1,26,0
 268 -10 268 -10 192 -10 c 128,-1,1
201 110 m 0,27,28
 270 110 270 110 330 192 c 1,29,-1
 330 196 l 1,30,-1
 250 196 l 2,31,32
 204 196 204 196 182 180 c 128,-1,33
 160 164 160 164 160 137 c 128,-1,34
 160 110 160 110 201 110 c 0,27,28
EndSplineSet
EndChar

StartChar: b
Encoding: 98 98 69
Width: 582
GlyphClass: 2
Flags: W
LayerCount: 2
Fore
SplineSet
87 640 m 1,0,-1
 10 640 l 1,1,-1
 10 750 l 1,2,-1
 217 750 l 1,3,-1
 217 460 l 1,4,5
 262 510 262 510 338 510 c 0,6,7
 438 510 438 510 492.5 436.5 c 128,-1,8
 547 363 547 363 547 249.5 c 128,-1,9
 547 136 547 136 480 63 c 128,-1,10
 413 -10 413 -10 286 -10 c 0,11,12
 192 -10 192 -10 87 20 c 1,13,-1
 87 640 l 1,0,-1
392 349 m 128,-1,15
 367 390 367 390 321 390 c 128,-1,16
 275 390 275 390 246 343 c 128,-1,17
 217 296 217 296 217 230 c 2,18,-1
 217 122 l 1,19,20
 244 110 244 110 278 110 c 0,21,22
 347 110 347 110 382 148 c 128,-1,23
 417 186 417 186 417 247 c 128,-1,14
 417 308 417 308 392 349 c 128,-1,15
EndSplineSet
EndChar

StartChar: c
Encoding: 99 99 70
Width: 495
GlyphClass: 2
Flags: W
LayerCount: 2
Fore
SplineSet
480 57 m 1,0,1
 402 -10 402 -10 283 -10 c 128,-1,2
 164 -10 164 -10 99.5 63.5 c 128,-1,3
 35 137 35 137 35 250 c 128,-1,4
 35 363 35 363 99.5 436.5 c 128,-1,5
 164 510 164 510 271.5 510 c 128,-1,6
 379 510 379 510 456 469 c 1,7,-1
 456 305 l 1,8,-1
 341 305 l 1,9,-1
 341 382 l 1,10,11
 314 390 314 390 280 390 c 0,12,13
 226 390 226 390 195.5 351 c 128,-1,14
 165 312 165 312 165 250 c 128,-1,15
 165 188 165 188 195.5 149 c 128,-1,16
 226 110 226 110 272.5 110 c 128,-1,17
 319 110 319 110 350.5 119 c 128,-1,18
 382 128 382 128 394.5 135.5 c 128,-1,19
 407 143 407 143 428 158 c 1,20,-1
 480 57 l 1,0,1
EndSplineSet
EndChar

StartChar: d
Encoding: 100 100 71
Width: 587
GlyphClass: 2
Flags: W
LayerCount: 2
Fore
SplineSet
495 750 m 1,0,-1
 495 105 l 1,1,-1
 577 105 l 1,2,-1
 577 18 l 1,3,4
 534 -5 534 -5 469 -5 c 0,5,6
 370 -5 370 -5 365 55 c 1,7,8
 319 -10 319 -10 247 -10 c 0,9,10
 145 -10 145 -10 90 62.5 c 128,-1,11
 35 135 35 135 35 248.5 c 128,-1,12
 35 362 35 362 98.5 436 c 128,-1,13
 162 510 162 510 281 510 c 0,14,15
 315 510 315 510 365 504 c 1,16,-1
 365 640 l 1,17,-1
 288 640 l 1,18,-1
 288 750 l 1,19,-1
 495 750 l 1,0,-1
190.5 150 m 128,-1,21
 216 110 216 110 261 110 c 128,-1,22
 306 110 306 110 335.5 157 c 128,-1,23
 365 204 365 204 365 270 c 2,24,-1
 365 373 l 1,25,26
 326 390 326 390 288 390 c 0,27,28
 232 390 232 390 198.5 352.5 c 128,-1,29
 165 315 165 315 165 252.5 c 128,-1,20
 165 190 165 190 190.5 150 c 128,-1,21
EndSplineSet
EndChar

StartChar: e
Encoding: 101 101 72
Width: 533
GlyphClass: 2
Flags: W
LayerCount: 2
Fore
SplineSet
503 254 m 2,0,-1
 503 201 l 1,1,-1
 165 201 l 1,2,3
 168 161 168 161 198.5 135.5 c 128,-1,4
 229 110 229 110 270 110 c 128,-1,5
 311 110 311 110 339.5 116 c 128,-1,6
 368 122 368 122 379.5 127 c 128,-1,7
 391 132 391 132 414 145 c 2,8,-1
 438 158 l 1,9,-1
 490 57 l 1,10,11
 408 -10 408 -10 286 -10 c 128,-1,12
 164 -10 164 -10 99.5 63.5 c 128,-1,13
 35 137 35 137 35 250 c 128,-1,14
 35 363 35 363 99.5 436.5 c 128,-1,15
 164 510 164 510 275.5 510 c 128,-1,16
 387 510 387 510 445 438 c 128,-1,17
 503 366 503 366 503 254 c 2,0,-1
345.5 366 m 128,-1,19
 322 390 322 390 278.5 390 c 128,-1,20
 235 390 235 390 206.5 365.5 c 128,-1,21
 178 341 178 341 169 302 c 1,22,-1
 373 302 l 1,23,18
 369 342 369 342 345.5 366 c 128,-1,19
EndSplineSet
EndChar

StartChar: f
Encoding: 102 102 73
Width: 387
GlyphClass: 2
Flags: W
LayerCount: 2
Fore
SplineSet
300 571 m 1,0,-1
 300 638 l 1,1,2
 257 637 257 637 242.5 615 c 128,-1,3
 228 593 228 593 228 546 c 2,4,-1
 228 500 l 1,5,-1
 372 500 l 1,6,-1
 372 390 l 1,7,-1
 228 390 l 1,8,-1
 228 110 l 1,9,-1
 300 110 l 1,10,-1
 300 0 l 1,11,-1
 20 0 l 1,12,-1
 20 110 l 1,13,-1
 98 110 l 1,14,-1
 98 390 l 1,15,-1
 21 390 l 1,16,-1
 21 490 l 1,17,-1
 98 500 l 1,18,-1
 98 546 l 2,19,20
 98 651 98 651 143.5 704.5 c 128,-1,21
 189 758 189 758 305 758 c 0,22,23
 348 758 348 758 415 750 c 1,24,-1
 415 571 l 1,25,-1
 300 571 l 1,0,-1
EndSplineSet
EndChar

StartChar: g
Encoding: 103 103 74
Width: 538
GlyphClass: 2
Flags: W
LayerCount: 2
Fore
SplineSet
101 206 m 1,0,1
 50 253 50 253 50 330.5 c 128,-1,2
 50 408 50 408 107 459 c 128,-1,3
 164 510 164 510 265 510 c 0,4,5
 329 510 329 510 373 488 c 1,6,-1
 538 488 l 1,7,-1
 538 371 l 1,8,-1
 472 371 l 1,9,10
 480 347 480 347 480 330 c 0,11,12
 480 252 480 252 423 201 c 128,-1,13
 366 150 366 150 265 150 c 0,14,15
 228 150 228 150 193 158 c 1,16,17
 185 157 185 157 178.5 150.5 c 128,-1,18
 172 144 172 144 172 135 c 128,-1,19
 172 126 172 126 179 122 c 0,20,21
 190 114 190 114 222 111 c 1,22,-1
 370 90 l 2,23,24
 438 80 438 80 478 40.5 c 128,-1,25
 518 1 518 1 518 -66.5 c 128,-1,26
 518 -134 518 -134 445 -179 c 128,-1,27
 372 -224 372 -224 260 -224 c 128,-1,28
 148 -224 148 -224 93 -183 c 128,-1,29
 38 -142 38 -142 38 -79 c 0,30,31
 38 -47 38 -47 52 -19.5 c 128,-1,32
 66 8 66 8 96 20 c 1,33,34
 42 42 42 42 42 108.5 c 128,-1,35
 42 175 42 175 101 206 c 1,0,1
180 330 m 128,-1,37
 180 303 180 303 202 286.5 c 128,-1,38
 224 270 224 270 265 270 c 128,-1,39
 306 270 306 270 328 286.5 c 128,-1,40
 350 303 350 303 350 330 c 128,-1,41
 350 357 350 357 328 373.5 c 128,-1,42
 306 390 306 390 265 390 c 128,-1,43
 224 390 224 390 202 373.5 c 128,-1,36
 180 357 180 357 180 330 c 128,-1,37
168 -73 m 0,44,45
 168 -104 168 -104 254 -104 c 0,46,47
 313 -104 313 -104 350.5 -93 c 128,-1,48
 388 -82 388 -82 388 -60 c 0,49,50
 388 -34 388 -34 343 -29 c 2,51,-1
 220 -15 l 1,52,53
 199 -19 199 -19 183.5 -36 c 128,-1,54
 168 -53 168 -53 168 -73 c 0,44,45
EndSplineSet
EndChar

StartChar: h
Encoding: 104 104 75
Width: 640
GlyphClass: 2
Flags: W
LayerCount: 2
Fore
SplineSet
227 110 m 1,0,-1
 314 110 l 1,1,-1
 314 0 l 1,2,-1
 20 0 l 1,3,-1
 20 110 l 1,4,-1
 97 110 l 1,5,-1
 97 640 l 1,6,-1
 20 640 l 1,7,-1
 20 750 l 1,8,-1
 227 750 l 1,9,-1
 227 466 l 1,10,11
 313 510 313 510 382 510 c 0,12,13
 476 510 476 510 512 455 c 128,-1,14
 548 400 548 400 548 303 c 2,15,-1
 548 105 l 1,16,-1
 630 105 l 1,17,-1
 630 18 l 1,18,19
 587 -5 587 -5 526 -5 c 128,-1,20
 465 -5 465 -5 441.5 22 c 128,-1,21
 418 49 418 49 418 110 c 2,22,-1
 418 303 l 2,23,24
 418 347 418 347 406 368.5 c 128,-1,25
 394 390 394 390 350 390 c 128,-1,26
 306 390 306 390 227 330 c 1,27,-1
 227 110 l 1,0,-1
EndSplineSet
EndChar

StartChar: i
Encoding: 105 105 76
Width: 360
GlyphClass: 2
Flags: W
LayerCount: 2
Fore
SplineSet
41 390 m 1,0,-1
 41 500 l 1,1,-1
 248 500 l 1,2,-1
 248 110 l 1,3,-1
 335 110 l 1,4,-1
 335 0 l 1,5,-1
 40 0 l 1,6,-1
 40 110 l 1,7,-1
 118 110 l 1,8,-1
 118 390 l 1,9,-1
 41 390 l 1,0,-1
132.5 571 m 128,-1,11
 113 593 113 593 113 624 c 128,-1,12
 113 655 113 655 134 677.5 c 128,-1,13
 155 700 155 700 186.5 700 c 128,-1,14
 218 700 218 700 237 678 c 128,-1,15
 256 656 256 656 256 625 c 128,-1,16
 256 594 256 594 235 571.5 c 128,-1,17
 214 549 214 549 183 549 c 128,-1,10
 152 549 152 549 132.5 571 c 128,-1,11
EndSplineSet
EndChar

StartChar: j
Encoding: 106 106 77
Width: 323
GlyphClass: 2
Flags: W
LayerCount: 2
Fore
SplineSet
41 390 m 1,0,-1
 41 500 l 1,1,-1
 248 500 l 1,2,-1
 248 25 l 2,3,4
 248 -88 248 -88 187.5 -156.5 c 128,-1,5
 127 -225 127 -225 -3 -225 c 1,6,-1
 -3 -106 l 1,7,8
 60 -106 60 -106 89 -73.5 c 128,-1,9
 118 -41 118 -41 118 25 c 2,10,-1
 118 390 l 1,11,-1
 41 390 l 1,0,-1
132.5 571 m 128,-1,13
 113 593 113 593 113 624 c 128,-1,14
 113 655 113 655 134 677.5 c 128,-1,15
 155 700 155 700 186.5 700 c 128,-1,16
 218 700 218 700 237 678 c 128,-1,17
 256 656 256 656 256 625 c 128,-1,18
 256 594 256 594 235 571.5 c 128,-1,19
 214 549 214 549 183 549 c 128,-1,12
 152 549 152 549 132.5 571 c 128,-1,13
EndSplineSet
EndChar

StartChar: k
Encoding: 107 107 78
Width: 567
GlyphClass: 2
Flags: W
LayerCount: 2
Fore
SplineSet
11 640 m 1,0,-1
 11 750 l 1,1,-1
 218 750 l 1,2,-1
 218 311 l 1,3,-1
 253 324 l 1,4,-1
 320 390 l 1,5,-1
 286 390 l 1,6,-1
 286 500 l 1,7,-1
 546 500 l 1,8,-1
 546 390 l 1,9,-1
 490 390 l 1,10,-1
 362 263 l 1,11,-1
 491 105 l 1,12,-1
 567 105 l 1,13,-1
 567 18 l 1,14,15
 545 5 545 5 528 0 c 128,-1,16
 511 -5 511 -5 473 -5 c 128,-1,17
 435 -5 435 -5 411 8.5 c 128,-1,18
 387 22 387 22 366 50 c 2,19,-1
 250 202 l 1,20,-1
 218 189 l 1,21,-1
 218 110 l 1,22,-1
 285 110 l 1,23,-1
 285 0 l 1,24,-1
 10 0 l 1,25,-1
 10 110 l 1,26,-1
 88 110 l 1,27,-1
 88 640 l 1,28,-1
 11 640 l 1,0,-1
EndSplineSet
EndChar

StartChar: l
Encoding: 108 108 79
Width: 340
GlyphClass: 2
Flags: W
LayerCount: 2
Fore
SplineSet
21 640 m 1,0,-1
 21 750 l 1,1,-1
 228 750 l 1,2,-1
 228 110 l 1,3,-1
 315 110 l 1,4,-1
 315 0 l 1,5,-1
 20 0 l 1,6,-1
 20 110 l 1,7,-1
 98 110 l 1,8,-1
 98 640 l 1,9,-1
 21 640 l 1,0,-1
EndSplineSet
EndChar

StartChar: m
Encoding: 109 109 80
Width: 922
GlyphClass: 2
Flags: W
LayerCount: 2
Fore
SplineSet
227 110 m 1,0,-1
 289 110 l 1,1,-1
 289 0 l 1,2,-1
 20 0 l 1,3,-1
 20 110 l 1,4,-1
 97 110 l 1,5,-1
 97 390 l 1,6,-1
 20 390 l 1,7,-1
 20 500 l 1,8,-1
 197 500 l 1,9,-1
 212 451 l 1,10,11
 288 510 288 510 352 510 c 0,12,13
 452 510 452 510 496 452 c 1,14,15
 592 510 592 510 664 510 c 0,16,17
 758 510 758 510 794 455 c 128,-1,18
 830 400 830 400 830 303 c 2,19,-1
 830 105 l 1,20,-1
 912 105 l 1,21,-1
 912 18 l 1,22,23
 869 -5 869 -5 808 -5 c 128,-1,24
 747 -5 747 -5 723.5 22 c 128,-1,25
 700 49 700 49 700 110 c 2,26,-1
 700 303 l 2,27,28
 700 347 700 347 688 368.5 c 128,-1,29
 676 390 676 390 635 390 c 128,-1,30
 594 390 594 390 531 346 c 1,31,32
 533 318 533 318 533 303 c 2,33,-1
 533 105 l 1,34,-1
 615 105 l 1,35,-1
 615 0 l 1,36,-1
 351 0 l 1,37,-1
 351 110 l 1,38,-1
 403 110 l 1,39,-1
 403 303 l 2,40,41
 403 347 403 347 391 368.5 c 128,-1,42
 379 390 379 390 337 390 c 128,-1,43
 295 390 295 390 227 330 c 1,44,-1
 227 110 l 1,0,-1
EndSplineSet
EndChar

StartChar: n
Encoding: 110 110 81
Width: 640
GlyphClass: 2
Flags: W
LayerCount: 2
Fore
SplineSet
227 110 m 1,0,-1
 314 110 l 1,1,-1
 314 0 l 1,2,-1
 20 0 l 1,3,-1
 20 110 l 1,4,-1
 97 110 l 1,5,-1
 97 390 l 1,6,-1
 20 390 l 1,7,-1
 20 500 l 1,8,-1
 197 500 l 1,9,-1
 212 451 l 1,10,11
 306 510 306 510 382 510 c 0,12,13
 476 510 476 510 512 455 c 128,-1,14
 548 400 548 400 548 303 c 2,15,-1
 548 105 l 1,16,-1
 630 105 l 1,17,-1
 630 18 l 1,18,19
 587 -5 587 -5 526 -5 c 128,-1,20
 465 -5 465 -5 441.5 22 c 128,-1,21
 418 49 418 49 418 110 c 2,22,-1
 418 303 l 2,23,24
 418 347 418 347 406 368.5 c 128,-1,25
 394 390 394 390 350 390 c 128,-1,26
 306 390 306 390 227 330 c 1,27,-1
 227 110 l 1,0,-1
EndSplineSet
EndChar

StartChar: o
Encoding: 111 111 82
Width: 580
GlyphClass: 2
Flags: W
LayerCount: 2
Fore
SplineSet
35 250 m 128,-1,1
 35 363 35 363 102 436.5 c 128,-1,2
 169 510 169 510 290 510 c 128,-1,3
 411 510 411 510 478 436.5 c 128,-1,4
 545 363 545 363 545 250 c 128,-1,5
 545 137 545 137 478 63.5 c 128,-1,6
 411 -10 411 -10 290 -10 c 128,-1,7
 169 -10 169 -10 102 63.5 c 128,-1,0
 35 137 35 137 35 250 c 128,-1,1
165 250 m 128,-1,9
 165 189 165 189 198 149.5 c 128,-1,10
 231 110 231 110 290 110 c 128,-1,11
 349 110 349 110 382 149.5 c 128,-1,12
 415 189 415 189 415 250 c 128,-1,13
 415 311 415 311 382 350.5 c 128,-1,14
 349 390 349 390 290 390 c 128,-1,15
 231 390 231 390 198 350.5 c 128,-1,8
 165 311 165 311 165 250 c 128,-1,9
EndSplineSet
EndChar

StartChar: p
Encoding: 112 112 83
Width: 597
GlyphClass: 2
Flags: W
LayerCount: 2
Fore
SplineSet
102 -107 m 1,0,-1
 102 393 l 1,1,-1
 20 393 l 1,2,-1
 20 500 l 1,3,-1
 201 500 l 1,4,-1
 217 443 l 1,5,6
 267 508 267 508 350 508 c 0,7,8
 452 508 452 508 507 435.5 c 128,-1,9
 562 363 562 363 562 249.5 c 128,-1,10
 562 136 562 136 498.5 62 c 128,-1,11
 435 -12 435 -12 316 -12 c 0,12,13
 282 -12 282 -12 232 -6 c 1,14,-1
 232 -105 l 1,15,-1
 294 -105 l 1,16,-1
 294 -215 l 1,17,-1
 25 -215 l 1,18,-1
 25 -107 l 1,19,-1
 102 -107 l 1,0,-1
406.5 348 m 128,-1,21
 381 388 381 388 336 388 c 128,-1,22
 291 388 291 388 261.5 341 c 128,-1,23
 232 294 232 294 232 228 c 2,24,-1
 232 125 l 1,25,26
 271 108 271 108 309 108 c 0,27,28
 365 108 365 108 398.5 145.5 c 128,-1,29
 432 183 432 183 432 245.5 c 128,-1,20
 432 308 432 308 406.5 348 c 128,-1,21
EndSplineSet
EndChar

StartChar: q
Encoding: 113 113 84
Width: 572
GlyphClass: 2
Flags: W
LayerCount: 2
Fore
SplineSet
495 -105 m 1,0,-1
 572 -105 l 1,1,-1
 572 -215 l 1,2,-1
 293 -215 l 1,3,-1
 293 -105 l 1,4,-1
 365 -105 l 1,5,-1
 365 40 l 1,6,7
 320 -10 320 -10 244 -10 c 0,8,9
 144 -10 144 -10 89.5 63.5 c 128,-1,10
 35 137 35 137 35 250.5 c 128,-1,11
 35 364 35 364 102 437 c 128,-1,12
 169 510 169 510 296 510 c 0,13,14
 390 510 390 510 495 480 c 1,15,-1
 495 -105 l 1,0,-1
190 151 m 128,-1,17
 215 110 215 110 261 110 c 128,-1,18
 307 110 307 110 336 157 c 128,-1,19
 365 204 365 204 365 270 c 2,20,-1
 365 378 l 1,21,22
 338 390 338 390 304 390 c 0,23,24
 235 390 235 390 200 352 c 128,-1,25
 165 314 165 314 165 253 c 128,-1,16
 165 192 165 192 190 151 c 128,-1,17
EndSplineSet
EndChar

StartChar: r
Encoding: 114 114 85
Width: 451
GlyphClass: 2
Flags: W
LayerCount: 2
Fore
SplineSet
227 110 m 1,0,-1
 299 110 l 1,1,-1
 299 0 l 1,2,-1
 20 0 l 1,3,-1
 20 110 l 1,4,-1
 97 110 l 1,5,-1
 97 390 l 1,6,-1
 20 390 l 1,7,-1
 20 500 l 1,8,-1
 208 500 l 1,9,-1
 220 447 l 1,10,11
 313 510 313 510 382 510 c 1,12,-1
 453 495 l 1,13,-1
 415 368 l 1,14,-1
 370 380 l 1,15,16
 302 380 302 380 227 338 c 1,17,-1
 227 110 l 1,0,-1
EndSplineSet
EndChar

StartChar: s
Encoding: 115 115 86
Width: 469
GlyphClass: 2
Flags: W
LayerCount: 2
Fore
SplineSet
40 174 m 1,0,-1
 155 174 l 1,1,-1
 155 116 l 1,2,3
 183 111 183 111 221 111 c 0,4,5
 299 111 299 111 299 137 c 0,6,7
 299 147 299 147 252 175 c 2,8,-1
 132 247 l 2,9,10
 88 274 88 274 67 304 c 128,-1,11
 46 334 46 334 46 379 c 0,12,13
 46 441 46 441 99 475.5 c 128,-1,14
 152 510 152 510 243 510 c 128,-1,15
 334 510 334 510 416 469 c 1,16,-1
 416 320 l 1,17,-1
 301 320 l 1,18,-1
 301 382 l 1,19,20
 272 390 272 390 236 390 c 0,21,22
 176 390 176 390 176 368 c 0,23,24
 176 365 176 365 177.5 363.5 c 128,-1,25
 179 362 179 362 180 360.5 c 128,-1,26
 181 359 181 359 183 357.5 c 128,-1,27
 185 356 185 356 187 355 c 128,-1,28
 189 354 189 354 192 352 c 128,-1,29
 195 350 195 350 197.5 348.5 c 128,-1,30
 200 347 200 347 204.5 344 c 128,-1,31
 209 341 209 341 213 339 c 2,32,-1
 348 257 l 2,33,34
 429 207 429 207 429 137.5 c 128,-1,35
 429 68 429 68 372 29.5 c 128,-1,36
 315 -9 315 -9 212 -9 c 128,-1,37
 109 -9 109 -9 40 29 c 1,38,-1
 40 174 l 1,0,-1
EndSplineSet
EndChar

StartChar: t
Encoding: 116 116 87
Width: 401
GlyphClass: 2
Flags: W
LayerCount: 2
Fore
SplineSet
20 390 m 1,0,-1
 20 490 l 1,1,-1
 107 500 l 1,2,3
 140 583 140 583 150 632 c 1,4,-1
 237 632 l 1,5,-1
 237 500 l 1,6,-1
 356 500 l 1,7,-1
 356 390 l 1,8,-1
 237 390 l 1,9,-1
 237 143 l 2,10,11
 237 126 237 126 242.5 117.5 c 128,-1,12
 248 109 248 109 267 109 c 128,-1,13
 286 109 286 109 333 128 c 1,14,-1
 381 26 l 1,15,16
 317 -10 317 -10 244.5 -10 c 128,-1,17
 172 -10 172 -10 139.5 28 c 128,-1,18
 107 66 107 66 107 127 c 2,19,-1
 107 390 l 1,20,-1
 20 390 l 1,0,-1
EndSplineSet
EndChar

StartChar: u
Encoding: 117 117 88
Width: 630
GlyphClass: 2
Flags: W
LayerCount: 2
Fore
SplineSet
253 -11 m 0,0,1
 159 -11 159 -11 123 44.5 c 128,-1,2
 87 100 87 100 87 197 c 2,3,-1
 87 395 l 1,4,-1
 10 395 l 1,5,-1
 10 500 l 1,6,-1
 217 500 l 1,7,-1
 217 197 l 2,8,9
 217 153 217 153 229.5 131 c 128,-1,10
 242 109 242 109 284 109 c 128,-1,11
 326 109 326 109 408 170 c 1,12,-1
 408 390 l 1,13,-1
 346 390 l 1,14,-1
 346 500 l 1,15,-1
 538 500 l 1,16,-1
 538 105 l 1,17,-1
 620 105 l 1,18,-1
 620 18 l 1,19,20
 577 -5 577 -5 507.5 -5 c 128,-1,21
 438 -5 438 -5 418 46 c 1,22,23
 326 -11 326 -11 253 -11 c 0,0,1
EndSplineSet
EndChar

StartChar: v
Encoding: 118 118 89
Width: 576
GlyphClass: 2
Flags: W
LayerCount: 2
Fore
SplineSet
10 390 m 1,0,-1
 10 500 l 1,1,-1
 247 500 l 1,2,-1
 247 390 l 1,3,-1
 214 390 l 1,4,-1
 288 173 l 1,5,-1
 362 390 l 1,6,-1
 329 390 l 1,7,-1
 329 500 l 1,8,-1
 566 500 l 1,9,-1
 566 390 l 1,10,-1
 504 390 l 1,11,-1
 360 0 l 1,12,-1
 216 0 l 1,13,-1
 72 390 l 1,14,-1
 10 390 l 1,0,-1
EndSplineSet
EndChar

StartChar: w
Encoding: 119 119 90
Width: 762
GlyphClass: 2
Flags: W
LayerCount: 2
Fore
SplineSet
772 500 m 1,0,-1
 772 390 l 1,1,-1
 715 390 l 1,2,-1
 614 0 l 1,3,-1
 451 0 l 1,4,-1
 381 262 l 1,5,-1
 311 0 l 1,6,-1
 148 0 l 1,7,-1
 46 390 l 1,8,-1
 -10 390 l 1,9,-1
 -10 500 l 1,10,-1
 202 500 l 1,11,-1
 202 390 l 1,12,-1
 177 390 l 1,13,-1
 230 143 l 1,14,-1
 322 500 l 1,15,-1
 440 500 l 1,16,-1
 527 144 l 1,17,-1
 584 390 l 1,18,-1
 560 390 l 1,19,-1
 560 500 l 1,20,-1
 772 500 l 1,0,-1
EndSplineSet
EndChar

StartChar: x
Encoding: 120 120 91
Width: 512
GlyphClass: 2
Flags: W
LayerCount: 2
Fore
SplineSet
517 110 m 1,0,-1
 517 0 l 1,1,-1
 289 0 l 1,2,-1
 289 110 l 1,3,-1
 315 110 l 1,4,-1
 256 172 l 1,5,-1
 197 110 l 1,6,-1
 223 110 l 1,7,-1
 223 0 l 1,8,-1
 -5 0 l 1,9,-1
 -5 110 l 1,10,-1
 44 110 l 1,11,-1
 178 255 l 1,12,-1
 51 390 l 1,13,-1
 0 390 l 1,14,-1
 0 500 l 1,15,-1
 209 500 l 1,16,-1
 209 390 l 1,17,-1
 256 339 l 1,18,-1
 303 390 l 1,19,-1
 303 500 l 1,20,-1
 512 500 l 1,21,-1
 512 390 l 1,22,-1
 461 390 l 1,23,-1
 334 255 l 1,24,-1
 468 110 l 1,25,-1
 517 110 l 1,0,-1
EndSplineSet
EndChar

StartChar: y
Encoding: 121 121 92
Width: 559
GlyphClass: 2
Flags: W
LayerCount: 2
Fore
SplineSet
248 390 m 1,0,-1
 221 390 l 1,1,-1
 295 167 l 1,2,-1
 360 390 l 1,3,-1
 324 390 l 1,4,-1
 324 500 l 1,5,-1
 554 500 l 1,6,-1
 554 390 l 1,7,-1
 492 390 l 1,8,-1
 377 0 l 1,9,10
 313 -226 313 -226 135 -226 c 0,11,12
 81 -226 81 -226 20 -208 c 1,13,-1
 55 -82 l 1,14,15
 100 -95 100 -95 135 -95 c 0,16,17
 197 -95 197 -95 235 -15 c 1,18,-1
 71 390 l 1,19,-1
 10 390 l 1,20,-1
 10 500 l 1,21,-1
 248 500 l 1,22,-1
 248 390 l 1,0,-1
EndSplineSet
EndChar

StartChar: z
Encoding: 122 122 93
Width: 484
GlyphClass: 2
Flags: W
LayerCount: 2
Fore
SplineSet
450 189 m 1,0,-1
 450 0 l 1,1,-1
 23 0 l 1,2,-1
 23 120 l 1,3,-1
 282 380 l 1,4,-1
 165 380 l 1,5,-1
 165 322 l 1,6,-1
 35 322 l 1,7,-1
 35 500 l 1,8,-1
 457 500 l 1,9,-1
 457 380 l 1,10,-1
 200 120 l 1,11,-1
 320 120 l 1,12,-1
 320 189 l 1,13,-1
 450 189 l 1,0,-1
EndSplineSet
EndChar

StartChar: braceleft
Encoding: 123 123 94
Width: 315
GlyphClass: 2
Flags: W
LayerCount: 2
Fore
SplineSet
93 -40 m 2,0,-1
 93 215 l 2,1,2
 93 232 93 232 89 245 c 128,-1,3
 85 258 85 258 65.5 272.5 c 128,-1,4
 46 287 46 287 12 293 c 1,5,-1
 12 382 l 1,6,7
 93 398 93 398 93 475 c 2,8,-1
 93 635 l 2,9,10
 93 719 93 719 131 757 c 128,-1,11
 169 795 169 795 253 795 c 2,12,-1
 301 795 l 1,13,-1
 301 685 l 1,14,-1
 263 685 l 2,15,16
 213 685 213 685 213 635 c 2,17,-1
 213 500 l 2,18,19
 213 359 213 359 147 340 c 1,20,21
 213 322 213 322 213 185 c 2,22,-1
 213 -30 l 2,23,24
 213 -90 213 -90 263 -90 c 2,25,-1
 301 -90 l 1,26,-1
 301 -200 l 1,27,-1
 253 -200 l 2,28,29
 168 -200 168 -200 130.5 -162.5 c 128,-1,30
 93 -125 93 -125 93 -40 c 2,0,-1
EndSplineSet
EndChar

StartChar: bar
Encoding: 124 124 95
Width: 270
GlyphClass: 2
Flags: W
LayerCount: 2
Fore
SplineSet
190 750 m 1,0,-1
 190 -160 l 1,1,-1
 80 -160 l 1,2,-1
 80 750 l 1,3,-1
 190 750 l 1,0,-1
EndSplineSet
EndChar

StartChar: braceright
Encoding: 125 125 96
Width: 315
GlyphClass: 2
Flags: W
LayerCount: 2
Fore
SplineSet
220 215 m 2,0,-1
 220 -40 l 2,1,2
 220 -125 220 -125 182.5 -162.5 c 128,-1,3
 145 -200 145 -200 60 -200 c 2,4,-1
 12 -200 l 1,5,-1
 12 -90 l 1,6,-1
 50 -90 l 2,7,8
 100 -90 100 -90 100 -30 c 2,9,-1
 100 185 l 2,10,11
 100 322 100 322 166 340 c 1,12,13
 100 359 100 359 100 500 c 2,14,-1
 100 635 l 2,15,16
 100 685 100 685 50 685 c 2,17,-1
 12 685 l 1,18,-1
 12 795 l 1,19,-1
 60 795 l 2,20,21
 144 795 144 795 182 757 c 128,-1,22
 220 719 220 719 220 635 c 2,23,-1
 220 475 l 2,24,25
 220 398 220 398 301 382 c 1,26,-1
 301 293 l 1,27,28
 267 287 267 287 247.5 272.5 c 128,-1,29
 228 258 228 258 224 245 c 128,-1,30
 220 232 220 232 220 215 c 2,0,-1
EndSplineSet
EndChar

StartChar: asciitilde
Encoding: 126 126 97
Width: 528
GlyphClass: 2
Flags: W
LayerCount: 2
Fore
SplineSet
188 363 m 0,0,1
 224 363 224 363 253.5 354.5 c 128,-1,2
 283 346 283 346 310 337.5 c 128,-1,3
 337 329 337 329 348 326 c 1,4,-1
 434 368 l 1,5,-1
 498 318 l 1,6,7
 444 200 444 200 351 200 c 0,8,9
 307 200 307 200 252 218 c 128,-1,10
 197 236 197 236 190 238 c 1,11,-1
 94 196 l 1,12,-1
 30 246 l 1,13,14
 88 363 88 363 188 363 c 0,0,1
EndSplineSet
EndChar

StartChar: exclamdown
Encoding: 161 161 98
Width: 360
GlyphClass: 2
Flags: W
LayerCount: 2
Fore
SplineSet
128 299 m 1,0,-1
 238 299 l 1,1,-1
 258 -301 l 1,2,-1
 108 -301 l 1,3,-1
 128 299 l 1,0,-1
130.5 384.5 m 128,-1,5
 109 406 109 406 109 436.5 c 128,-1,6
 109 467 109 467 130.5 488.5 c 128,-1,7
 152 510 152 510 182.5 510 c 128,-1,8
 213 510 213 510 234.5 488.5 c 128,-1,9
 256 467 256 467 256 436.5 c 128,-1,10
 256 406 256 406 234.5 384.5 c 128,-1,11
 213 363 213 363 182.5 363 c 128,-1,4
 152 363 152 363 130.5 384.5 c 128,-1,5
EndSplineSet
EndChar

StartChar: cent
Encoding: 162 162 99
Width: 495
GlyphClass: 2
Flags: W
LayerCount: 2
Fore
SplineSet
335 582 m 1,0,-1
 335 507 l 1,1,2
 399 498 399 498 456 469 c 1,3,-1
 456 305 l 1,4,-1
 341 305 l 1,5,-1
 341 382 l 1,6,7
 314 390 314 390 280 390 c 0,8,9
 226 390 226 390 195.5 351 c 128,-1,10
 165 312 165 312 165 250 c 128,-1,11
 165 188 165 188 195.5 149 c 128,-1,12
 226 110 226 110 272.5 110 c 128,-1,13
 319 110 319 110 350.5 119 c 128,-1,14
 382 128 382 128 394.5 135.5 c 128,-1,15
 407 143 407 143 428 158 c 1,16,-1
 480 57 l 1,17,18
 421 6 421 6 330 -6 c 1,19,-1
 330 -82 l 1,20,-1
 215 -82 l 1,21,-1
 215 -3 l 1,22,23
 129 17 129 17 82 86 c 128,-1,24
 35 155 35 155 35 251 c 128,-1,25
 35 347 35 347 83.5 416 c 128,-1,26
 132 485 132 485 220 504 c 1,27,-1
 220 582 l 1,28,-1
 335 582 l 1,0,-1
EndSplineSet
EndChar

StartChar: sterling
Encoding: 163 163 100
Width: 551
GlyphClass: 2
Flags: W
LayerCount: 2
Fore
SplineSet
128 393 m 1,0,-1
 128 486 l 2,1,2
 128 584 128 584 187.5 640.5 c 128,-1,3
 247 697 247 697 346.5 697 c 128,-1,4
 446 697 446 697 515 656 c 1,5,-1
 515 477 l 1,6,-1
 400 477 l 1,7,-1
 400 567 l 1,8,9
 379 577 379 577 340.5 577 c 128,-1,10
 302 577 302 577 280 553.5 c 128,-1,11
 258 530 258 530 258 491 c 2,12,-1
 258 393 l 1,13,-1
 357 393 l 1,14,-1
 357 296 l 1,15,-1
 258 296 l 1,16,-1
 258 261 l 2,17,18
 258 221 258 221 239.5 179 c 128,-1,19
 221 137 221 137 194 120 c 1,20,-1
 525 120 l 1,21,-1
 525 0 l 1,22,-1
 36 0 l 1,23,-1
 36 120 l 1,24,25
 78 120 78 120 103 166.5 c 128,-1,26
 128 213 128 213 128 259 c 2,27,-1
 128 296 l 1,28,-1
 56 296 l 1,29,-1
 56 393 l 1,30,-1
 128 393 l 1,0,-1
EndSplineSet
EndChar

StartChar: currency
Encoding: 164 164 101
Width: 561
GlyphClass: 2
Flags: W
LayerCount: 2
Fore
SplineSet
81 186 m 1,0,1
 64 234 64 234 64 282.5 c 128,-1,2
 64 331 64 331 81 371 c 1,3,-1
 8 418 l 1,4,-1
 75 509 l 1,5,-1
 140 449 l 1,6,7
 195 495 195 495 279 495 c 128,-1,8
 363 495 363 495 422 449 c 1,9,-1
 488 509 l 1,10,-1
 555 418 l 1,11,-1
 481 370 l 1,12,13
 498 330 498 330 498 281.5 c 128,-1,14
 498 233 498 233 481 187 c 1,15,-1
 555 141 l 1,16,-1
 489 50 l 1,17,-1
 426 105 l 1,18,19
 370 55 370 55 281 55 c 128,-1,20
 192 55 192 55 136 105 c 1,21,-1
 75 49 l 1,22,-1
 8 141 l 1,23,-1
 81 186 l 1,0,1
206.5 358.5 m 128,-1,25
 179 327 179 327 179 277.5 c 128,-1,26
 179 228 179 228 206.5 194 c 128,-1,27
 234 160 234 160 281 160 c 128,-1,28
 328 160 328 160 355.5 194 c 128,-1,29
 383 228 383 228 383 277.5 c 128,-1,30
 383 327 383 327 355.5 358.5 c 128,-1,31
 328 390 328 390 281 390 c 128,-1,24
 234 390 234 390 206.5 358.5 c 128,-1,25
EndSplineSet
EndChar

StartChar: yen
Encoding: 165 165 102
Width: 849
GlyphClass: 2
Flags: W
LayerCount: 2
Fore
SplineSet
307 335.5 m 128,-1,1
 266 282 266 282 176 282 c 128,-1,2
 86 282 86 282 43 333 c 128,-1,3
 0 384 0 384 0 456 c 0,4,5
 0 570 0 570 103.5 635 c 128,-1,6
 207 700 207 700 434 700 c 2,7,-1
 526 700 l 1,8,-1
 526 580 l 1,9,-1
 486 580 l 1,10,-1
 553 432 l 1,11,-1
 569 432 l 1,12,-1
 636 580 l 1,13,-1
 596 580 l 1,14,-1
 596 700 l 1,15,-1
 848 700 l 1,16,-1
 848 580 l 1,17,-1
 778 580 l 1,18,-1
 705 432 l 1,19,-1
 746 432 l 1,20,-1
 746 330 l 1,21,-1
 654 330 l 1,22,-1
 631 283 l 1,23,-1
 746 283 l 1,24,-1
 746 181 l 1,25,-1
 626 181 l 1,26,-1
 626 120 l 1,27,-1
 723 120 l 1,28,-1
 723 0 l 1,29,-1
 399 0 l 1,30,-1
 399 120 l 1,31,-1
 496 120 l 1,32,-1
 496 181 l 1,33,-1
 391 181 l 1,34,-1
 391 283 l 1,35,-1
 491 283 l 1,36,-1
 467 330 l 1,37,-1
 391 330 l 1,38,-1
 391 432 l 1,39,-1
 417 432 l 1,40,-1
 345 578 l 1,41,42
 223 571 223 571 174 543 c 128,-1,43
 125 515 125 515 125 458.5 c 128,-1,44
 125 402 125 402 176 402 c 0,45,46
 223 402 223 402 223 466 c 1,47,-1
 348 466 l 1,48,0
 348 389 348 389 307 335.5 c 128,-1,1
EndSplineSet
EndChar

StartChar: brokenbar
Encoding: 166 166 103
Width: 285
GlyphClass: 2
Flags: W
LayerCount: 2
Fore
SplineSet
205 240 m 1,0,-1
 205 -160 l 1,1,-1
 80 -160 l 1,2,-1
 80 240 l 1,3,-1
 205 240 l 1,0,-1
205 750 m 1,4,-1
 205 350 l 1,5,-1
 80 350 l 1,6,-1
 80 750 l 1,7,-1
 205 750 l 1,4,-1
EndSplineSet
EndChar

StartChar: section
Encoding: 167 167 104
Width: 465
GlyphClass: 2
Flags: W
LayerCount: 2
Fore
SplineSet
52 518 m 0,0,1
 52 595 52 595 110 638 c 128,-1,2
 168 681 168 681 252.5 681 c 128,-1,3
 337 681 337 681 426 655 c 1,4,-1
 426 490 l 1,5,-1
 326 490 l 1,6,-1
 326 559 l 1,7,8
 279 566 279 566 252 566 c 128,-1,9
 225 566 225 566 203 555.5 c 128,-1,10
 181 545 181 545 181 520 c 128,-1,11
 181 495 181 495 221 476 c 2,12,-1
 321 427 l 2,13,14
 379 399 379 399 409 364.5 c 128,-1,15
 439 330 439 330 439 278 c 0,16,17
 439 205 439 205 376 143 c 1,18,19
 423 97 423 97 423 39 c 0,20,21
 423 -38 423 -38 365 -81 c 128,-1,22
 307 -124 307 -124 222.5 -124 c 128,-1,23
 138 -124 138 -124 49 -98 c 1,24,-1
 49 67 l 1,25,-1
 149 67 l 1,26,-1
 149 -2 l 1,27,28
 196 -9 196 -9 223 -9 c 128,-1,29
 250 -9 250 -9 272 1.5 c 128,-1,30
 294 12 294 12 294 37 c 128,-1,31
 294 62 294 62 254 81 c 2,32,-1
 154 130 l 2,33,34
 96 158 96 158 66 192.5 c 128,-1,35
 36 227 36 227 36 279 c 0,36,37
 36 352 36 352 99 414 c 1,38,39
 52 458 52 458 52 518 c 0,0,1
280 200 m 1,40,41
 314 234 314 234 314 259 c 128,-1,42
 314 284 314 284 302 296 c 128,-1,43
 290 308 290 308 259 324 c 2,44,-1
 194 356 l 1,45,46
 161 322 161 322 161 297.5 c 128,-1,47
 161 273 161 273 173 261 c 128,-1,48
 185 249 185 249 216 233 c 2,49,-1
 280 200 l 1,40,41
EndSplineSet
EndChar

StartChar: dieresis
Encoding: 168 168 105
Width: 548
GlyphClass: 2
Flags: W
LayerCount: 2
Fore
SplineSet
114.5 818.5 m 128,-1,1
 96 839 96 839 96 870 c 128,-1,2
 96 901 96 901 116.5 923 c 128,-1,3
 137 945 137 945 166.5 945 c 128,-1,4
 196 945 196 945 214.5 924 c 128,-1,5
 233 903 233 903 233 872.5 c 128,-1,6
 233 842 233 842 212.5 820 c 128,-1,7
 192 798 192 798 162.5 798 c 128,-1,0
 133 798 133 798 114.5 818.5 c 128,-1,1
337.5 818.5 m 128,-1,9
 319 839 319 839 319 870 c 128,-1,10
 319 901 319 901 339.5 923 c 128,-1,11
 360 945 360 945 389.5 945 c 128,-1,12
 419 945 419 945 437.5 924 c 128,-1,13
 456 903 456 903 456 872.5 c 128,-1,14
 456 842 456 842 435.5 820 c 128,-1,15
 415 798 415 798 385.5 798 c 128,-1,8
 356 798 356 798 337.5 818.5 c 128,-1,9
EndSplineSet
EndChar

StartChar: copyright
Encoding: 169 169 106
Width: 835
GlyphClass: 2
Flags: W
LayerCount: 2
Fore
SplineSet
129.5 60.5 m 128,-1,1
 24 176 24 176 24 347.5 c 128,-1,2
 24 519 24 519 129 630.5 c 128,-1,3
 234 742 234 742 417.5 742 c 128,-1,4
 601 742 601 742 706 630.5 c 128,-1,5
 811 519 811 519 811 348 c 0,6,7
 811 236 811 236 766 146 c 128,-1,8
 721 56 721 56 630.5 0.5 c 128,-1,9
 540 -55 540 -55 418 -55 c 0,10,0
 235 -55 235 -55 129.5 60.5 c 128,-1,1
207.5 561.5 m 128,-1,12
 131 478 131 478 131 347.5 c 128,-1,13
 131 217 131 217 208 129 c 128,-1,14
 285 41 285 41 417.5 41 c 128,-1,15
 550 41 550 41 627 129 c 128,-1,16
 704 217 704 217 704 347.5 c 128,-1,17
 704 478 704 478 627.5 561.5 c 128,-1,18
 551 645 551 645 417.5 645 c 128,-1,11
 284 645 284 645 207.5 561.5 c 128,-1,12
426 556 m 0,19,20
 495 556 495 556 543 512 c 128,-1,21
 591 468 591 468 591 397 c 1,22,-1
 474 396 l 1,23,24
 474 420 474 420 461.5 432 c 128,-1,25
 449 444 449 444 431 444 c 0,26,27
 393 444 393 444 368.5 415 c 128,-1,28
 344 386 344 386 344 342.5 c 128,-1,29
 344 299 344 299 368.5 270 c 128,-1,30
 393 241 393 241 433 241 c 0,31,32
 456 241 456 241 482.5 251 c 128,-1,33
 509 261 509 261 525 280 c 1,34,-1
 600 208 l 1,35,36
 538 130 538 130 437 130 c 128,-1,37
 336 130 336 130 278 189.5 c 128,-1,38
 220 249 220 249 220 341.5 c 128,-1,39
 220 434 220 434 278 495 c 128,-1,40
 336 556 336 556 426 556 c 0,19,20
EndSplineSet
EndChar

StartChar: ordfeminine
Encoding: 170 170 107
Width: 392
GlyphClass: 2
Flags: W
LayerCount: 2
Fore
SplineSet
219 515 m 1,0,1
 187 475 187 475 146.5 475 c 128,-1,2
 106 475 106 475 83 495.5 c 128,-1,3
 60 516 60 516 60 553.5 c 128,-1,4
 60 591 60 591 89.5 617.5 c 128,-1,5
 119 644 119 644 177 644 c 2,6,-1
 219 644 l 1,7,-1
 219 662 l 2,8,9
 219 687 219 687 189 687 c 0,10,11
 180 687 180 687 138 680.5 c 128,-1,12
 96 674 96 674 84 670 c 1,13,-1
 71 730 l 1,14,15
 124 751 124 751 181 751 c 128,-1,16
 238 751 238 751 263.5 727 c 128,-1,17
 289 703 289 703 289 662 c 2,18,-1
 289 536 l 1,19,-1
 332 536 l 1,20,-1
 332 490 l 1,21,22
 309 477 309 477 275 477 c 0,23,24
 219 477 219 477 219 515 c 1,0,1
151 539 m 0,25,26
 188 539 188 539 219 584 c 1,27,-1
 177 584 l 2,28,29
 130 584 130 584 130 554 c 0,30,31
 130 539 130 539 151 539 c 0,25,26
EndSplineSet
EndChar

StartChar: guillemotleft
Encoding: 171 171 108
Width: 566
GlyphClass: 2
Flags: W
LayerCount: 2
Fore
SplineSet
240 5 m 1,0,-1
 58 176 l 1,1,-1
 58 230 l 1,2,-1
 240 401 l 1,3,-1
 294 352 l 1,4,-1
 174 203 l 1,5,-1
 294 54 l 1,6,-1
 240 5 l 1,0,-1
446 5 m 1,7,-1
 264 176 l 1,8,-1
 264 230 l 1,9,-1
 446 401 l 1,10,-1
 500 352 l 1,11,-1
 380 203 l 1,12,-1
 500 54 l 1,13,-1
 446 5 l 1,7,-1
EndSplineSet
EndChar

StartChar: logicalnot
Encoding: 172 172 109
Width: 430
GlyphClass: 2
Flags: W
LayerCount: 2
Fore
SplineSet
60 211 m 1,0,-1
 60 318 l 1,1,-1
 370 318 l 1,2,-1
 370 120 l 1,3,-1
 268 120 l 1,4,-1
 268 211 l 1,5,-1
 60 211 l 1,0,-1
EndSplineSet
EndChar

StartChar: uni00AD
Encoding: 173 173 110
Width: 400
GlyphClass: 2
Flags: W
LayerCount: 2
Fore
SplineSet
340 236 m 1,0,-1
 60 236 l 1,1,-1
 60 338 l 1,2,-1
 340 338 l 1,3,-1
 340 236 l 1,0,-1
EndSplineSet
EndChar

StartChar: registered
Encoding: 174 174 111
Width: 701
GlyphClass: 2
Flags: W
LayerCount: 2
Fore
SplineSet
357 318 m 1,0,-1
 357 247 l 1,1,-1
 220 247 l 1,2,-1
 220 318 l 1,3,-1
 260 318 l 1,4,-1
 260 517 l 1,5,-1
 220 517 l 1,6,-1
 220 589 l 1,7,-1
 316 589 l 2,8,9
 402 589 402 589 444.5 557.5 c 128,-1,10
 487 526 487 526 487 473 c 0,11,12
 487 404 487 404 438 377 c 1,13,-1
 479 318 l 1,14,-1
 502 318 l 1,15,-1
 502 247 l 1,16,-1
 384 247 l 1,17,-1
 384 318 l 1,18,-1
 393 318 l 1,19,-1
 361 364 l 1,20,21
 342 364 342 364 335 366 c 1,22,-1
 335 318 l 1,23,-1
 357 318 l 1,0,-1
412 473 m 0,24,25
 412 511 412 511 335 517 c 1,26,-1
 335 439 l 1,27,28
 365 436 365 436 376 436 c 128,-1,29
 387 436 387 436 399.5 446.5 c 128,-1,30
 412 457 412 457 412 473 c 0,24,25
115 177 m 128,-1,32
 28 273 28 273 28 415.5 c 128,-1,33
 28 558 28 558 115 650.5 c 128,-1,34
 202 743 202 743 354.5 743 c 128,-1,35
 507 743 507 743 594 650.5 c 128,-1,36
 681 558 681 558 681 415.5 c 128,-1,37
 681 273 681 273 593.5 177 c 128,-1,38
 506 81 506 81 354 81 c 128,-1,31
 202 81 202 81 115 177 c 128,-1,32
180.5 587 m 128,-1,40
 117 520 117 520 117 416.5 c 128,-1,41
 117 313 117 313 181 241 c 128,-1,42
 245 169 245 169 354.5 169 c 128,-1,43
 464 169 464 169 527 240.5 c 128,-1,44
 590 312 590 312 590 416 c 128,-1,45
 590 520 590 520 527 587 c 128,-1,46
 464 654 464 654 354 654 c 128,-1,39
 244 654 244 654 180.5 587 c 128,-1,40
EndSplineSet
EndChar

StartChar: macron
Encoding: 175 175 112
Width: 563
GlyphClass: 2
Flags: W
LayerCount: 2
Fore
SplineSet
84 591 m 1,0,-1
 84 715 l 1,1,-1
 473 715 l 1,2,-1
 473 591 l 1,3,-1
 84 591 l 1,0,-1
EndSplineSet
EndChar

StartChar: degree
Encoding: 176 176 113
Width: 404
GlyphClass: 2
Flags: W
LayerCount: 2
Fore
SplineSet
156 643 m 128,-1,1
 156 593 156 593 201.5 593 c 128,-1,2
 247 593 247 593 247 643 c 128,-1,3
 247 693 247 693 201.5 693 c 128,-1,0
 156 693 156 693 156 643 c 128,-1,1
60 643 m 128,-1,5
 60 708 60 708 96 746 c 128,-1,6
 132 784 132 784 202 784 c 128,-1,7
 272 784 272 784 308 746 c 128,-1,8
 344 708 344 708 344 643 c 128,-1,9
 344 578 344 578 308 540 c 128,-1,10
 272 502 272 502 202 502 c 128,-1,11
 132 502 132 502 96 540 c 128,-1,4
 60 578 60 578 60 643 c 128,-1,5
EndSplineSet
EndChar

StartChar: plusminus
Encoding: 177 177 114
Width: 550
GlyphClass: 2
Flags: W
LayerCount: 2
Fore
SplineSet
215 351 m 1,0,-1
 60 351 l 1,1,-1
 60 468 l 1,2,-1
 215 468 l 1,3,-1
 215 624 l 1,4,-1
 335 624 l 1,5,-1
 335 468 l 1,6,-1
 490 468 l 1,7,-1
 490 351 l 1,8,-1
 335 351 l 1,9,-1
 335 194 l 1,10,-1
 215 194 l 1,11,-1
 215 351 l 1,0,-1
490 30 m 1,12,-1
 60 30 l 1,13,-1
 60 147 l 1,14,-1
 490 147 l 1,15,-1
 490 30 l 1,12,-1
EndSplineSet
EndChar

StartChar: twosuperior
Encoding: 178 178 115
Width: 352
GlyphClass: 2
Flags: W
LayerCount: 2
Fore
SplineSet
60 452 m 1,0,-1
 60 522 l 1,1,2
 107 545 107 545 149 578 c 128,-1,3
 191 611 191 611 191 645 c 0,4,5
 191 668 191 668 161 668 c 0,6,7
 146 668 146 668 128 664 c 1,8,-1
 128 629 l 1,9,-1
 62 629 l 1,10,-1
 62 730 l 1,11,12
 105 750 105 750 160 750 c 0,13,14
 277 750 277 750 277 661 c 0,15,16
 277 576 277 576 169 498 c 1,17,-1
 172 496 l 1,18,-1
 260 546 l 1,19,-1
 292 546 l 1,20,-1
 281 452 l 1,21,-1
 60 452 l 1,0,-1
EndSplineSet
EndChar

StartChar: threesuperior
Encoding: 179 179 116
Width: 350
GlyphClass: 2
Flags: W
LayerCount: 2
Fore
SplineSet
71 742 m 1,0,1
 129 754 129 754 172.5 754 c 128,-1,2
 216 754 216 754 249.5 734.5 c 128,-1,3
 283 715 283 715 283 675 c 128,-1,4
 283 635 283 635 250 612 c 1,5,6
 290 590 290 590 290 544.5 c 128,-1,7
 290 499 290 499 254 475.5 c 128,-1,8
 218 452 218 452 164 452 c 128,-1,9
 110 452 110 452 60 477 c 1,10,-1
 87 548 l 1,11,12
 122 534 122 534 150.5 534 c 128,-1,13
 179 534 179 534 191.5 542 c 128,-1,14
 204 550 204 550 204 560 c 0,15,16
 204 583 204 583 163 583 c 2,17,-1
 127 583 l 1,18,-1
 127 635 l 1,19,-1
 144 635 l 2,20,21
 197 635 197 635 197 658 c 0,22,23
 197 672 197 672 161 672 c 128,-1,24
 125 672 125 672 90 665 c 1,25,-1
 71 742 l 1,0,1
EndSplineSet
EndChar

StartChar: acute
Encoding: 180 180 117
Width: 387
GlyphClass: 2
Flags: W
LayerCount: 2
Fore
SplineSet
256 918 m 1,0,-1
 128 760 l 1,1,-1
 44 810 l 1,2,-1
 145 993 l 1,3,-1
 256 918 l 1,0,-1
EndSplineSet
EndChar

StartChar: mu
Encoding: 181 181 118
AltUni2: 0003bc.ffffffff.0
Width: 630
GlyphClass: 2
Flags: W
LayerCount: 2
Fore
SplineSet
331 390 m 1,0,-1
 331 500 l 1,1,-1
 538 500 l 1,2,-1
 538 105 l 1,3,-1
 620 105 l 1,4,-1
 620 18 l 1,5,6
 577 -5 577 -5 508 -5 c 0,7,8
 419 -5 419 -5 409 46 c 1,9,10
 345 -11 345 -11 295 -11 c 128,-1,11
 245 -11 245 -11 217 22 c 1,12,-1
 217 -140 l 1,13,-1
 294 -140 l 1,14,-1
 294 -250 l 1,15,-1
 10 -250 l 1,16,-1
 10 -140 l 1,17,-1
 87 -140 l 1,18,-1
 87 390 l 1,19,-1
 10 390 l 1,20,-1
 10 500 l 1,21,-1
 217 500 l 1,22,-1
 217 226 l 2,23,24
 217 167 217 167 232 138 c 128,-1,25
 247 109 247 109 288 109 c 128,-1,26
 329 109 329 109 354 124 c 128,-1,27
 379 139 379 139 408 169 c 1,28,-1
 408 390 l 1,29,-1
 331 390 l 1,0,-1
EndSplineSet
EndChar

StartChar: paragraph
Encoding: 182 182 119
Width: 825
GlyphClass: 2
Flags: W
LayerCount: 2
Fore
SplineSet
318 245.5 m 128,-1,1
 277 192 277 192 187 192 c 128,-1,2
 97 192 97 192 54 243 c 128,-1,3
 11 294 11 294 11 366 c 0,4,5
 11 480 11 480 114.5 545 c 128,-1,6
 218 610 218 610 445 610 c 2,7,-1
 797 610 l 1,8,-1
 797 502 l 1,9,-1
 722 502 l 1,10,-1
 722 -220 l 1,11,-1
 607 -220 l 1,12,-1
 607 502 l 1,13,-1
 505 502 l 1,14,-1
 505 -220 l 1,15,-1
 390 -220 l 1,16,-1
 390 489 l 1,17,18
 248 485 248 485 192 456.5 c 128,-1,19
 136 428 136 428 136 370 c 128,-1,20
 136 312 136 312 187 312 c 0,21,22
 234 312 234 312 234 376 c 1,23,-1
 359 376 l 1,24,0
 359 299 359 299 318 245.5 c 128,-1,1
EndSplineSet
EndChar

StartChar: periodcentered
Encoding: 183 183 120
Width: 275
GlyphClass: 2
Flags: W
LayerCount: 2
Fore
SplineSet
91.5 248.5 m 128,-1,1
 70 270 70 270 70 300.5 c 128,-1,2
 70 331 70 331 91.5 352.5 c 128,-1,3
 113 374 113 374 143.5 374 c 128,-1,4
 174 374 174 374 195.5 352.5 c 128,-1,5
 217 331 217 331 217 300.5 c 128,-1,6
 217 270 217 270 195.5 248.5 c 128,-1,7
 174 227 174 227 143.5 227 c 128,-1,0
 113 227 113 227 91.5 248.5 c 128,-1,1
EndSplineSet
EndChar

StartChar: cedilla
Encoding: 184 184 121
Width: 469
GlyphClass: 2
Flags: W
LayerCount: 2
Fore
SplineSet
361 -129 m 0,0,1
 361 -194 361 -194 321.5 -226 c 128,-1,2
 282 -258 282 -258 222 -258 c 128,-1,3
 162 -258 162 -258 113 -236 c 1,4,-1
 147 -143 l 1,5,6
 166 -153 166 -153 209.5 -153 c 128,-1,7
 253 -153 253 -153 253 -125 c 0,8,9
 253 -94 253 -94 215 -94 c 0,10,11
 194 -94 194 -94 176 -102 c 1,12,-1
 155 -33 l 1,13,-1
 221 10 l 1,14,-1
 338 10 l 1,15,-1
 288 -20 l 1,16,17
 361 -39 361 -39 361 -129 c 0,0,1
EndSplineSet
EndChar

StartChar: onesuperior
Encoding: 185 185 122
Width: 316
GlyphClass: 2
Flags: W
LayerCount: 2
Fore
SplineSet
206 533 m 1,0,-1
 256 533 l 1,1,-1
 256 451 l 1,2,-1
 66 451 l 1,3,-1
 66 533 l 1,4,-1
 120 533 l 1,5,-1
 120 646 l 1,6,-1
 69 638 l 1,7,-1
 60 707 l 1,8,-1
 206 753 l 1,9,-1
 206 533 l 1,0,-1
EndSplineSet
EndChar

StartChar: ordmasculine
Encoding: 186 186 123
Width: 404
GlyphClass: 2
Flags: W
LayerCount: 2
Fore
SplineSet
163 588 m 128,-1,1
 163 519 163 519 202 519 c 128,-1,2
 241 519 241 519 241 588 c 128,-1,3
 241 657 241 657 202 657 c 128,-1,0
 163 657 163 657 163 588 c 128,-1,1
60 588 m 128,-1,5
 60 665 60 665 96 709.5 c 128,-1,6
 132 754 132 754 202 754 c 128,-1,7
 272 754 272 754 308 709.5 c 128,-1,8
 344 665 344 665 344 588 c 128,-1,9
 344 511 344 511 308 466.5 c 128,-1,10
 272 422 272 422 202 422 c 128,-1,11
 132 422 132 422 96 466.5 c 128,-1,4
 60 511 60 511 60 588 c 128,-1,5
EndSplineSet
EndChar

StartChar: guillemotright
Encoding: 187 187 124
Width: 566
GlyphClass: 2
Flags: W
LayerCount: 2
Fore
SplineSet
508 176 m 1,0,-1
 326 5 l 1,1,-1
 272 54 l 1,2,-1
 392 203 l 1,3,-1
 272 352 l 1,4,-1
 326 401 l 1,5,-1
 508 230 l 1,6,-1
 508 176 l 1,0,-1
302 176 m 1,7,-1
 120 5 l 1,8,-1
 66 54 l 1,9,-1
 186 203 l 1,10,-1
 66 352 l 1,11,-1
 120 401 l 1,12,-1
 302 230 l 1,13,-1
 302 176 l 1,7,-1
EndSplineSet
EndChar

StartChar: onequarter
Encoding: 188 188 125
Width: 374
GlyphClass: 2
Flags: W
LayerCount: 2
Fore
SplineSet
271 294 m 1,0,-1
 271 120 l 1,1,-1
 312 120 l 1,2,-1
 312 50 l 1,3,-1
 271 50 l 1,4,-1
 271 0 l 1,5,-1
 185 0 l 1,6,-1
 185 50 l 1,7,-1
 51 50 l 1,8,-1
 51 117 l 1,9,-1
 195 294 l 1,10,-1
 271 294 l 1,0,-1
92 408 m 1,11,-1
 321 408 l 1,12,-1
 321 339 l 1,13,-1
 92 339 l 1,14,-1
 92 408 l 1,11,-1
185 120 m 1,15,-1
 185 205 l 1,16,-1
 118 120 l 1,17,-1
 185 120 l 1,15,-1
251 533 m 1,18,-1
 301 533 l 1,19,-1
 301 451 l 1,20,-1
 111 451 l 1,21,-1
 111 533 l 1,22,-1
 165 533 l 1,23,-1
 165 646 l 1,24,-1
 114 638 l 1,25,-1
 105 707 l 1,26,-1
 251 753 l 1,27,-1
 251 533 l 1,18,-1
EndSplineSet
EndChar

StartChar: onehalf
Encoding: 189 189 126
Width: 356
GlyphClass: 2
Flags: W
LayerCount: 2
Fore
SplineSet
64 0 m 1,0,-1
 64 70 l 1,1,2
 111 93 111 93 153 126 c 128,-1,3
 195 159 195 159 195 193 c 0,4,5
 195 216 195 216 165 216 c 0,6,7
 150 216 150 216 132 212 c 1,8,-1
 132 177 l 1,9,-1
 66 177 l 1,10,-1
 66 278 l 1,11,12
 109 298 109 298 164 298 c 0,13,14
 281 298 281 298 281 209 c 0,15,16
 281 124 281 124 173 46 c 1,17,-1
 176 44 l 1,18,-1
 264 94 l 1,19,-1
 296 94 l 1,20,-1
 285 0 l 1,21,-1
 64 0 l 1,0,-1
224 533 m 1,22,-1
 274 533 l 1,23,-1
 274 451 l 1,24,-1
 84 451 l 1,25,-1
 84 533 l 1,26,-1
 138 533 l 1,27,-1
 138 646 l 1,28,-1
 87 638 l 1,29,-1
 78 707 l 1,30,-1
 224 753 l 1,31,-1
 224 533 l 1,22,-1
60 408 m 1,32,-1
 289 408 l 1,33,-1
 289 339 l 1,34,-1
 60 339 l 1,35,-1
 60 408 l 1,32,-1
EndSplineSet
EndChar

StartChar: threequarters
Encoding: 190 190 127
Width: 381
GlyphClass: 2
Flags: W
LayerCount: 2
Fore
SplineSet
280 294 m 1,0,-1
 280 120 l 1,1,-1
 321 120 l 1,2,-1
 321 50 l 1,3,-1
 280 50 l 1,4,-1
 280 0 l 1,5,-1
 194 0 l 1,6,-1
 194 50 l 1,7,-1
 60 50 l 1,8,-1
 60 117 l 1,9,-1
 204 294 l 1,10,-1
 280 294 l 1,0,-1
194 120 m 1,11,-1
 194 205 l 1,12,-1
 127 120 l 1,13,-1
 194 120 l 1,11,-1
94 742 m 1,14,15
 152 754 152 754 195.5 754 c 128,-1,16
 239 754 239 754 272.5 734.5 c 128,-1,17
 306 715 306 715 306 675 c 128,-1,18
 306 635 306 635 273 612 c 1,19,20
 313 590 313 590 313 544.5 c 128,-1,21
 313 499 313 499 277 475.5 c 128,-1,22
 241 452 241 452 187 452 c 128,-1,23
 133 452 133 452 83 477 c 1,24,-1
 110 548 l 1,25,26
 145 534 145 534 173.5 534 c 128,-1,27
 202 534 202 534 214.5 542 c 128,-1,28
 227 550 227 550 227 560 c 0,29,30
 227 583 227 583 186 583 c 2,31,-1
 150 583 l 1,32,-1
 150 635 l 1,33,-1
 167 635 l 2,34,35
 220 635 220 635 220 658 c 0,36,37
 220 672 220 672 184 672 c 128,-1,38
 148 672 148 672 113 665 c 1,39,-1
 94 742 l 1,14,15
81 408 m 1,40,-1
 310 408 l 1,41,-1
 310 339 l 1,42,-1
 81 339 l 1,43,-1
 81 408 l 1,40,-1
EndSplineSet
EndChar

StartChar: questiondown
Encoding: 191 191 128
Width: 580
GlyphClass: 2
Flags: W
LayerCount: 2
Fore
SplineSet
204 299 m 1,0,-1
 320 299 l 1,1,-1
 320 208 l 1,2,3
 406 171 406 171 454 123 c 128,-1,4
 502 75 502 75 502 -9 c 0,5,6
 502 -210 502 -210 253 -210 c 0,7,8
 132 -210 132 -210 55 -169 c 1,9,-1
 55 10 l 1,10,-1
 170 10 l 1,11,-1
 170 -78 l 1,12,13
 204 -90 204 -90 256 -90 c 0,14,15
 373 -90 373 -90 373 -8 c 0,16,17
 373 49 373 49 320 84 c 0,18,19
 277 112 277 112 204 137 c 1,20,-1
 204 299 l 1,0,-1
213.5 384.5 m 128,-1,22
 192 406 192 406 192 436.5 c 128,-1,23
 192 467 192 467 213.5 488.5 c 128,-1,24
 235 510 235 510 265.5 510 c 128,-1,25
 296 510 296 510 317.5 488.5 c 128,-1,26
 339 467 339 467 339 436.5 c 128,-1,27
 339 406 339 406 317.5 384.5 c 128,-1,28
 296 363 296 363 265.5 363 c 128,-1,21
 235 363 235 363 213.5 384.5 c 128,-1,22
EndSplineSet
EndChar

StartChar: Agrave
Encoding: 192 192 129
Width: 897
GlyphClass: 2
Flags: W
LayerCount: 2
Fore
SplineSet
579 760 m 1,0,-1
 451 918 l 1,1,-1
 562 993 l 1,2,-1
 663 810 l 1,3,-1
 579 760 l 1,0,-1
-2 333 m 128,-1,5
 -45 384 -45 384 -45 456 c 0,6,7
 -45 570 -45 570 69 635 c 128,-1,8
 183 700 183 700 434 700 c 2,9,-1
 708 700 l 1,10,-1
 708 580 l 1,11,-1
 649 580 l 1,12,-1
 831 120 l 1,13,-1
 897 120 l 1,14,-1
 897 0 l 1,15,-1
 640 0 l 1,16,-1
 640 120 l 1,17,-1
 699 120 l 1,18,-1
 678 176 l 1,19,-1
 416 176 l 1,20,-1
 395 120 l 1,21,-1
 455 120 l 1,22,-1
 455 0 l 1,23,-1
 198 0 l 1,24,-1
 198 120 l 1,25,-1
 263 120 l 1,26,-1
 444 580 l 1,27,-1
 434 580 l 2,28,29
 233 580 233 580 156.5 552 c 128,-1,30
 80 524 80 524 80 456 c 0,31,32
 80 402 80 402 131 402 c 0,33,34
 178 402 178 402 178 466 c 1,35,-1
 303 466 l 1,36,37
 303 388 303 388 262 335 c 128,-1,38
 221 282 221 282 131 282 c 128,-1,4
 41 282 41 282 -2 333 c 128,-1,5
457 286 m 1,39,-1
 636 286 l 1,40,-1
 547 524 l 1,41,-1
 457 286 l 1,39,-1
EndSplineSet
EndChar

StartChar: Aacute
Encoding: 193 193 130
Width: 897
GlyphClass: 2
Flags: W
LayerCount: 2
Fore
SplineSet
721 918 m 1,0,-1
 593 760 l 1,1,-1
 509 810 l 1,2,-1
 610 993 l 1,3,-1
 721 918 l 1,0,-1
-2 333 m 128,-1,5
 -45 384 -45 384 -45 456 c 0,6,7
 -45 570 -45 570 69 635 c 128,-1,8
 183 700 183 700 434 700 c 2,9,-1
 708 700 l 1,10,-1
 708 580 l 1,11,-1
 649 580 l 1,12,-1
 831 120 l 1,13,-1
 897 120 l 1,14,-1
 897 0 l 1,15,-1
 640 0 l 1,16,-1
 640 120 l 1,17,-1
 699 120 l 1,18,-1
 678 176 l 1,19,-1
 416 176 l 1,20,-1
 395 120 l 1,21,-1
 455 120 l 1,22,-1
 455 0 l 1,23,-1
 198 0 l 1,24,-1
 198 120 l 1,25,-1
 263 120 l 1,26,-1
 444 580 l 1,27,-1
 434 580 l 2,28,29
 233 580 233 580 156.5 552 c 128,-1,30
 80 524 80 524 80 456 c 0,31,32
 80 402 80 402 131 402 c 0,33,34
 178 402 178 402 178 466 c 1,35,-1
 303 466 l 1,36,37
 303 388 303 388 262 335 c 128,-1,38
 221 282 221 282 131 282 c 128,-1,4
 41 282 41 282 -2 333 c 128,-1,5
457 286 m 1,39,-1
 636 286 l 1,40,-1
 547 524 l 1,41,-1
 457 286 l 1,39,-1
EndSplineSet
EndChar

StartChar: Acircumflex
Encoding: 194 194 131
Width: 897
GlyphClass: 2
Flags: W
LayerCount: 2
Fore
SplineSet
390 800 m 1,0,-1
 520 947 l 1,1,-1
 602 947 l 1,2,-1
 732 800 l 1,3,-1
 670 750 l 1,4,-1
 561 840 l 1,5,-1
 452 750 l 1,6,-1
 390 800 l 1,0,-1
-2 333 m 128,-1,8
 -45 384 -45 384 -45 456 c 0,9,10
 -45 570 -45 570 69 635 c 128,-1,11
 183 700 183 700 434 700 c 2,12,-1
 708 700 l 1,13,-1
 708 580 l 1,14,-1
 649 580 l 1,15,-1
 831 120 l 1,16,-1
 897 120 l 1,17,-1
 897 0 l 1,18,-1
 640 0 l 1,19,-1
 640 120 l 1,20,-1
 699 120 l 1,21,-1
 678 176 l 1,22,-1
 416 176 l 1,23,-1
 395 120 l 1,24,-1
 455 120 l 1,25,-1
 455 0 l 1,26,-1
 198 0 l 1,27,-1
 198 120 l 1,28,-1
 263 120 l 1,29,-1
 444 580 l 1,30,-1
 434 580 l 2,31,32
 233 580 233 580 156.5 552 c 128,-1,33
 80 524 80 524 80 456 c 0,34,35
 80 402 80 402 131 402 c 0,36,37
 178 402 178 402 178 466 c 1,38,-1
 303 466 l 1,39,40
 303 388 303 388 262 335 c 128,-1,41
 221 282 221 282 131 282 c 128,-1,7
 41 282 41 282 -2 333 c 128,-1,8
457 286 m 1,42,-1
 636 286 l 1,43,-1
 547 524 l 1,44,-1
 457 286 l 1,42,-1
EndSplineSet
EndChar

StartChar: Atilde
Encoding: 195 195 132
Width: 897
GlyphClass: 2
Flags: W
LayerCount: 2
Fore
SplineSet
595 868 m 1,0,-1
 658 910 l 1,1,-1
 713 867 l 1,2,3
 695 819 695 819 665.5 790.5 c 128,-1,4
 636 762 636 762 601.5 762 c 128,-1,5
 567 762 567 762 478 799 c 1,6,-1
 415 757 l 1,7,-1
 360 800 l 1,8,9
 378 848 378 848 407.5 876.5 c 128,-1,10
 437 905 437 905 475 905 c 0,11,12
 491 905 491 905 500.5 902 c 128,-1,13
 510 899 510 899 515.5 897.5 c 128,-1,14
 521 896 521 896 532.5 892 c 128,-1,15
 544 888 544 888 550 886 c 0,16,17
 565 879 565 879 595 868 c 1,0,-1
-2 333 m 128,-1,19
 -45 384 -45 384 -45 456 c 0,20,21
 -45 570 -45 570 69 635 c 128,-1,22
 183 700 183 700 434 700 c 2,23,-1
 708 700 l 1,24,-1
 708 580 l 1,25,-1
 649 580 l 1,26,-1
 831 120 l 1,27,-1
 897 120 l 1,28,-1
 897 0 l 1,29,-1
 640 0 l 1,30,-1
 640 120 l 1,31,-1
 699 120 l 1,32,-1
 678 176 l 1,33,-1
 416 176 l 1,34,-1
 395 120 l 1,35,-1
 455 120 l 1,36,-1
 455 0 l 1,37,-1
 198 0 l 1,38,-1
 198 120 l 1,39,-1
 263 120 l 1,40,-1
 444 580 l 1,41,-1
 434 580 l 2,42,43
 233 580 233 580 156.5 552 c 128,-1,44
 80 524 80 524 80 456 c 0,45,46
 80 402 80 402 131 402 c 0,47,48
 178 402 178 402 178 466 c 1,49,-1
 303 466 l 1,50,51
 303 388 303 388 262 335 c 128,-1,52
 221 282 221 282 131 282 c 128,-1,18
 41 282 41 282 -2 333 c 128,-1,19
457 286 m 1,53,-1
 636 286 l 1,54,-1
 547 524 l 1,55,-1
 457 286 l 1,53,-1
EndSplineSet
EndChar

StartChar: Adieresis
Encoding: 196 196 133
Width: 897
GlyphClass: 2
Flags: W
LayerCount: 2
Fore
SplineSet
391.5 818.5 m 128,-1,1
 373 839 373 839 373 870 c 128,-1,2
 373 901 373 901 393.5 923 c 128,-1,3
 414 945 414 945 443.5 945 c 128,-1,4
 473 945 473 945 491.5 924 c 128,-1,5
 510 903 510 903 510 872.5 c 128,-1,6
 510 842 510 842 489.5 820 c 128,-1,7
 469 798 469 798 439.5 798 c 128,-1,0
 410 798 410 798 391.5 818.5 c 128,-1,1
614.5 818.5 m 128,-1,9
 596 839 596 839 596 870 c 128,-1,10
 596 901 596 901 616.5 923 c 128,-1,11
 637 945 637 945 666.5 945 c 128,-1,12
 696 945 696 945 714.5 924 c 128,-1,13
 733 903 733 903 733 872.5 c 128,-1,14
 733 842 733 842 712.5 820 c 128,-1,15
 692 798 692 798 662.5 798 c 128,-1,8
 633 798 633 798 614.5 818.5 c 128,-1,9
-2 333 m 128,-1,17
 -45 384 -45 384 -45 456 c 0,18,19
 -45 570 -45 570 69 635 c 128,-1,20
 183 700 183 700 434 700 c 2,21,-1
 708 700 l 1,22,-1
 708 580 l 1,23,-1
 649 580 l 1,24,-1
 831 120 l 1,25,-1
 897 120 l 1,26,-1
 897 0 l 1,27,-1
 640 0 l 1,28,-1
 640 120 l 1,29,-1
 699 120 l 1,30,-1
 678 176 l 1,31,-1
 416 176 l 1,32,-1
 395 120 l 1,33,-1
 455 120 l 1,34,-1
 455 0 l 1,35,-1
 198 0 l 1,36,-1
 198 120 l 1,37,-1
 263 120 l 1,38,-1
 444 580 l 1,39,-1
 434 580 l 2,40,41
 233 580 233 580 156.5 552 c 128,-1,42
 80 524 80 524 80 456 c 0,43,44
 80 402 80 402 131 402 c 0,45,46
 178 402 178 402 178 466 c 1,47,-1
 303 466 l 1,48,49
 303 388 303 388 262 335 c 128,-1,50
 221 282 221 282 131 282 c 128,-1,16
 41 282 41 282 -2 333 c 128,-1,17
457 286 m 1,51,-1
 636 286 l 1,52,-1
 547 524 l 1,53,-1
 457 286 l 1,51,-1
EndSplineSet
EndChar

StartChar: Aring
Encoding: 197 197 134
Width: 897
GlyphClass: 2
Flags: W
LayerCount: 2
Fore
SplineSet
645.5 748.5 m 128,-1,1
 606 710 606 710 548.5 710 c 128,-1,2
 491 710 491 710 450.5 749.5 c 128,-1,3
 410 789 410 789 410 844 c 128,-1,4
 410 899 410 899 451 939.5 c 128,-1,5
 492 980 492 980 549 980 c 128,-1,6
 606 980 606 980 645.5 940 c 128,-1,7
 685 900 685 900 685 843.5 c 128,-1,0
 685 787 685 787 645.5 748.5 c 128,-1,1
549 895 m 128,-1,9
 527 895 527 895 513.5 880 c 128,-1,10
 500 865 500 865 500 844.5 c 128,-1,11
 500 824 500 824 513.5 809.5 c 128,-1,12
 527 795 527 795 549.5 795 c 128,-1,13
 572 795 572 795 585.5 809.5 c 128,-1,14
 599 824 599 824 599 844.5 c 128,-1,15
 599 865 599 865 585 880 c 128,-1,8
 571 895 571 895 549 895 c 128,-1,9
262 335 m 128,-1,17
 221 282 221 282 131 282 c 128,-1,18
 41 282 41 282 -2 333 c 128,-1,19
 -45 384 -45 384 -45 456 c 0,20,21
 -45 570 -45 570 69 635 c 128,-1,22
 183 700 183 700 434 700 c 2,23,-1
 708 700 l 1,24,-1
 708 580 l 1,25,-1
 649 580 l 1,26,-1
 831 120 l 1,27,-1
 897 120 l 1,28,-1
 897 0 l 1,29,-1
 640 0 l 1,30,-1
 640 120 l 1,31,-1
 699 120 l 1,32,-1
 678 176 l 1,33,-1
 416 176 l 1,34,-1
 395 120 l 1,35,-1
 455 120 l 1,36,-1
 455 0 l 1,37,-1
 198 0 l 1,38,-1
 198 120 l 1,39,-1
 263 120 l 1,40,-1
 444 580 l 1,41,-1
 434 580 l 2,42,43
 233 580 233 580 156.5 552 c 128,-1,44
 80 524 80 524 80 456 c 0,45,46
 80 402 80 402 131 402 c 0,47,48
 178 402 178 402 178 466 c 1,49,-1
 303 466 l 1,50,16
 303 388 303 388 262 335 c 128,-1,17
547 524 m 1,51,-1
 457 286 l 1,52,-1
 636 286 l 1,53,-1
 547 524 l 1,51,-1
EndSplineSet
EndChar

StartChar: AE
Encoding: 198 198 135
Width: 1084
GlyphClass: 2
Flags: W
LayerCount: 2
Fore
SplineSet
262 335.5 m 128,-1,1
 221 282 221 282 131 282 c 128,-1,2
 41 282 41 282 -2 333 c 128,-1,3
 -45 384 -45 384 -45 456 c 0,4,5
 -45 570 -45 570 62 635 c 128,-1,6
 169 700 169 700 404 700 c 2,7,-1
 1043 700 l 1,8,-1
 1043 495 l 1,9,-1
 928 495 l 1,10,-1
 928 580 l 1,11,-1
 708 580 l 1,12,-1
 708 406 l 1,13,-1
 786 406 l 1,14,-1
 786 466 l 1,15,-1
 901 466 l 1,16,-1
 901 226 l 1,17,-1
 786 226 l 1,18,-1
 786 286 l 1,19,-1
 708 286 l 1,20,-1
 708 120 l 1,21,-1
 937 120 l 1,22,-1
 937 205 l 1,23,-1
 1052 205 l 1,24,-1
 1052 0 l 1,25,-1
 526 0 l 1,26,-1
 526 120 l 1,27,-1
 578 120 l 1,28,-1
 578 176 l 1,29,-1
 384 176 l 1,30,-1
 357 120 l 1,31,-1
 385 120 l 1,32,-1
 385 0 l 1,33,-1
 128 0 l 1,34,-1
 128 120 l 1,35,-1
 224 120 l 1,36,-1
 449 580 l 1,37,-1
 404 580 l 2,38,39
 220 580 220 580 150 552 c 128,-1,40
 80 524 80 524 80 456 c 0,41,42
 80 402 80 402 131 402 c 0,43,44
 178 402 178 402 178 466 c 1,45,-1
 303 466 l 1,46,0
 303 389 303 389 262 335.5 c 128,-1,1
578 286 m 1,47,-1
 578 572 l 1,48,-1
 438 286 l 1,49,-1
 578 286 l 1,47,-1
EndSplineSet
EndChar

StartChar: Ccedilla
Encoding: 199 199 136
Width: 561
GlyphClass: 2
Flags: W
LayerCount: 2
Fore
SplineSet
28.5 109.5 m 128,-1,1
 -45 206 -45 206 -45 356.5 c 128,-1,2
 -45 507 -45 507 45 608.5 c 128,-1,3
 135 710 135 710 290 710 c 0,4,5
 387 710 387 710 459.5 650 c 128,-1,6
 532 590 532 590 532 495 c 0,7,8
 532 423 532 423 489 372 c 128,-1,9
 446 321 446 321 356 321 c 128,-1,10
 266 321 266 321 225 374.5 c 128,-1,11
 184 428 184 428 184 505 c 1,12,-1
 309 505 l 1,13,14
 309 441 309 441 356 441 c 0,15,16
 392 441 392 441 392 495 c 0,17,18
 392 535 392 535 361 560 c 128,-1,19
 330 585 330 585 290 585 c 0,20,21
 199 585 199 585 144.5 518.5 c 128,-1,22
 90 452 90 452 90 350 c 128,-1,23
 90 248 90 248 144.5 181.5 c 128,-1,24
 199 115 199 115 296 115 c 128,-1,25
 393 115 393 115 475 201 c 1,26,-1
 551 106 l 1,27,28
 473 10 473 10 345 -6 c 1,29,-1
 319 -22 l 1,30,31
 392 -41 392 -41 392 -131 c 0,32,33
 392 -196 392 -196 352.5 -228 c 128,-1,34
 313 -260 313 -260 253 -260 c 128,-1,35
 193 -260 193 -260 144 -238 c 1,36,-1
 178 -145 l 1,37,38
 197 -155 197 -155 240.5 -155 c 128,-1,39
 284 -155 284 -155 284 -127 c 0,40,41
 284 -96 284 -96 246 -96 c 0,42,43
 225 -96 225 -96 207 -104 c 1,44,-1
 186 -35 l 1,45,-1
 231 -5 l 1,46,0
 102 13 102 13 28.5 109.5 c 128,-1,1
EndSplineSet
EndChar

StartChar: Egrave
Encoding: 200 200 137
Width: 840
GlyphClass: 2
Flags: W
LayerCount: 2
Fore
SplineSet
262 335.5 m 128,-1,1
 221 282 221 282 131 282 c 128,-1,2
 41 282 41 282 -2 333 c 128,-1,3
 -45 384 -45 384 -45 456 c 0,4,5
 -45 570 -45 570 58.5 635 c 128,-1,6
 162 700 162 700 389 700 c 2,7,-1
 799 700 l 1,8,-1
 799 495 l 1,9,-1
 684 495 l 1,10,-1
 684 580 l 1,11,-1
 464 580 l 1,12,-1
 464 406 l 1,13,-1
 542 406 l 1,14,-1
 542 466 l 1,15,-1
 657 466 l 1,16,-1
 657 226 l 1,17,-1
 542 226 l 1,18,-1
 542 286 l 1,19,-1
 464 286 l 1,20,-1
 464 120 l 1,21,-1
 693 120 l 1,22,-1
 693 205 l 1,23,-1
 808 205 l 1,24,-1
 808 0 l 1,25,-1
 237 0 l 1,26,-1
 237 120 l 1,27,-1
 334 120 l 1,28,-1
 334 579 l 1,29,30
 192 575 192 575 136 546.5 c 128,-1,31
 80 518 80 518 80 460 c 128,-1,32
 80 402 80 402 131 402 c 0,33,34
 178 402 178 402 178 466 c 1,35,-1
 303 466 l 1,36,0
 303 389 303 389 262 335.5 c 128,-1,1
509 760 m 1,37,-1
 381 918 l 1,38,-1
 492 993 l 1,39,-1
 593 810 l 1,40,-1
 509 760 l 1,37,-1
EndSplineSet
EndChar

StartChar: Eacute
Encoding: 201 201 138
Width: 840
GlyphClass: 2
Flags: W
LayerCount: 2
Fore
SplineSet
262 335.5 m 128,-1,1
 221 282 221 282 131 282 c 128,-1,2
 41 282 41 282 -2 333 c 128,-1,3
 -45 384 -45 384 -45 456 c 0,4,5
 -45 570 -45 570 58.5 635 c 128,-1,6
 162 700 162 700 389 700 c 2,7,-1
 799 700 l 1,8,-1
 799 495 l 1,9,-1
 684 495 l 1,10,-1
 684 580 l 1,11,-1
 464 580 l 1,12,-1
 464 406 l 1,13,-1
 542 406 l 1,14,-1
 542 466 l 1,15,-1
 657 466 l 1,16,-1
 657 226 l 1,17,-1
 542 226 l 1,18,-1
 542 286 l 1,19,-1
 464 286 l 1,20,-1
 464 120 l 1,21,-1
 693 120 l 1,22,-1
 693 205 l 1,23,-1
 808 205 l 1,24,-1
 808 0 l 1,25,-1
 237 0 l 1,26,-1
 237 120 l 1,27,-1
 334 120 l 1,28,-1
 334 579 l 1,29,30
 192 575 192 575 136 546.5 c 128,-1,31
 80 518 80 518 80 460 c 128,-1,32
 80 402 80 402 131 402 c 0,33,34
 178 402 178 402 178 466 c 1,35,-1
 303 466 l 1,36,0
 303 389 303 389 262 335.5 c 128,-1,1
626 918 m 1,37,-1
 498 760 l 1,38,-1
 414 810 l 1,39,-1
 515 993 l 1,40,-1
 626 918 l 1,37,-1
EndSplineSet
EndChar

StartChar: Ecircumflex
Encoding: 202 202 139
Width: 840
GlyphClass: 2
Flags: W
LayerCount: 2
Fore
SplineSet
262 335.5 m 128,-1,1
 221 282 221 282 131 282 c 128,-1,2
 41 282 41 282 -2 333 c 128,-1,3
 -45 384 -45 384 -45 456 c 0,4,5
 -45 570 -45 570 58.5 635 c 128,-1,6
 162 700 162 700 389 700 c 2,7,-1
 799 700 l 1,8,-1
 799 495 l 1,9,-1
 684 495 l 1,10,-1
 684 580 l 1,11,-1
 464 580 l 1,12,-1
 464 406 l 1,13,-1
 542 406 l 1,14,-1
 542 466 l 1,15,-1
 657 466 l 1,16,-1
 657 226 l 1,17,-1
 542 226 l 1,18,-1
 542 286 l 1,19,-1
 464 286 l 1,20,-1
 464 120 l 1,21,-1
 693 120 l 1,22,-1
 693 205 l 1,23,-1
 808 205 l 1,24,-1
 808 0 l 1,25,-1
 237 0 l 1,26,-1
 237 120 l 1,27,-1
 334 120 l 1,28,-1
 334 579 l 1,29,30
 192 575 192 575 136 546.5 c 128,-1,31
 80 518 80 518 80 460 c 128,-1,32
 80 402 80 402 131 402 c 0,33,34
 178 402 178 402 178 466 c 1,35,-1
 303 466 l 1,36,0
 303 389 303 389 262 335.5 c 128,-1,1
348 800 m 1,37,-1
 478 947 l 1,38,-1
 560 947 l 1,39,-1
 690 800 l 1,40,-1
 628 750 l 1,41,-1
 519 840 l 1,42,-1
 410 750 l 1,43,-1
 348 800 l 1,37,-1
EndSplineSet
EndChar

StartChar: Edieresis
Encoding: 203 203 140
Width: 840
GlyphClass: 2
Flags: W
LayerCount: 2
Fore
SplineSet
262 335.5 m 128,-1,1
 221 282 221 282 131 282 c 128,-1,2
 41 282 41 282 -2 333 c 128,-1,3
 -45 384 -45 384 -45 456 c 0,4,5
 -45 570 -45 570 58.5 635 c 128,-1,6
 162 700 162 700 389 700 c 2,7,-1
 799 700 l 1,8,-1
 799 495 l 1,9,-1
 684 495 l 1,10,-1
 684 580 l 1,11,-1
 464 580 l 1,12,-1
 464 406 l 1,13,-1
 542 406 l 1,14,-1
 542 466 l 1,15,-1
 657 466 l 1,16,-1
 657 226 l 1,17,-1
 542 226 l 1,18,-1
 542 286 l 1,19,-1
 464 286 l 1,20,-1
 464 120 l 1,21,-1
 693 120 l 1,22,-1
 693 205 l 1,23,-1
 808 205 l 1,24,-1
 808 0 l 1,25,-1
 237 0 l 1,26,-1
 237 120 l 1,27,-1
 334 120 l 1,28,-1
 334 579 l 1,29,30
 192 575 192 575 136 546.5 c 128,-1,31
 80 518 80 518 80 460 c 128,-1,32
 80 402 80 402 131 402 c 0,33,34
 178 402 178 402 178 466 c 1,35,-1
 303 466 l 1,36,0
 303 389 303 389 262 335.5 c 128,-1,1
378.5 818.5 m 128,-1,38
 360 839 360 839 360 870 c 128,-1,39
 360 901 360 901 380.5 923 c 128,-1,40
 401 945 401 945 430.5 945 c 128,-1,41
 460 945 460 945 478.5 924 c 128,-1,42
 497 903 497 903 497 872.5 c 128,-1,43
 497 842 497 842 476.5 820 c 128,-1,44
 456 798 456 798 426.5 798 c 128,-1,37
 397 798 397 798 378.5 818.5 c 128,-1,38
601.5 818.5 m 128,-1,46
 583 839 583 839 583 870 c 128,-1,47
 583 901 583 901 603.5 923 c 128,-1,48
 624 945 624 945 653.5 945 c 128,-1,49
 683 945 683 945 701.5 924 c 128,-1,50
 720 903 720 903 720 872.5 c 128,-1,51
 720 842 720 842 699.5 820 c 128,-1,52
 679 798 679 798 649.5 798 c 128,-1,45
 620 798 620 798 601.5 818.5 c 128,-1,46
EndSplineSet
EndChar

StartChar: Igrave
Encoding: 204 204 141
Width: 585
GlyphClass: 2
Flags: W
LayerCount: 2
Fore
SplineSet
262 335.5 m 128,-1,1
 221 282 221 282 131 282 c 128,-1,2
 41 282 41 282 -2 333 c 128,-1,3
 -45 384 -45 384 -45 456 c 0,4,5
 -45 570 -45 570 58.5 635 c 128,-1,6
 162 700 162 700 389 700 c 2,7,-1
 561 700 l 1,8,-1
 561 580 l 1,9,-1
 464 580 l 1,10,-1
 464 120 l 1,11,-1
 561 120 l 1,12,-1
 561 0 l 1,13,-1
 246 0 l 1,14,-1
 246 120 l 1,15,-1
 334 120 l 1,16,-1
 334 579 l 1,17,18
 192 575 192 575 136 546.5 c 128,-1,19
 80 518 80 518 80 460 c 128,-1,20
 80 402 80 402 131 402 c 0,21,22
 178 402 178 402 178 466 c 1,23,-1
 303 466 l 1,24,0
 303 389 303 389 262 335.5 c 128,-1,1
386 760 m 1,25,-1
 258 918 l 1,26,-1
 369 993 l 1,27,-1
 470 810 l 1,28,-1
 386 760 l 1,25,-1
EndSplineSet
EndChar

StartChar: Iacute
Encoding: 205 205 142
Width: 587
GlyphClass: 2
Flags: W
LayerCount: 2
Fore
SplineSet
262 335.5 m 128,-1,1
 221 282 221 282 131 282 c 128,-1,2
 41 282 41 282 -2 333 c 128,-1,3
 -45 384 -45 384 -45 456 c 0,4,5
 -45 570 -45 570 58.5 635 c 128,-1,6
 162 700 162 700 389 700 c 2,7,-1
 561 700 l 1,8,-1
 561 580 l 1,9,-1
 464 580 l 1,10,-1
 464 120 l 1,11,-1
 561 120 l 1,12,-1
 561 0 l 1,13,-1
 246 0 l 1,14,-1
 246 120 l 1,15,-1
 334 120 l 1,16,-1
 334 579 l 1,17,18
 192 575 192 575 136 546.5 c 128,-1,19
 80 518 80 518 80 460 c 128,-1,20
 80 402 80 402 131 402 c 0,21,22
 178 402 178 402 178 466 c 1,23,-1
 303 466 l 1,24,0
 303 389 303 389 262 335.5 c 128,-1,1
532 918 m 1,25,-1
 404 760 l 1,26,-1
 320 810 l 1,27,-1
 421 993 l 1,28,-1
 532 918 l 1,25,-1
EndSplineSet
EndChar

StartChar: Icircumflex
Encoding: 206 206 143
Width: 585
GlyphClass: 2
Flags: W
LayerCount: 2
Fore
SplineSet
262 335.5 m 128,-1,1
 221 282 221 282 131 282 c 128,-1,2
 41 282 41 282 -2 333 c 128,-1,3
 -45 384 -45 384 -45 456 c 0,4,5
 -45 570 -45 570 58.5 635 c 128,-1,6
 162 700 162 700 389 700 c 2,7,-1
 561 700 l 1,8,-1
 561 580 l 1,9,-1
 464 580 l 1,10,-1
 464 120 l 1,11,-1
 561 120 l 1,12,-1
 561 0 l 1,13,-1
 246 0 l 1,14,-1
 246 120 l 1,15,-1
 334 120 l 1,16,-1
 334 579 l 1,17,18
 192 575 192 575 136 546.5 c 128,-1,19
 80 518 80 518 80 460 c 128,-1,20
 80 402 80 402 131 402 c 0,21,22
 178 402 178 402 178 466 c 1,23,-1
 303 466 l 1,24,0
 303 389 303 389 262 335.5 c 128,-1,1
233 800 m 1,25,-1
 363 947 l 1,26,-1
 445 947 l 1,27,-1
 575 800 l 1,28,-1
 513 750 l 1,29,-1
 404 840 l 1,30,-1
 295 750 l 1,31,-1
 233 800 l 1,25,-1
EndSplineSet
EndChar

StartChar: Idieresis
Encoding: 207 207 144
Width: 586
GlyphClass: 2
Flags: W
LayerCount: 2
Fore
SplineSet
262 335.5 m 128,-1,1
 221 282 221 282 131 282 c 128,-1,2
 41 282 41 282 -2 333 c 128,-1,3
 -45 384 -45 384 -45 456 c 0,4,5
 -45 570 -45 570 58.5 635 c 128,-1,6
 162 700 162 700 389 700 c 2,7,-1
 561 700 l 1,8,-1
 561 580 l 1,9,-1
 464 580 l 1,10,-1
 464 120 l 1,11,-1
 561 120 l 1,12,-1
 561 0 l 1,13,-1
 246 0 l 1,14,-1
 246 120 l 1,15,-1
 334 120 l 1,16,-1
 334 579 l 1,17,18
 192 575 192 575 136 546.5 c 128,-1,19
 80 518 80 518 80 460 c 128,-1,20
 80 402 80 402 131 402 c 0,21,22
 178 402 178 402 178 466 c 1,23,-1
 303 466 l 1,24,0
 303 389 303 389 262 335.5 c 128,-1,1
227.5 818.5 m 128,-1,26
 209 839 209 839 209 870 c 128,-1,27
 209 901 209 901 229.5 923 c 128,-1,28
 250 945 250 945 279.5 945 c 128,-1,29
 309 945 309 945 327.5 924 c 128,-1,30
 346 903 346 903 346 872.5 c 128,-1,31
 346 842 346 842 325.5 820 c 128,-1,32
 305 798 305 798 275.5 798 c 128,-1,25
 246 798 246 798 227.5 818.5 c 128,-1,26
450.5 818.5 m 128,-1,34
 432 839 432 839 432 870 c 128,-1,35
 432 901 432 901 452.5 923 c 128,-1,36
 473 945 473 945 502.5 945 c 128,-1,37
 532 945 532 945 550.5 924 c 128,-1,38
 569 903 569 903 569 872.5 c 128,-1,39
 569 842 569 842 548.5 820 c 128,-1,40
 528 798 528 798 498.5 798 c 128,-1,33
 469 798 469 798 450.5 818.5 c 128,-1,34
EndSplineSet
EndChar

StartChar: Eth
Encoding: 208 208 145
Width: 926
GlyphClass: 2
Flags: W
LayerCount: 2
Fore
SplineSet
554 -10 m 1,0,-1
 349 0 l 1,1,-1
 246 0 l 1,2,-1
 246 120 l 1,3,-1
 334 120 l 1,4,-1
 334 579 l 1,5,6
 192 575 192 575 136 546.5 c 128,-1,7
 80 518 80 518 80 460 c 128,-1,8
 80 402 80 402 131 402 c 0,9,10
 178 402 178 402 178 466 c 1,11,-1
 303 466 l 1,12,13
 303 389 303 389 262 335.5 c 128,-1,14
 221 282 221 282 131 282 c 128,-1,15
 41 282 41 282 -2 333 c 128,-1,16
 -45 384 -45 384 -45 456 c 0,17,18
 -45 570 -45 570 58.5 635 c 128,-1,19
 162 700 162 700 389 700 c 2,20,-1
 434 700 l 2,21,22
 647 700 647 700 759.5 597.5 c 128,-1,23
 872 495 872 495 872 320 c 0,24,25
 872 149 872 149 770 58 c 0,26,27
 693 -10 693 -10 554 -10 c 1,0,-1
464 116 m 1,28,29
 532 110 532 110 569 110 c 128,-1,30
 606 110 606 110 643.5 128.5 c 128,-1,31
 681 147 681 147 700 178 c 0,32,33
 737 237 737 237 737 320 c 0,34,35
 737 444 737 444 667.5 512 c 128,-1,36
 598 580 598 580 464 580 c 1,37,-1
 464 382 l 1,38,-1
 565 382 l 1,39,-1
 565 280 l 1,40,-1
 464 280 l 1,41,-1
 464 116 l 1,28,29
EndSplineSet
EndChar

StartChar: Ntilde
Encoding: 209 209 146
Width: 994
GlyphClass: 2
Flags: W
LayerCount: 2
Fore
SplineSet
262 335.5 m 128,-1,1
 221 282 221 282 131 282 c 128,-1,2
 41 282 41 282 -2 333 c 128,-1,3
 -45 384 -45 384 -45 456 c 0,4,5
 -45 570 -45 570 58.5 635 c 128,-1,6
 162 700 162 700 389 700 c 2,7,-1
 466 700 l 1,8,-1
 757 233 l 1,9,-1
 757 580 l 1,10,-1
 670 580 l 1,11,-1
 670 700 l 1,12,-1
 984 700 l 1,13,-1
 984 580 l 1,14,-1
 887 580 l 1,15,-1
 887 0 l 1,16,-1
 764 0 l 1,17,-1
 464 479 l 1,18,-1
 464 120 l 1,19,-1
 551 120 l 1,20,-1
 551 0 l 1,21,-1
 237 0 l 1,22,-1
 237 120 l 1,23,-1
 334 120 l 1,24,-1
 334 579 l 1,25,26
 192 575 192 575 136 546.5 c 128,-1,27
 80 518 80 518 80 460 c 128,-1,28
 80 402 80 402 131 402 c 0,29,30
 178 402 178 402 178 466 c 1,31,-1
 303 466 l 1,32,0
 303 389 303 389 262 335.5 c 128,-1,1
653 868 m 1,33,-1
 716 910 l 1,34,-1
 771 867 l 1,35,36
 753 819 753 819 723.5 790.5 c 128,-1,37
 694 762 694 762 659.5 762 c 128,-1,38
 625 762 625 762 536 799 c 1,39,-1
 473 757 l 1,40,-1
 418 800 l 1,41,42
 436 848 436 848 465.5 876.5 c 128,-1,43
 495 905 495 905 533 905 c 0,44,45
 549 905 549 905 558.5 902 c 128,-1,46
 568 899 568 899 573.5 897.5 c 128,-1,47
 579 896 579 896 590.5 892 c 128,-1,48
 602 888 602 888 608 886 c 0,49,50
 623 879 623 879 653 868 c 1,33,-1
EndSplineSet
EndChar

StartChar: Ograve
Encoding: 210 210 147
Width: 740
GlyphClass: 2
Flags: W
LayerCount: 2
Fore
SplineSet
35 350 m 128,-1,1
 35 507 35 507 126 608.5 c 128,-1,2
 217 710 217 710 370.5 710 c 128,-1,3
 524 710 524 710 614.5 609.5 c 128,-1,4
 705 509 705 509 705 351 c 128,-1,5
 705 193 705 193 615 91.5 c 128,-1,6
 525 -10 525 -10 370 -10 c 128,-1,7
 215 -10 215 -10 125 91.5 c 128,-1,0
 35 193 35 193 35 350 c 128,-1,1
303 321 m 0,8,9
 261 321 261 321 227.5 346.5 c 128,-1,10
 194 372 194 372 175 404 c 1,11,12
 170 386 170 386 170 350 c 0,13,14
 170 246 170 246 224.5 178 c 128,-1,15
 279 110 279 110 370 110 c 128,-1,16
 461 110 461 110 515.5 178 c 128,-1,17
 570 246 570 246 570 349 c 128,-1,18
 570 452 570 452 515.5 518.5 c 128,-1,19
 461 585 461 585 370 585 c 0,20,21
 330 585 330 585 299 560 c 128,-1,22
 268 535 268 535 268 495 c 0,23,24
 268 441 268 441 304 441 c 0,25,26
 351 441 351 441 351 505 c 1,27,-1
 476 505 l 1,28,29
 476 428 476 428 435 374.5 c 128,-1,30
 394 321 394 321 303 321 c 0,8,9
381 760 m 1,31,-1
 253 918 l 1,32,-1
 364 993 l 1,33,-1
 465 810 l 1,34,-1
 381 760 l 1,31,-1
EndSplineSet
EndChar

StartChar: Oacute
Encoding: 211 211 148
Width: 740
GlyphClass: 2
Flags: W
LayerCount: 2
Fore
SplineSet
35 350 m 128,-1,1
 35 507 35 507 126 608.5 c 128,-1,2
 217 710 217 710 370.5 710 c 128,-1,3
 524 710 524 710 614.5 609.5 c 128,-1,4
 705 509 705 509 705 351 c 128,-1,5
 705 193 705 193 615 91.5 c 128,-1,6
 525 -10 525 -10 370 -10 c 128,-1,7
 215 -10 215 -10 125 91.5 c 128,-1,0
 35 193 35 193 35 350 c 128,-1,1
303 321 m 0,8,9
 261 321 261 321 227.5 346.5 c 128,-1,10
 194 372 194 372 175 404 c 1,11,12
 170 386 170 386 170 350 c 0,13,14
 170 246 170 246 224.5 178 c 128,-1,15
 279 110 279 110 370 110 c 128,-1,16
 461 110 461 110 515.5 178 c 128,-1,17
 570 246 570 246 570 349 c 128,-1,18
 570 452 570 452 515.5 518.5 c 128,-1,19
 461 585 461 585 370 585 c 0,20,21
 330 585 330 585 299 560 c 128,-1,22
 268 535 268 535 268 495 c 0,23,24
 268 441 268 441 304 441 c 0,25,26
 351 441 351 441 351 505 c 1,27,-1
 476 505 l 1,28,29
 476 428 476 428 435 374.5 c 128,-1,30
 394 321 394 321 303 321 c 0,8,9
523 918 m 1,31,-1
 395 760 l 1,32,-1
 311 810 l 1,33,-1
 412 993 l 1,34,-1
 523 918 l 1,31,-1
EndSplineSet
EndChar

StartChar: Ocircumflex
Encoding: 212 212 149
Width: 740
GlyphClass: 2
Flags: W
LayerCount: 2
Fore
SplineSet
35 350 m 128,-1,1
 35 507 35 507 126 608.5 c 128,-1,2
 217 710 217 710 370.5 710 c 128,-1,3
 524 710 524 710 614.5 609.5 c 128,-1,4
 705 509 705 509 705 351 c 128,-1,5
 705 193 705 193 615 91.5 c 128,-1,6
 525 -10 525 -10 370 -10 c 128,-1,7
 215 -10 215 -10 125 91.5 c 128,-1,0
 35 193 35 193 35 350 c 128,-1,1
303 321 m 0,8,9
 261 321 261 321 227.5 346.5 c 128,-1,10
 194 372 194 372 175 404 c 1,11,12
 170 386 170 386 170 350 c 0,13,14
 170 246 170 246 224.5 178 c 128,-1,15
 279 110 279 110 370 110 c 128,-1,16
 461 110 461 110 515.5 178 c 128,-1,17
 570 246 570 246 570 349 c 128,-1,18
 570 452 570 452 515.5 518.5 c 128,-1,19
 461 585 461 585 370 585 c 0,20,21
 330 585 330 585 299 560 c 128,-1,22
 268 535 268 535 268 495 c 0,23,24
 268 441 268 441 304 441 c 0,25,26
 351 441 351 441 351 505 c 1,27,-1
 476 505 l 1,28,29
 476 428 476 428 435 374.5 c 128,-1,30
 394 321 394 321 303 321 c 0,8,9
192 800 m 1,31,-1
 322 947 l 1,32,-1
 404 947 l 1,33,-1
 534 800 l 1,34,-1
 472 750 l 1,35,-1
 363 840 l 1,36,-1
 254 750 l 1,37,-1
 192 800 l 1,31,-1
EndSplineSet
EndChar

StartChar: Otilde
Encoding: 213 213 150
Width: 740
GlyphClass: 2
Flags: W
LayerCount: 2
Fore
SplineSet
35 350 m 128,-1,1
 35 507 35 507 126 608.5 c 128,-1,2
 217 710 217 710 370.5 710 c 128,-1,3
 524 710 524 710 614.5 609.5 c 128,-1,4
 705 509 705 509 705 351 c 128,-1,5
 705 193 705 193 615 91.5 c 128,-1,6
 525 -10 525 -10 370 -10 c 128,-1,7
 215 -10 215 -10 125 91.5 c 128,-1,0
 35 193 35 193 35 350 c 128,-1,1
303 321 m 0,8,9
 261 321 261 321 227.5 346.5 c 128,-1,10
 194 372 194 372 175 404 c 1,11,12
 170 386 170 386 170 350 c 0,13,14
 170 246 170 246 224.5 178 c 128,-1,15
 279 110 279 110 370 110 c 128,-1,16
 461 110 461 110 515.5 178 c 128,-1,17
 570 246 570 246 570 349 c 128,-1,18
 570 452 570 452 515.5 518.5 c 128,-1,19
 461 585 461 585 370 585 c 0,20,21
 330 585 330 585 299 560 c 128,-1,22
 268 535 268 535 268 495 c 0,23,24
 268 441 268 441 304 441 c 0,25,26
 351 441 351 441 351 505 c 1,27,-1
 476 505 l 1,28,29
 476 428 476 428 435 374.5 c 128,-1,30
 394 321 394 321 303 321 c 0,8,9
439 868 m 1,31,-1
 502 910 l 1,32,-1
 557 867 l 1,33,34
 539 819 539 819 509.5 790.5 c 128,-1,35
 480 762 480 762 445.5 762 c 128,-1,36
 411 762 411 762 322 799 c 1,37,-1
 259 757 l 1,38,-1
 204 800 l 1,39,40
 222 848 222 848 251.5 876.5 c 128,-1,41
 281 905 281 905 319 905 c 0,42,43
 335 905 335 905 344.5 902 c 128,-1,44
 354 899 354 899 359.5 897.5 c 128,-1,45
 365 896 365 896 376.5 892 c 128,-1,46
 388 888 388 888 394 886 c 0,47,48
 409 879 409 879 439 868 c 1,31,-1
EndSplineSet
EndChar

StartChar: Odieresis
Encoding: 214 214 151
Width: 740
GlyphClass: 2
Flags: W
LayerCount: 2
Fore
SplineSet
35 350 m 128,-1,1
 35 507 35 507 126 608.5 c 128,-1,2
 217 710 217 710 370.5 710 c 128,-1,3
 524 710 524 710 614.5 609.5 c 128,-1,4
 705 509 705 509 705 351 c 128,-1,5
 705 193 705 193 615 91.5 c 128,-1,6
 525 -10 525 -10 370 -10 c 128,-1,7
 215 -10 215 -10 125 91.5 c 128,-1,0
 35 193 35 193 35 350 c 128,-1,1
303 321 m 0,8,9
 261 321 261 321 227.5 346.5 c 128,-1,10
 194 372 194 372 175 404 c 1,11,12
 170 386 170 386 170 350 c 0,13,14
 170 246 170 246 224.5 178 c 128,-1,15
 279 110 279 110 370 110 c 128,-1,16
 461 110 461 110 515.5 178 c 128,-1,17
 570 246 570 246 570 349 c 128,-1,18
 570 452 570 452 515.5 518.5 c 128,-1,19
 461 585 461 585 370 585 c 0,20,21
 330 585 330 585 299 560 c 128,-1,22
 268 535 268 535 268 495 c 0,23,24
 268 441 268 441 304 441 c 0,25,26
 351 441 351 441 351 505 c 1,27,-1
 476 505 l 1,28,29
 476 428 476 428 435 374.5 c 128,-1,30
 394 321 394 321 303 321 c 0,8,9
229.5 818.5 m 128,-1,32
 211 839 211 839 211 870 c 128,-1,33
 211 901 211 901 231.5 923 c 128,-1,34
 252 945 252 945 281.5 945 c 128,-1,35
 311 945 311 945 329.5 924 c 128,-1,36
 348 903 348 903 348 872.5 c 128,-1,37
 348 842 348 842 327.5 820 c 128,-1,38
 307 798 307 798 277.5 798 c 128,-1,31
 248 798 248 798 229.5 818.5 c 128,-1,32
452.5 818.5 m 128,-1,40
 434 839 434 839 434 870 c 128,-1,41
 434 901 434 901 454.5 923 c 128,-1,42
 475 945 475 945 504.5 945 c 128,-1,43
 534 945 534 945 552.5 924 c 128,-1,44
 571 903 571 903 571 872.5 c 128,-1,45
 571 842 571 842 550.5 820 c 128,-1,46
 530 798 530 798 500.5 798 c 128,-1,39
 471 798 471 798 452.5 818.5 c 128,-1,40
EndSplineSet
EndChar

StartChar: multiply
Encoding: 215 215 152
Width: 574
GlyphClass: 2
Flags: W
LayerCount: 2
Fore
SplineSet
204 290 m 1,0,-1
 94 400 l 1,1,-1
 177 482 l 1,2,-1
 286 373 l 1,3,-1
 397 483 l 1,4,-1
 481 399 l 1,5,-1
 371 288 l 1,6,-1
 480 179 l 1,7,-1
 398 96 l 1,8,-1
 288 206 l 1,9,-1
 177 95 l 1,10,-1
 93 179 l 1,11,-1
 204 290 l 1,0,-1
EndSplineSet
EndChar

StartChar: Oslash
Encoding: 216 216 153
Width: 740
GlyphClass: 2
Flags: W
LayerCount: 2
Fore
SplineSet
35 350 m 0,0,1
 35 507 35 507 126 608.5 c 128,-1,2
 217 710 217 710 370.5 710 c 128,-1,3
 524 710 524 710 614.5 609.5 c 128,-1,4
 705 509 705 509 705 351 c 128,-1,5
 705 193 705 193 615 91.5 c 128,-1,6
 525 -10 525 -10 370 -10 c 0,7,8
 323 -10 323 -10 272 2 c 1,9,-1
 259 -30 l 1,10,-1
 139 -30 l 1,11,-1
 172 49 l 1,12,13
 106 97 106 97 70.5 175.5 c 128,-1,14
 35 254 35 254 35 350 c 0,0,1
476 505 m 1,15,16
 476 406 476 406 418 358 c 1,17,-1
 319 116 l 1,18,19
 343 110 343 110 370 110 c 0,20,21
 461 110 461 110 515.5 178 c 128,-1,22
 570 246 570 246 570 349 c 128,-1,23
 570 452 570 452 515.5 518.5 c 128,-1,24
 461 585 461 585 370 585 c 0,25,26
 330 585 330 585 299 560 c 128,-1,27
 268 535 268 535 268 495 c 0,28,29
 268 441 268 441 304 441 c 0,30,31
 351 441 351 441 351 505 c 1,32,-1
 476 505 l 1,15,16
170 350 m 0,33,34
 170 246 170 246 225 178 c 1,35,-1
 284 322 l 1,36,37
 216 334 216 334 175 404 c 1,38,39
 170 386 170 386 170 350 c 0,33,34
EndSplineSet
EndChar

StartChar: Ugrave
Encoding: 217 217 154
Width: 998
GlyphClass: 2
Flags: W
LayerCount: 2
Fore
SplineSet
262 335.5 m 128,-1,1
 221 282 221 282 131 282 c 128,-1,2
 41 282 41 282 -2 333 c 128,-1,3
 -45 384 -45 384 -45 456 c 0,4,5
 -45 570 -45 570 58.5 635 c 128,-1,6
 162 700 162 700 389 700 c 2,7,-1
 551 700 l 1,8,-1
 551 580 l 1,9,-1
 464 580 l 1,10,-1
 464 235 l 2,11,12
 464 184 464 184 506.5 149.5 c 128,-1,13
 549 115 549 115 616.5 115 c 128,-1,14
 684 115 684 115 728 149.5 c 128,-1,15
 772 184 772 184 772 235 c 2,16,-1
 772 580 l 1,17,-1
 685 580 l 1,18,-1
 685 700 l 1,19,-1
 999 700 l 1,20,-1
 999 580 l 1,21,-1
 902 580 l 1,22,-1
 902 235 l 2,23,24
 902 131 902 131 824.5 60.5 c 128,-1,25
 747 -10 747 -10 616.5 -10 c 128,-1,26
 486 -10 486 -10 410 60 c 128,-1,27
 334 130 334 130 334 235 c 2,28,-1
 334 579 l 1,29,30
 192 575 192 575 136 546.5 c 128,-1,31
 80 518 80 518 80 460 c 128,-1,32
 80 402 80 402 131 402 c 0,33,34
 178 402 178 402 178 466 c 1,35,-1
 303 466 l 1,36,0
 303 389 303 389 262 335.5 c 128,-1,1
538 760 m 1,37,-1
 410 918 l 1,38,-1
 521 993 l 1,39,-1
 622 810 l 1,40,-1
 538 760 l 1,37,-1
EndSplineSet
EndChar

StartChar: Uacute
Encoding: 218 218 155
Width: 998
GlyphClass: 2
Flags: W
LayerCount: 2
Fore
SplineSet
262 335.5 m 128,-1,1
 221 282 221 282 131 282 c 128,-1,2
 41 282 41 282 -2 333 c 128,-1,3
 -45 384 -45 384 -45 456 c 0,4,5
 -45 570 -45 570 58.5 635 c 128,-1,6
 162 700 162 700 389 700 c 2,7,-1
 551 700 l 1,8,-1
 551 580 l 1,9,-1
 464 580 l 1,10,-1
 464 235 l 2,11,12
 464 184 464 184 506.5 149.5 c 128,-1,13
 549 115 549 115 616.5 115 c 128,-1,14
 684 115 684 115 728 149.5 c 128,-1,15
 772 184 772 184 772 235 c 2,16,-1
 772 580 l 1,17,-1
 685 580 l 1,18,-1
 685 700 l 1,19,-1
 999 700 l 1,20,-1
 999 580 l 1,21,-1
 902 580 l 1,22,-1
 902 235 l 2,23,24
 902 131 902 131 824.5 60.5 c 128,-1,25
 747 -10 747 -10 616.5 -10 c 128,-1,26
 486 -10 486 -10 410 60 c 128,-1,27
 334 130 334 130 334 235 c 2,28,-1
 334 579 l 1,29,30
 192 575 192 575 136 546.5 c 128,-1,31
 80 518 80 518 80 460 c 128,-1,32
 80 402 80 402 131 402 c 0,33,34
 178 402 178 402 178 466 c 1,35,-1
 303 466 l 1,36,0
 303 389 303 389 262 335.5 c 128,-1,1
723 918 m 1,37,-1
 595 760 l 1,38,-1
 511 810 l 1,39,-1
 612 993 l 1,40,-1
 723 918 l 1,37,-1
EndSplineSet
EndChar

StartChar: Ucircumflex
Encoding: 219 219 156
Width: 998
GlyphClass: 2
Flags: W
LayerCount: 2
Fore
SplineSet
262 335.5 m 128,-1,1
 221 282 221 282 131 282 c 128,-1,2
 41 282 41 282 -2 333 c 128,-1,3
 -45 384 -45 384 -45 456 c 0,4,5
 -45 570 -45 570 58.5 635 c 128,-1,6
 162 700 162 700 389 700 c 2,7,-1
 551 700 l 1,8,-1
 551 580 l 1,9,-1
 464 580 l 1,10,-1
 464 235 l 2,11,12
 464 184 464 184 506.5 149.5 c 128,-1,13
 549 115 549 115 616.5 115 c 128,-1,14
 684 115 684 115 728 149.5 c 128,-1,15
 772 184 772 184 772 235 c 2,16,-1
 772 580 l 1,17,-1
 685 580 l 1,18,-1
 685 700 l 1,19,-1
 999 700 l 1,20,-1
 999 580 l 1,21,-1
 902 580 l 1,22,-1
 902 235 l 2,23,24
 902 131 902 131 824.5 60.5 c 128,-1,25
 747 -10 747 -10 616.5 -10 c 128,-1,26
 486 -10 486 -10 410 60 c 128,-1,27
 334 130 334 130 334 235 c 2,28,-1
 334 579 l 1,29,30
 192 575 192 575 136 546.5 c 128,-1,31
 80 518 80 518 80 460 c 128,-1,32
 80 402 80 402 131 402 c 0,33,34
 178 402 178 402 178 466 c 1,35,-1
 303 466 l 1,36,0
 303 389 303 389 262 335.5 c 128,-1,1
451 800 m 1,37,-1
 581 947 l 1,38,-1
 663 947 l 1,39,-1
 793 800 l 1,40,-1
 731 750 l 1,41,-1
 622 840 l 1,42,-1
 513 750 l 1,43,-1
 451 800 l 1,37,-1
EndSplineSet
EndChar

StartChar: Udieresis
Encoding: 220 220 157
Width: 998
GlyphClass: 2
Flags: W
LayerCount: 2
Fore
SplineSet
262 335.5 m 128,-1,1
 221 282 221 282 131 282 c 128,-1,2
 41 282 41 282 -2 333 c 128,-1,3
 -45 384 -45 384 -45 456 c 0,4,5
 -45 570 -45 570 58.5 635 c 128,-1,6
 162 700 162 700 389 700 c 2,7,-1
 551 700 l 1,8,-1
 551 580 l 1,9,-1
 464 580 l 1,10,-1
 464 235 l 2,11,12
 464 184 464 184 506.5 149.5 c 128,-1,13
 549 115 549 115 616.5 115 c 128,-1,14
 684 115 684 115 728 149.5 c 128,-1,15
 772 184 772 184 772 235 c 2,16,-1
 772 580 l 1,17,-1
 685 580 l 1,18,-1
 685 700 l 1,19,-1
 999 700 l 1,20,-1
 999 580 l 1,21,-1
 902 580 l 1,22,-1
 902 235 l 2,23,24
 902 131 902 131 824.5 60.5 c 128,-1,25
 747 -10 747 -10 616.5 -10 c 128,-1,26
 486 -10 486 -10 410 60 c 128,-1,27
 334 130 334 130 334 235 c 2,28,-1
 334 579 l 1,29,30
 192 575 192 575 136 546.5 c 128,-1,31
 80 518 80 518 80 460 c 128,-1,32
 80 402 80 402 131 402 c 0,33,34
 178 402 178 402 178 466 c 1,35,-1
 303 466 l 1,36,0
 303 389 303 389 262 335.5 c 128,-1,1
458.5 818.5 m 128,-1,38
 440 839 440 839 440 870 c 128,-1,39
 440 901 440 901 460.5 923 c 128,-1,40
 481 945 481 945 510.5 945 c 128,-1,41
 540 945 540 945 558.5 924 c 128,-1,42
 577 903 577 903 577 872.5 c 128,-1,43
 577 842 577 842 556.5 820 c 128,-1,44
 536 798 536 798 506.5 798 c 128,-1,37
 477 798 477 798 458.5 818.5 c 128,-1,38
681.5 818.5 m 128,-1,46
 663 839 663 839 663 870 c 128,-1,47
 663 901 663 901 683.5 923 c 128,-1,48
 704 945 704 945 733.5 945 c 128,-1,49
 763 945 763 945 781.5 924 c 128,-1,50
 800 903 800 903 800 872.5 c 128,-1,51
 800 842 800 842 779.5 820 c 128,-1,52
 759 798 759 798 729.5 798 c 128,-1,45
 700 798 700 798 681.5 818.5 c 128,-1,46
EndSplineSet
EndChar

StartChar: Yacute
Encoding: 221 221 158
Width: 804
GlyphClass: 2
Flags: W
LayerCount: 2
Fore
SplineSet
262 335.5 m 128,-1,1
 221 282 221 282 131 282 c 128,-1,2
 41 282 41 282 -2 333 c 128,-1,3
 -45 384 -45 384 -45 456 c 0,4,5
 -45 570 -45 570 58.5 635 c 128,-1,6
 162 700 162 700 389 700 c 2,7,-1
 481 700 l 1,8,-1
 481 580 l 1,9,-1
 441 580 l 1,10,-1
 516 414 l 1,11,-1
 591 580 l 1,12,-1
 551 580 l 1,13,-1
 551 700 l 1,14,-1
 803 700 l 1,15,-1
 803 580 l 1,16,-1
 733 580 l 1,17,-1
 581 273 l 1,18,-1
 581 120 l 1,19,-1
 678 120 l 1,20,-1
 678 0 l 1,21,-1
 354 0 l 1,22,-1
 354 120 l 1,23,-1
 451 120 l 1,24,-1
 451 273 l 1,25,-1
 300 578 l 1,26,27
 178 571 178 571 129 543 c 128,-1,28
 80 515 80 515 80 458.5 c 128,-1,29
 80 402 80 402 131 402 c 0,30,31
 178 402 178 402 178 466 c 1,32,-1
 303 466 l 1,33,0
 303 389 303 389 262 335.5 c 128,-1,1
632 918 m 1,34,-1
 504 760 l 1,35,-1
 420 810 l 1,36,-1
 521 993 l 1,37,-1
 632 918 l 1,34,-1
EndSplineSet
EndChar

StartChar: Thorn
Encoding: 222 222 159
Width: 601
GlyphClass: 2
Flags: W
LayerCount: 2
Fore
SplineSet
226 110 m 1,0,-1
 313 110 l 1,1,-1
 313 0 l 1,2,-1
 18 0 l 1,3,-1
 18 110 l 1,4,-1
 96 110 l 1,5,-1
 96 581 l 1,6,-1
 19 581 l 1,7,-1
 19 691 l 1,8,-1
 313 691 l 1,9,-1
 313 581 l 1,10,-1
 226 581 l 1,11,-1
 226 541 l 1,12,13
 326 548 326 548 336 548 c 0,14,15
 453 548 453 548 514 492 c 128,-1,16
 575 436 575 436 575 348.5 c 128,-1,17
 575 261 575 261 514 202 c 128,-1,18
 453 143 453 143 336 143 c 0,19,20
 269 143 269 143 226 145 c 1,21,-1
 226 110 l 1,0,-1
419.5 287 m 128,-1,23
 445 311 445 311 445 349.5 c 128,-1,24
 445 388 445 388 419.5 408 c 128,-1,25
 394 428 394 428 358 428 c 128,-1,26
 322 428 322 428 226 421 c 1,27,-1
 226 265 l 1,28,29
 267 263 267 263 351 263 c 0,30,22
 394 263 394 263 419.5 287 c 128,-1,23
EndSplineSet
EndChar

StartChar: germandbls
Encoding: 223 223 160
Width: 580
GlyphClass: 2
Flags: W
LayerCount: 2
Fore
SplineSet
264 133 m 1,0,1
 316 107 316 107 376.5 107 c 128,-1,2
 437 107 437 107 437 146 c 0,3,4
 437 172 437 172 409 200 c 128,-1,5
 381 228 381 228 348 248.5 c 128,-1,6
 315 269 315 269 287 299 c 128,-1,7
 259 329 259 329 259 361.5 c 128,-1,8
 259 394 259 394 285 428 c 128,-1,9
 311 462 311 462 337 492.5 c 128,-1,10
 363 523 363 523 363 546.5 c 128,-1,11
 363 570 363 570 348 585.5 c 128,-1,12
 333 601 333 601 297 601 c 128,-1,13
 261 601 261 601 243.5 575.5 c 128,-1,14
 226 550 226 550 226 512 c 2,15,-1
 226 0 l 1,16,-1
 19 0 l 1,17,-1
 19 110 l 1,18,-1
 96 110 l 1,19,-1
 96 342 l 1,20,-1
 25 342 l 1,21,-1
 25 450 l 1,22,-1
 96 450 l 1,23,-1
 96 511 l 2,24,25
 96 557 96 557 109.5 596.5 c 128,-1,26
 123 636 123 636 143 660 c 128,-1,27
 163 684 163 684 204.5 702.5 c 128,-1,28
 246 721 246 721 303 721 c 0,29,30
 400 721 400 721 446.5 667 c 128,-1,31
 493 613 493 613 493 549 c 0,32,33
 493 518 493 518 476.5 487.5 c 128,-1,34
 460 457 460 457 441 437.5 c 128,-1,35
 422 418 422 418 405.5 396 c 128,-1,36
 389 374 389 374 389 358 c 128,-1,37
 389 342 389 342 417 318 c 128,-1,38
 445 294 445 294 478 271.5 c 128,-1,39
 511 249 511 249 539 214 c 128,-1,40
 567 179 567 179 567 143 c 0,41,42
 567 77 567 77 518.5 32 c 128,-1,43
 470 -13 470 -13 384 -13 c 128,-1,44
 298 -13 298 -13 238 12 c 1,45,-1
 264 133 l 1,0,1
EndSplineSet
EndChar

StartChar: agrave
Encoding: 224 224 161
Width: 552
GlyphClass: 2
Flags: W
LayerCount: 2
Fore
SplineSet
182 -10 m 128,-1,1
 106 -10 106 -10 63 29 c 128,-1,2
 20 68 20 68 20 138.5 c 128,-1,3
 20 209 20 209 76 258 c 128,-1,4
 132 307 132 307 241 307 c 2,5,-1
 320 307 l 1,6,-1
 320 343 l 2,7,8
 320 390 320 390 261 390 c 128,-1,9
 202 390 202 390 156 377 c 1,10,-1
 156 320 l 1,11,-1
 41 320 l 1,12,-1
 41 469 l 1,13,14
 90 488 90 488 155.5 499 c 128,-1,15
 221 510 221 510 265 510 c 0,16,17
 352 510 352 510 401 464.5 c 128,-1,18
 450 419 450 419 450 343 c 2,19,-1
 450 105 l 1,20,-1
 532 105 l 1,21,-1
 532 18 l 1,22,23
 489 -5 489 -5 424 -5 c 0,24,25
 320 -5 320 -5 320 65 c 1,26,0
 258 -10 258 -10 182 -10 c 128,-1,1
191 110 m 0,27,28
 260 110 260 110 320 192 c 1,29,-1
 320 196 l 1,30,-1
 240 196 l 2,31,32
 194 196 194 196 172 180 c 128,-1,33
 150 164 150 164 150 137 c 128,-1,34
 150 110 150 110 191 110 c 0,27,28
252 560 m 1,35,-1
 124 718 l 1,36,-1
 235 793 l 1,37,-1
 336 610 l 1,38,-1
 252 560 l 1,35,-1
EndSplineSet
EndChar

StartChar: aacute
Encoding: 225 225 162
Width: 552
GlyphClass: 2
Flags: W
LayerCount: 2
Fore
SplineSet
182 -10 m 128,-1,1
 106 -10 106 -10 63 29 c 128,-1,2
 20 68 20 68 20 138.5 c 128,-1,3
 20 209 20 209 76 258 c 128,-1,4
 132 307 132 307 241 307 c 2,5,-1
 320 307 l 1,6,-1
 320 343 l 2,7,8
 320 390 320 390 261 390 c 128,-1,9
 202 390 202 390 156 377 c 1,10,-1
 156 320 l 1,11,-1
 41 320 l 1,12,-1
 41 469 l 1,13,14
 90 488 90 488 155.5 499 c 128,-1,15
 221 510 221 510 265 510 c 0,16,17
 352 510 352 510 401 464.5 c 128,-1,18
 450 419 450 419 450 343 c 2,19,-1
 450 105 l 1,20,-1
 532 105 l 1,21,-1
 532 18 l 1,22,23
 489 -5 489 -5 424 -5 c 0,24,25
 320 -5 320 -5 320 65 c 1,26,0
 258 -10 258 -10 182 -10 c 128,-1,1
191 110 m 0,27,28
 260 110 260 110 320 192 c 1,29,-1
 320 196 l 1,30,-1
 240 196 l 2,31,32
 194 196 194 196 172 180 c 128,-1,33
 150 164 150 164 150 137 c 128,-1,34
 150 110 150 110 191 110 c 0,27,28
414 718 m 1,35,-1
 286 560 l 1,36,-1
 202 610 l 1,37,-1
 303 793 l 1,38,-1
 414 718 l 1,35,-1
EndSplineSet
EndChar

StartChar: acircumflex
Encoding: 226 226 163
Width: 552
GlyphClass: 2
Flags: W
LayerCount: 2
Fore
SplineSet
182 -10 m 128,-1,1
 106 -10 106 -10 63 29 c 128,-1,2
 20 68 20 68 20 138.5 c 128,-1,3
 20 209 20 209 76 258 c 128,-1,4
 132 307 132 307 241 307 c 2,5,-1
 320 307 l 1,6,-1
 320 343 l 2,7,8
 320 390 320 390 261 390 c 128,-1,9
 202 390 202 390 156 377 c 1,10,-1
 156 320 l 1,11,-1
 41 320 l 1,12,-1
 41 469 l 1,13,14
 90 488 90 488 155.5 499 c 128,-1,15
 221 510 221 510 265 510 c 0,16,17
 352 510 352 510 401 464.5 c 128,-1,18
 450 419 450 419 450 343 c 2,19,-1
 450 105 l 1,20,-1
 532 105 l 1,21,-1
 532 18 l 1,22,23
 489 -5 489 -5 424 -5 c 0,24,25
 320 -5 320 -5 320 65 c 1,26,0
 258 -10 258 -10 182 -10 c 128,-1,1
191 110 m 0,27,28
 260 110 260 110 320 192 c 1,29,-1
 320 196 l 1,30,-1
 240 196 l 2,31,32
 194 196 194 196 172 180 c 128,-1,33
 150 164 150 164 150 137 c 128,-1,34
 150 110 150 110 191 110 c 0,27,28
83 600 m 1,35,-1
 213 747 l 1,36,-1
 295 747 l 1,37,-1
 425 600 l 1,38,-1
 363 550 l 1,39,-1
 254 640 l 1,40,-1
 145 550 l 1,41,-1
 83 600 l 1,35,-1
EndSplineSet
EndChar

StartChar: atilde
Encoding: 227 227 164
Width: 552
GlyphClass: 2
Flags: W
LayerCount: 2
Fore
SplineSet
182 -10 m 128,-1,1
 106 -10 106 -10 63 29 c 128,-1,2
 20 68 20 68 20 138.5 c 128,-1,3
 20 209 20 209 76 258 c 128,-1,4
 132 307 132 307 241 307 c 2,5,-1
 320 307 l 1,6,-1
 320 343 l 2,7,8
 320 390 320 390 261 390 c 128,-1,9
 202 390 202 390 156 377 c 1,10,-1
 156 320 l 1,11,-1
 41 320 l 1,12,-1
 41 469 l 1,13,14
 90 488 90 488 155.5 499 c 128,-1,15
 221 510 221 510 265 510 c 0,16,17
 352 510 352 510 401 464.5 c 128,-1,18
 450 419 450 419 450 343 c 2,19,-1
 450 105 l 1,20,-1
 532 105 l 1,21,-1
 532 18 l 1,22,23
 489 -5 489 -5 424 -5 c 0,24,25
 320 -5 320 -5 320 65 c 1,26,0
 258 -10 258 -10 182 -10 c 128,-1,1
191 110 m 0,27,28
 260 110 260 110 320 192 c 1,29,-1
 320 196 l 1,30,-1
 240 196 l 2,31,32
 194 196 194 196 172 180 c 128,-1,33
 150 164 150 164 150 137 c 128,-1,34
 150 110 150 110 191 110 c 0,27,28
315 668 m 1,35,-1
 378 710 l 1,36,-1
 433 667 l 1,37,38
 415 619 415 619 385.5 590.5 c 128,-1,39
 356 562 356 562 321.5 562 c 128,-1,40
 287 562 287 562 198 599 c 1,41,-1
 135 557 l 1,42,-1
 80 600 l 1,43,44
 98 648 98 648 127.5 676.5 c 128,-1,45
 157 705 157 705 195 705 c 0,46,47
 211 705 211 705 220.5 702 c 128,-1,48
 230 699 230 699 235.5 697.5 c 128,-1,49
 241 696 241 696 252.5 692 c 128,-1,50
 264 688 264 688 270 686 c 0,51,52
 285 679 285 679 315 668 c 1,35,-1
EndSplineSet
EndChar

StartChar: adieresis
Encoding: 228 228 165
Width: 552
GlyphClass: 2
Flags: W
LayerCount: 2
Fore
SplineSet
182 -10 m 128,-1,1
 106 -10 106 -10 63 29 c 128,-1,2
 20 68 20 68 20 138.5 c 128,-1,3
 20 209 20 209 76 258 c 128,-1,4
 132 307 132 307 241 307 c 2,5,-1
 320 307 l 1,6,-1
 320 343 l 2,7,8
 320 390 320 390 261 390 c 128,-1,9
 202 390 202 390 156 377 c 1,10,-1
 156 320 l 1,11,-1
 41 320 l 1,12,-1
 41 469 l 1,13,14
 90 488 90 488 155.5 499 c 128,-1,15
 221 510 221 510 265 510 c 0,16,17
 352 510 352 510 401 464.5 c 128,-1,18
 450 419 450 419 450 343 c 2,19,-1
 450 105 l 1,20,-1
 532 105 l 1,21,-1
 532 18 l 1,22,23
 489 -5 489 -5 424 -5 c 0,24,25
 320 -5 320 -5 320 65 c 1,26,0
 258 -10 258 -10 182 -10 c 128,-1,1
191 110 m 0,27,28
 260 110 260 110 320 192 c 1,29,-1
 320 196 l 1,30,-1
 240 196 l 2,31,32
 194 196 194 196 172 180 c 128,-1,33
 150 164 150 164 150 137 c 128,-1,34
 150 110 150 110 191 110 c 0,27,28
90.5 618.5 m 128,-1,36
 72 639 72 639 72 670 c 128,-1,37
 72 701 72 701 92.5 723 c 128,-1,38
 113 745 113 745 142.5 745 c 128,-1,39
 172 745 172 745 190.5 724 c 128,-1,40
 209 703 209 703 209 672.5 c 128,-1,41
 209 642 209 642 188.5 620 c 128,-1,42
 168 598 168 598 138.5 598 c 128,-1,35
 109 598 109 598 90.5 618.5 c 128,-1,36
313.5 618.5 m 128,-1,44
 295 639 295 639 295 670 c 128,-1,45
 295 701 295 701 315.5 723 c 128,-1,46
 336 745 336 745 365.5 745 c 128,-1,47
 395 745 395 745 413.5 724 c 128,-1,48
 432 703 432 703 432 672.5 c 128,-1,49
 432 642 432 642 411.5 620 c 128,-1,50
 391 598 391 598 361.5 598 c 128,-1,43
 332 598 332 598 313.5 618.5 c 128,-1,44
EndSplineSet
EndChar

StartChar: aring
Encoding: 229 229 166
Width: 552
GlyphClass: 2
Flags: W
LayerCount: 2
Fore
SplineSet
182 -10 m 128,-1,1
 106 -10 106 -10 63 29 c 128,-1,2
 20 68 20 68 20 138.5 c 128,-1,3
 20 209 20 209 76 258 c 128,-1,4
 132 307 132 307 241 307 c 2,5,-1
 320 307 l 1,6,-1
 320 343 l 2,7,8
 320 390 320 390 261 390 c 128,-1,9
 202 390 202 390 156 377 c 1,10,-1
 156 320 l 1,11,-1
 41 320 l 1,12,-1
 41 469 l 1,13,14
 90 488 90 488 155.5 499 c 128,-1,15
 221 510 221 510 265 510 c 0,16,17
 352 510 352 510 401 464.5 c 128,-1,18
 450 419 450 419 450 343 c 2,19,-1
 450 105 l 1,20,-1
 532 105 l 1,21,-1
 532 18 l 1,22,23
 489 -5 489 -5 424 -5 c 0,24,25
 320 -5 320 -5 320 65 c 1,26,0
 258 -10 258 -10 182 -10 c 128,-1,1
191 110 m 0,27,28
 260 110 260 110 320 192 c 1,29,-1
 320 196 l 1,30,-1
 240 196 l 2,31,32
 194 196 194 196 172 180 c 128,-1,33
 150 164 150 164 150 137 c 128,-1,34
 150 110 150 110 191 110 c 0,27,28
361.5 563.5 m 128,-1,36
 322 525 322 525 264.5 525 c 128,-1,37
 207 525 207 525 166.5 564.5 c 128,-1,38
 126 604 126 604 126 659 c 128,-1,39
 126 714 126 714 167 754.5 c 128,-1,40
 208 795 208 795 265 795 c 128,-1,41
 322 795 322 795 361.5 755 c 128,-1,42
 401 715 401 715 401 658.5 c 128,-1,35
 401 602 401 602 361.5 563.5 c 128,-1,36
265 710 m 128,-1,44
 243 710 243 710 229.5 695 c 128,-1,45
 216 680 216 680 216 659.5 c 128,-1,46
 216 639 216 639 229.5 624.5 c 128,-1,47
 243 610 243 610 265.5 610 c 128,-1,48
 288 610 288 610 301.5 624.5 c 128,-1,49
 315 639 315 639 315 659.5 c 128,-1,50
 315 680 315 680 301 695 c 128,-1,43
 287 710 287 710 265 710 c 128,-1,44
EndSplineSet
EndChar

StartChar: ae
Encoding: 230 230 167
Width: 839
GlyphClass: 2
Flags: W
LayerCount: 2
Fore
SplineSet
795 254 m 2,0,-1
 795 201 l 1,1,-1
 460 201 l 1,2,-1
 460 182 l 1,3,4
 468 149 468 149 497.5 129.5 c 128,-1,5
 527 110 527 110 565 110 c 128,-1,6
 603 110 603 110 631.5 116 c 128,-1,7
 660 122 660 122 671.5 127 c 128,-1,8
 683 132 683 132 706 145 c 2,9,-1
 730 158 l 1,10,-1
 782 57 l 1,11,12
 700 -10 700 -10 581 -10 c 128,-1,13
 462 -10 462 -10 396 59 c 1,14,15
 290 -10 290 -10 207 -10 c 128,-1,16
 124 -10 124 -10 77 29 c 128,-1,17
 30 68 30 68 30 138.5 c 128,-1,18
 30 209 30 209 86 258 c 128,-1,19
 142 307 142 307 251 307 c 2,20,-1
 330 307 l 1,21,-1
 330 343 l 2,22,23
 330 390 330 390 271 390 c 128,-1,24
 212 390 212 390 166 377 c 1,25,-1
 166 320 l 1,26,-1
 51 320 l 1,27,-1
 51 469 l 1,28,29
 100 488 100 488 165.5 499 c 128,-1,30
 231 510 231 510 275 510 c 0,31,32
 359 510 359 510 409 454 c 1,33,34
 473 510 473 510 576 510 c 128,-1,35
 679 510 679 510 737 438 c 128,-1,36
 795 366 795 366 795 254 c 2,0,-1
637.5 366 m 128,-1,38
 614 390 614 390 570.5 390 c 128,-1,39
 527 390 527 390 498.5 365.5 c 128,-1,40
 470 341 470 341 461 302 c 1,41,-1
 665 302 l 1,42,37
 661 342 661 342 637.5 366 c 128,-1,38
197 110 m 0,43,44
 236 110 236 110 274 126.5 c 128,-1,45
 312 143 312 143 330 170 c 1,46,-1
 330 196 l 1,47,-1
 231 196 l 2,48,49
 186 196 186 196 163.5 183 c 128,-1,50
 141 170 141 170 141 150 c 0,51,52
 141 110 141 110 197 110 c 0,43,44
EndSplineSet
EndChar

StartChar: ccedilla
Encoding: 231 231 168
Width: 495
GlyphClass: 2
Flags: W
LayerCount: 2
Fore
SplineSet
89 76 m 128,-1,1
 35 147 35 147 35 255 c 128,-1,2
 35 363 35 363 99.5 436.5 c 128,-1,3
 164 510 164 510 271.5 510 c 128,-1,4
 379 510 379 510 456 469 c 1,5,-1
 456 305 l 1,6,-1
 341 305 l 1,7,-1
 341 382 l 1,8,9
 314 390 314 390 280 390 c 0,10,11
 226 390 226 390 195.5 351 c 128,-1,12
 165 312 165 312 165 250 c 128,-1,13
 165 188 165 188 195.5 149 c 128,-1,14
 226 110 226 110 272.5 110 c 128,-1,15
 319 110 319 110 350.5 119 c 128,-1,16
 382 128 382 128 394.5 135.5 c 128,-1,17
 407 143 407 143 428 158 c 1,18,-1
 480 57 l 1,19,20
 437 19 437 19 371 2 c 1,21,-1
 332 -22 l 1,22,23
 405 -41 405 -41 405 -131 c 0,24,25
 405 -196 405 -196 365.5 -228 c 128,-1,26
 326 -260 326 -260 266 -260 c 128,-1,27
 206 -260 206 -260 157 -238 c 1,28,-1
 191 -145 l 1,29,30
 210 -155 210 -155 253.5 -155 c 128,-1,31
 297 -155 297 -155 297 -127 c 0,32,33
 297 -96 297 -96 259 -96 c 0,34,35
 238 -96 238 -96 220 -104 c 1,36,-1
 199 -35 l 1,37,-1
 241 -7 l 1,38,0
 143 5 143 5 89 76 c 128,-1,1
EndSplineSet
EndChar

StartChar: egrave
Encoding: 232 232 169
Width: 533
GlyphClass: 2
Flags: W
LayerCount: 2
Fore
SplineSet
503 254 m 2,0,-1
 503 201 l 1,1,-1
 165 201 l 1,2,3
 168 161 168 161 198.5 135.5 c 128,-1,4
 229 110 229 110 270 110 c 128,-1,5
 311 110 311 110 339.5 116 c 128,-1,6
 368 122 368 122 379.5 127 c 128,-1,7
 391 132 391 132 414 145 c 2,8,-1
 438 158 l 1,9,-1
 490 57 l 1,10,11
 408 -10 408 -10 286 -10 c 128,-1,12
 164 -10 164 -10 99.5 63.5 c 128,-1,13
 35 137 35 137 35 250 c 128,-1,14
 35 363 35 363 99.5 436.5 c 128,-1,15
 164 510 164 510 275.5 510 c 128,-1,16
 387 510 387 510 445 438 c 128,-1,17
 503 366 503 366 503 254 c 2,0,-1
345.5 366 m 128,-1,19
 322 390 322 390 278.5 390 c 128,-1,20
 235 390 235 390 206.5 365.5 c 128,-1,21
 178 341 178 341 169 302 c 1,22,-1
 373 302 l 1,23,18
 369 342 369 342 345.5 366 c 128,-1,19
296 560 m 1,24,-1
 168 718 l 1,25,-1
 279 793 l 1,26,-1
 380 610 l 1,27,-1
 296 560 l 1,24,-1
EndSplineSet
EndChar

StartChar: eacute
Encoding: 233 233 170
Width: 533
GlyphClass: 2
Flags: W
LayerCount: 2
Fore
SplineSet
503 254 m 2,0,-1
 503 201 l 1,1,-1
 165 201 l 1,2,3
 168 161 168 161 198.5 135.5 c 128,-1,4
 229 110 229 110 270 110 c 128,-1,5
 311 110 311 110 339.5 116 c 128,-1,6
 368 122 368 122 379.5 127 c 128,-1,7
 391 132 391 132 414 145 c 2,8,-1
 438 158 l 1,9,-1
 490 57 l 1,10,11
 408 -10 408 -10 286 -10 c 128,-1,12
 164 -10 164 -10 99.5 63.5 c 128,-1,13
 35 137 35 137 35 250 c 128,-1,14
 35 363 35 363 99.5 436.5 c 128,-1,15
 164 510 164 510 275.5 510 c 128,-1,16
 387 510 387 510 445 438 c 128,-1,17
 503 366 503 366 503 254 c 2,0,-1
345.5 366 m 128,-1,19
 322 390 322 390 278.5 390 c 128,-1,20
 235 390 235 390 206.5 365.5 c 128,-1,21
 178 341 178 341 169 302 c 1,22,-1
 373 302 l 1,23,18
 369 342 369 342 345.5 366 c 128,-1,19
427 718 m 1,24,-1
 299 560 l 1,25,-1
 215 610 l 1,26,-1
 316 793 l 1,27,-1
 427 718 l 1,24,-1
EndSplineSet
EndChar

StartChar: ecircumflex
Encoding: 234 234 171
Width: 533
GlyphClass: 2
Flags: W
LayerCount: 2
Fore
SplineSet
503 254 m 2,0,-1
 503 201 l 1,1,-1
 165 201 l 1,2,3
 168 161 168 161 198.5 135.5 c 128,-1,4
 229 110 229 110 270 110 c 128,-1,5
 311 110 311 110 339.5 116 c 128,-1,6
 368 122 368 122 379.5 127 c 128,-1,7
 391 132 391 132 414 145 c 2,8,-1
 438 158 l 1,9,-1
 490 57 l 1,10,11
 408 -10 408 -10 286 -10 c 128,-1,12
 164 -10 164 -10 99.5 63.5 c 128,-1,13
 35 137 35 137 35 250 c 128,-1,14
 35 363 35 363 99.5 436.5 c 128,-1,15
 164 510 164 510 275.5 510 c 128,-1,16
 387 510 387 510 445 438 c 128,-1,17
 503 366 503 366 503 254 c 2,0,-1
345.5 366 m 128,-1,19
 322 390 322 390 278.5 390 c 128,-1,20
 235 390 235 390 206.5 365.5 c 128,-1,21
 178 341 178 341 169 302 c 1,22,-1
 373 302 l 1,23,18
 369 342 369 342 345.5 366 c 128,-1,19
107 600 m 1,24,-1
 237 747 l 1,25,-1
 319 747 l 1,26,-1
 449 600 l 1,27,-1
 387 550 l 1,28,-1
 278 640 l 1,29,-1
 169 550 l 1,30,-1
 107 600 l 1,24,-1
EndSplineSet
EndChar

StartChar: edieresis
Encoding: 235 235 172
Width: 533
GlyphClass: 2
Flags: W
LayerCount: 2
Fore
SplineSet
503 254 m 2,0,-1
 503 201 l 1,1,-1
 165 201 l 1,2,3
 168 161 168 161 198.5 135.5 c 128,-1,4
 229 110 229 110 270 110 c 128,-1,5
 311 110 311 110 339.5 116 c 128,-1,6
 368 122 368 122 379.5 127 c 128,-1,7
 391 132 391 132 414 145 c 2,8,-1
 438 158 l 1,9,-1
 490 57 l 1,10,11
 408 -10 408 -10 286 -10 c 128,-1,12
 164 -10 164 -10 99.5 63.5 c 128,-1,13
 35 137 35 137 35 250 c 128,-1,14
 35 363 35 363 99.5 436.5 c 128,-1,15
 164 510 164 510 275.5 510 c 128,-1,16
 387 510 387 510 445 438 c 128,-1,17
 503 366 503 366 503 254 c 2,0,-1
345.5 366 m 128,-1,19
 322 390 322 390 278.5 390 c 128,-1,20
 235 390 235 390 206.5 365.5 c 128,-1,21
 178 341 178 341 169 302 c 1,22,-1
 373 302 l 1,23,18
 369 342 369 342 345.5 366 c 128,-1,19
114.5 607.5 m 128,-1,25
 96 628 96 628 96 659 c 128,-1,26
 96 690 96 690 116.5 712 c 128,-1,27
 137 734 137 734 166.5 734 c 128,-1,28
 196 734 196 734 214.5 713 c 128,-1,29
 233 692 233 692 233 661.5 c 128,-1,30
 233 631 233 631 212.5 609 c 128,-1,31
 192 587 192 587 162.5 587 c 128,-1,24
 133 587 133 587 114.5 607.5 c 128,-1,25
337.5 607.5 m 128,-1,33
 319 628 319 628 319 659 c 128,-1,34
 319 690 319 690 339.5 712 c 128,-1,35
 360 734 360 734 389.5 734 c 128,-1,36
 419 734 419 734 437.5 713 c 128,-1,37
 456 692 456 692 456 661.5 c 128,-1,38
 456 631 456 631 435.5 609 c 128,-1,39
 415 587 415 587 385.5 587 c 128,-1,32
 356 587 356 587 337.5 607.5 c 128,-1,33
EndSplineSet
EndChar

StartChar: igrave
Encoding: 236 236 173
Width: 360
GlyphClass: 2
Flags: W
LayerCount: 2
Fore
SplineSet
41 390 m 1,0,-1
 41 500 l 1,1,-1
 248 500 l 1,2,-1
 248 110 l 1,3,-1
 335 110 l 1,4,-1
 335 0 l 1,5,-1
 40 0 l 1,6,-1
 40 110 l 1,7,-1
 118 110 l 1,8,-1
 118 390 l 1,9,-1
 41 390 l 1,0,-1
158 560 m 1,10,-1
 30 718 l 1,11,-1
 141 793 l 1,12,-1
 242 610 l 1,13,-1
 158 560 l 1,10,-1
EndSplineSet
EndChar

StartChar: iacute
Encoding: 237 237 174
Width: 359
GlyphClass: 2
Flags: W
LayerCount: 2
Fore
SplineSet
41 390 m 1,0,-1
 41 500 l 1,1,-1
 248 500 l 1,2,-1
 248 110 l 1,3,-1
 335 110 l 1,4,-1
 335 0 l 1,5,-1
 40 0 l 1,6,-1
 40 110 l 1,7,-1
 118 110 l 1,8,-1
 118 390 l 1,9,-1
 41 390 l 1,0,-1
320 718 m 1,10,-1
 192 560 l 1,11,-1
 108 610 l 1,12,-1
 209 793 l 1,13,-1
 320 718 l 1,10,-1
EndSplineSet
EndChar

StartChar: icircumflex
Encoding: 238 238 175
Width: 362
GlyphClass: 2
Flags: W
LayerCount: 2
Fore
SplineSet
43 390 m 1,0,-1
 43 500 l 1,1,-1
 250 500 l 1,2,-1
 250 110 l 1,3,-1
 337 110 l 1,4,-1
 337 0 l 1,5,-1
 42 0 l 1,6,-1
 42 110 l 1,7,-1
 120 110 l 1,8,-1
 120 390 l 1,9,-1
 43 390 l 1,0,-1
-3 600 m 1,10,-1
 127 747 l 1,11,-1
 209 747 l 1,12,-1
 339 600 l 1,13,-1
 277 550 l 1,14,-1
 168 640 l 1,15,-1
 59 550 l 1,16,-1
 -3 600 l 1,10,-1
EndSplineSet
EndChar

StartChar: idieresis
Encoding: 239 239 176
Width: 361
GlyphClass: 2
Flags: W
LayerCount: 2
Fore
SplineSet
42 390 m 1,0,-1
 42 500 l 1,1,-1
 249 500 l 1,2,-1
 249 110 l 1,3,-1
 336 110 l 1,4,-1
 336 0 l 1,5,-1
 41 0 l 1,6,-1
 41 110 l 1,7,-1
 119 110 l 1,8,-1
 119 390 l 1,9,-1
 42 390 l 1,0,-1
6.5 618.5 m 128,-1,11
 -12 639 -12 639 -12 670 c 128,-1,12
 -12 701 -12 701 8.5 723 c 128,-1,13
 29 745 29 745 58.5 745 c 128,-1,14
 88 745 88 745 106.5 724 c 128,-1,15
 125 703 125 703 125 672.5 c 128,-1,16
 125 642 125 642 104.5 620 c 128,-1,17
 84 598 84 598 54.5 598 c 128,-1,10
 25 598 25 598 6.5 618.5 c 128,-1,11
229.5 618.5 m 128,-1,19
 211 639 211 639 211 670 c 128,-1,20
 211 701 211 701 231.5 723 c 128,-1,21
 252 745 252 745 281.5 745 c 128,-1,22
 311 745 311 745 329.5 724 c 128,-1,23
 348 703 348 703 348 672.5 c 128,-1,24
 348 642 348 642 327.5 620 c 128,-1,25
 307 598 307 598 277.5 598 c 128,-1,18
 248 598 248 598 229.5 618.5 c 128,-1,19
EndSplineSet
EndChar

StartChar: eth
Encoding: 240 240 177
Width: 537
GlyphClass: 2
Flags: W
LayerCount: 2
Fore
SplineSet
509 313 m 0,0,1
 509 177 509 177 453 96 c 128,-1,2
 397 15 397 15 279.5 15 c 128,-1,3
 162 15 162 15 102 81 c 128,-1,4
 42 147 42 147 42 250.5 c 128,-1,5
 42 354 42 354 113.5 412.5 c 128,-1,6
 185 471 185 471 310 471 c 0,7,8
 338 471 338 471 365 467 c 1,9,10
 355 512 355 512 315 552 c 1,11,-1
 256 498 l 1,12,-1
 187 570 l 1,13,-1
 233 611 l 1,14,15
 195 630 195 630 155 640 c 1,16,-1
 186 743 l 1,17,18
 264 724 264 724 321 691 c 1,19,-1
 385 749 l 1,20,-1
 453 677 l 1,21,-1
 399 628 l 1,22,23
 509 513 509 513 509 313 c 0,0,1
312 352 m 0,24,25
 173 352 173 352 173 242 c 0,26,27
 173 197 173 197 196.5 165.5 c 128,-1,28
 220 134 220 134 272 134 c 0,29,30
 380 134 380 134 380 288 c 0,31,32
 380 328 380 328 375 345 c 1,33,34
 341 352 341 352 312 352 c 0,24,25
EndSplineSet
EndChar

StartChar: ntilde
Encoding: 241 241 178
Width: 640
GlyphClass: 2
Flags: W
LayerCount: 2
Fore
SplineSet
227 110 m 1,0,-1
 314 110 l 1,1,-1
 314 0 l 1,2,-1
 20 0 l 1,3,-1
 20 110 l 1,4,-1
 97 110 l 1,5,-1
 97 390 l 1,6,-1
 20 390 l 1,7,-1
 20 500 l 1,8,-1
 197 500 l 1,9,-1
 212 451 l 1,10,11
 306 510 306 510 382 510 c 0,12,13
 476 510 476 510 512 455 c 128,-1,14
 548 400 548 400 548 303 c 2,15,-1
 548 105 l 1,16,-1
 630 105 l 1,17,-1
 630 18 l 1,18,19
 587 -5 587 -5 526 -5 c 128,-1,20
 465 -5 465 -5 441.5 22 c 128,-1,21
 418 49 418 49 418 110 c 2,22,-1
 418 303 l 2,23,24
 418 347 418 347 406 368.5 c 128,-1,25
 394 390 394 390 350 390 c 128,-1,26
 306 390 306 390 227 330 c 1,27,-1
 227 110 l 1,0,-1
384 668 m 1,28,-1
 447 710 l 1,29,-1
 502 667 l 1,30,31
 484 619 484 619 454.5 590.5 c 128,-1,32
 425 562 425 562 390.5 562 c 128,-1,33
 356 562 356 562 267 599 c 1,34,-1
 204 557 l 1,35,-1
 149 600 l 1,36,37
 167 648 167 648 196.5 676.5 c 128,-1,38
 226 705 226 705 264 705 c 0,39,40
 280 705 280 705 289.5 702 c 128,-1,41
 299 699 299 699 304.5 697.5 c 128,-1,42
 310 696 310 696 321.5 692 c 128,-1,43
 333 688 333 688 339 686 c 0,44,45
 354 679 354 679 384 668 c 1,28,-1
EndSplineSet
EndChar

StartChar: ograve
Encoding: 242 242 179
Width: 580
GlyphClass: 2
Flags: W
LayerCount: 2
Fore
SplineSet
35 250 m 128,-1,1
 35 363 35 363 102 436.5 c 128,-1,2
 169 510 169 510 290 510 c 128,-1,3
 411 510 411 510 478 436.5 c 128,-1,4
 545 363 545 363 545 250 c 128,-1,5
 545 137 545 137 478 63.5 c 128,-1,6
 411 -10 411 -10 290 -10 c 128,-1,7
 169 -10 169 -10 102 63.5 c 128,-1,0
 35 137 35 137 35 250 c 128,-1,1
165 250 m 128,-1,9
 165 189 165 189 198 149.5 c 128,-1,10
 231 110 231 110 290 110 c 128,-1,11
 349 110 349 110 382 149.5 c 128,-1,12
 415 189 415 189 415 250 c 128,-1,13
 415 311 415 311 382 350.5 c 128,-1,14
 349 390 349 390 290 390 c 128,-1,15
 231 390 231 390 198 350.5 c 128,-1,8
 165 311 165 311 165 250 c 128,-1,9
283 560 m 1,16,-1
 155 718 l 1,17,-1
 266 793 l 1,18,-1
 367 610 l 1,19,-1
 283 560 l 1,16,-1
EndSplineSet
EndChar

StartChar: oacute
Encoding: 243 243 180
Width: 580
GlyphClass: 2
Flags: W
LayerCount: 2
Fore
SplineSet
35 250 m 128,-1,1
 35 363 35 363 102 436.5 c 128,-1,2
 169 510 169 510 290 510 c 128,-1,3
 411 510 411 510 478 436.5 c 128,-1,4
 545 363 545 363 545 250 c 128,-1,5
 545 137 545 137 478 63.5 c 128,-1,6
 411 -10 411 -10 290 -10 c 128,-1,7
 169 -10 169 -10 102 63.5 c 128,-1,0
 35 137 35 137 35 250 c 128,-1,1
165 250 m 128,-1,9
 165 189 165 189 198 149.5 c 128,-1,10
 231 110 231 110 290 110 c 128,-1,11
 349 110 349 110 382 149.5 c 128,-1,12
 415 189 415 189 415 250 c 128,-1,13
 415 311 415 311 382 350.5 c 128,-1,14
 349 390 349 390 290 390 c 128,-1,15
 231 390 231 390 198 350.5 c 128,-1,8
 165 311 165 311 165 250 c 128,-1,9
452 718 m 1,16,-1
 324 560 l 1,17,-1
 240 610 l 1,18,-1
 341 793 l 1,19,-1
 452 718 l 1,16,-1
EndSplineSet
EndChar

StartChar: ocircumflex
Encoding: 244 244 181
Width: 580
GlyphClass: 2
Flags: W
LayerCount: 2
Fore
SplineSet
35 250 m 128,-1,1
 35 363 35 363 102 436.5 c 128,-1,2
 169 510 169 510 290 510 c 128,-1,3
 411 510 411 510 478 436.5 c 128,-1,4
 545 363 545 363 545 250 c 128,-1,5
 545 137 545 137 478 63.5 c 128,-1,6
 411 -10 411 -10 290 -10 c 128,-1,7
 169 -10 169 -10 102 63.5 c 128,-1,0
 35 137 35 137 35 250 c 128,-1,1
165 250 m 128,-1,9
 165 189 165 189 198 149.5 c 128,-1,10
 231 110 231 110 290 110 c 128,-1,11
 349 110 349 110 382 149.5 c 128,-1,12
 415 189 415 189 415 250 c 128,-1,13
 415 311 415 311 382 350.5 c 128,-1,14
 349 390 349 390 290 390 c 128,-1,15
 231 390 231 390 198 350.5 c 128,-1,8
 165 311 165 311 165 250 c 128,-1,9
119 600 m 1,16,-1
 249 747 l 1,17,-1
 331 747 l 1,18,-1
 461 600 l 1,19,-1
 399 550 l 1,20,-1
 290 640 l 1,21,-1
 181 550 l 1,22,-1
 119 600 l 1,16,-1
EndSplineSet
EndChar

StartChar: otilde
Encoding: 245 245 182
Width: 580
GlyphClass: 2
Flags: W
LayerCount: 2
Fore
SplineSet
35 250 m 128,-1,1
 35 363 35 363 102 436.5 c 128,-1,2
 169 510 169 510 290 510 c 128,-1,3
 411 510 411 510 478 436.5 c 128,-1,4
 545 363 545 363 545 250 c 128,-1,5
 545 137 545 137 478 63.5 c 128,-1,6
 411 -10 411 -10 290 -10 c 128,-1,7
 169 -10 169 -10 102 63.5 c 128,-1,0
 35 137 35 137 35 250 c 128,-1,1
165 250 m 128,-1,9
 165 189 165 189 198 149.5 c 128,-1,10
 231 110 231 110 290 110 c 128,-1,11
 349 110 349 110 382 149.5 c 128,-1,12
 415 189 415 189 415 250 c 128,-1,13
 415 311 415 311 382 350.5 c 128,-1,14
 349 390 349 390 290 390 c 128,-1,15
 231 390 231 390 198 350.5 c 128,-1,8
 165 311 165 311 165 250 c 128,-1,9
347 668 m 1,16,-1
 410 710 l 1,17,-1
 465 667 l 1,18,19
 447 619 447 619 417.5 590.5 c 128,-1,20
 388 562 388 562 353.5 562 c 128,-1,21
 319 562 319 562 230 599 c 1,22,-1
 167 557 l 1,23,-1
 112 600 l 1,24,25
 130 648 130 648 159.5 676.5 c 128,-1,26
 189 705 189 705 227 705 c 0,27,28
 243 705 243 705 252.5 702 c 128,-1,29
 262 699 262 699 267.5 697.5 c 128,-1,30
 273 696 273 696 284.5 692 c 128,-1,31
 296 688 296 688 302 686 c 0,32,33
 317 679 317 679 347 668 c 1,16,-1
EndSplineSet
EndChar

StartChar: odieresis
Encoding: 246 246 183
Width: 580
GlyphClass: 2
Flags: W
LayerCount: 2
Fore
SplineSet
35 250 m 128,-1,1
 35 363 35 363 102 436.5 c 128,-1,2
 169 510 169 510 290 510 c 128,-1,3
 411 510 411 510 478 436.5 c 128,-1,4
 545 363 545 363 545 250 c 128,-1,5
 545 137 545 137 478 63.5 c 128,-1,6
 411 -10 411 -10 290 -10 c 128,-1,7
 169 -10 169 -10 102 63.5 c 128,-1,0
 35 137 35 137 35 250 c 128,-1,1
165 250 m 128,-1,9
 165 189 165 189 198 149.5 c 128,-1,10
 231 110 231 110 290 110 c 128,-1,11
 349 110 349 110 382 149.5 c 128,-1,12
 415 189 415 189 415 250 c 128,-1,13
 415 311 415 311 382 350.5 c 128,-1,14
 349 390 349 390 290 390 c 128,-1,15
 231 390 231 390 198 350.5 c 128,-1,8
 165 311 165 311 165 250 c 128,-1,9
128.5 618.5 m 128,-1,17
 110 639 110 639 110 670 c 128,-1,18
 110 701 110 701 130.5 723 c 128,-1,19
 151 745 151 745 180.5 745 c 128,-1,20
 210 745 210 745 228.5 724 c 128,-1,21
 247 703 247 703 247 672.5 c 128,-1,22
 247 642 247 642 226.5 620 c 128,-1,23
 206 598 206 598 176.5 598 c 128,-1,16
 147 598 147 598 128.5 618.5 c 128,-1,17
351.5 618.5 m 128,-1,25
 333 639 333 639 333 670 c 128,-1,26
 333 701 333 701 353.5 723 c 128,-1,27
 374 745 374 745 403.5 745 c 128,-1,28
 433 745 433 745 451.5 724 c 128,-1,29
 470 703 470 703 470 672.5 c 128,-1,30
 470 642 470 642 449.5 620 c 128,-1,31
 429 598 429 598 399.5 598 c 128,-1,24
 370 598 370 598 351.5 618.5 c 128,-1,25
EndSplineSet
EndChar

StartChar: divide
Encoding: 247 247 184
Width: 430
GlyphClass: 2
Flags: W
LayerCount: 2
Fore
SplineSet
370 283 m 1,0,-1
 60 283 l 1,1,-1
 60 400 l 1,2,-1
 370 400 l 1,3,-1
 370 283 l 1,0,-1
168.5 114.5 m 128,-1,5
 147 136 147 136 147 166.5 c 128,-1,6
 147 197 147 197 168.5 218.5 c 128,-1,7
 190 240 190 240 220.5 240 c 128,-1,8
 251 240 251 240 272.5 218.5 c 128,-1,9
 294 197 294 197 294 166.5 c 128,-1,10
 294 136 294 136 272.5 114.5 c 128,-1,11
 251 93 251 93 220.5 93 c 128,-1,4
 190 93 190 93 168.5 114.5 c 128,-1,5
168.5 471.5 m 128,-1,13
 147 493 147 493 147 523.5 c 128,-1,14
 147 554 147 554 168.5 575.5 c 128,-1,15
 190 597 190 597 220.5 597 c 128,-1,16
 251 597 251 597 272.5 575.5 c 128,-1,17
 294 554 294 554 294 523.5 c 128,-1,18
 294 493 294 493 272.5 471.5 c 128,-1,19
 251 450 251 450 220.5 450 c 128,-1,12
 190 450 190 450 168.5 471.5 c 128,-1,13
EndSplineSet
EndChar

StartChar: oslash
Encoding: 248 248 185
Width: 623
GlyphClass: 2
Flags: W
LayerCount: 2
Fore
SplineSet
90 76 m 1,0,1
 35 144 35 144 35 253.5 c 128,-1,2
 35 363 35 363 102 436.5 c 128,-1,3
 169 510 169 510 290 510 c 0,4,5
 347 510 347 510 396 491 c 1,6,-1
 403 500 l 1,7,-1
 544 500 l 1,8,-1
 488 424 l 1,9,10
 545 355 545 355 545 246 c 128,-1,11
 545 137 545 137 478 63.5 c 128,-1,12
 411 -10 411 -10 290 -10 c 0,13,14
 234 -10 234 -10 181 10 c 1,15,-1
 174 0 l 1,16,-1
 34 0 l 1,17,-1
 90 76 l 1,0,1
415 250 m 0,18,19
 415 283 415 283 404 311 c 1,20,-1
 258 113 l 1,21,22
 273 110 273 110 290 110 c 0,23,24
 349 110 349 110 382 149.5 c 128,-1,25
 415 189 415 189 415 250 c 0,18,19
165 250 m 0,26,27
 165 217 165 217 174 190 c 1,28,-1
 319 387 l 1,29,30
 306 390 306 390 290 390 c 0,31,32
 231 390 231 390 198 350.5 c 128,-1,33
 165 311 165 311 165 250 c 0,26,27
EndSplineSet
EndChar

StartChar: ugrave
Encoding: 249 249 186
Width: 630
GlyphClass: 2
Flags: W
LayerCount: 2
Fore
SplineSet
253 -11 m 0,0,1
 159 -11 159 -11 123 44.5 c 128,-1,2
 87 100 87 100 87 197 c 2,3,-1
 87 395 l 1,4,-1
 10 395 l 1,5,-1
 10 500 l 1,6,-1
 217 500 l 1,7,-1
 217 197 l 2,8,9
 217 153 217 153 229.5 131 c 128,-1,10
 242 109 242 109 284 109 c 128,-1,11
 326 109 326 109 408 170 c 1,12,-1
 408 390 l 1,13,-1
 346 390 l 1,14,-1
 346 500 l 1,15,-1
 538 500 l 1,16,-1
 538 105 l 1,17,-1
 620 105 l 1,18,-1
 620 18 l 1,19,20
 577 -5 577 -5 507.5 -5 c 128,-1,21
 438 -5 438 -5 418 46 c 1,22,23
 326 -11 326 -11 253 -11 c 0,0,1
316 560 m 1,24,-1
 188 718 l 1,25,-1
 299 793 l 1,26,-1
 400 610 l 1,27,-1
 316 560 l 1,24,-1
EndSplineSet
EndChar

StartChar: uacute
Encoding: 250 250 187
Width: 630
GlyphClass: 2
Flags: W
LayerCount: 2
Fore
SplineSet
253 -11 m 0,0,1
 159 -11 159 -11 123 44.5 c 128,-1,2
 87 100 87 100 87 197 c 2,3,-1
 87 395 l 1,4,-1
 10 395 l 1,5,-1
 10 500 l 1,6,-1
 217 500 l 1,7,-1
 217 197 l 2,8,9
 217 153 217 153 229.5 131 c 128,-1,10
 242 109 242 109 284 109 c 128,-1,11
 326 109 326 109 408 170 c 1,12,-1
 408 390 l 1,13,-1
 346 390 l 1,14,-1
 346 500 l 1,15,-1
 538 500 l 1,16,-1
 538 105 l 1,17,-1
 620 105 l 1,18,-1
 620 18 l 1,19,20
 577 -5 577 -5 507.5 -5 c 128,-1,21
 438 -5 438 -5 418 46 c 1,22,23
 326 -11 326 -11 253 -11 c 0,0,1
458 718 m 1,24,-1
 330 560 l 1,25,-1
 246 610 l 1,26,-1
 347 793 l 1,27,-1
 458 718 l 1,24,-1
EndSplineSet
EndChar

StartChar: ucircumflex
Encoding: 251 251 188
Width: 630
GlyphClass: 2
Flags: W
LayerCount: 2
Fore
SplineSet
253 -11 m 0,0,1
 159 -11 159 -11 123 44.5 c 128,-1,2
 87 100 87 100 87 197 c 2,3,-1
 87 395 l 1,4,-1
 10 395 l 1,5,-1
 10 500 l 1,6,-1
 217 500 l 1,7,-1
 217 197 l 2,8,9
 217 153 217 153 229.5 131 c 128,-1,10
 242 109 242 109 284 109 c 128,-1,11
 326 109 326 109 408 170 c 1,12,-1
 408 390 l 1,13,-1
 346 390 l 1,14,-1
 346 500 l 1,15,-1
 538 500 l 1,16,-1
 538 105 l 1,17,-1
 620 105 l 1,18,-1
 620 18 l 1,19,20
 577 -5 577 -5 507.5 -5 c 128,-1,21
 438 -5 438 -5 418 46 c 1,22,23
 326 -11 326 -11 253 -11 c 0,0,1
140 600 m 1,24,-1
 270 747 l 1,25,-1
 352 747 l 1,26,-1
 482 600 l 1,27,-1
 420 550 l 1,28,-1
 311 640 l 1,29,-1
 202 550 l 1,30,-1
 140 600 l 1,24,-1
EndSplineSet
EndChar

StartChar: udieresis
Encoding: 252 252 189
Width: 630
GlyphClass: 2
Flags: W
LayerCount: 2
Fore
SplineSet
253 -11 m 0,0,1
 159 -11 159 -11 123 44.5 c 128,-1,2
 87 100 87 100 87 197 c 2,3,-1
 87 395 l 1,4,-1
 10 395 l 1,5,-1
 10 500 l 1,6,-1
 217 500 l 1,7,-1
 217 197 l 2,8,9
 217 153 217 153 229.5 131 c 128,-1,10
 242 109 242 109 284 109 c 128,-1,11
 326 109 326 109 408 170 c 1,12,-1
 408 390 l 1,13,-1
 346 390 l 1,14,-1
 346 500 l 1,15,-1
 538 500 l 1,16,-1
 538 105 l 1,17,-1
 620 105 l 1,18,-1
 620 18 l 1,19,20
 577 -5 577 -5 507.5 -5 c 128,-1,21
 438 -5 438 -5 418 46 c 1,22,23
 326 -11 326 -11 253 -11 c 0,0,1
156.5 618.5 m 128,-1,25
 138 639 138 639 138 670 c 128,-1,26
 138 701 138 701 158.5 723 c 128,-1,27
 179 745 179 745 208.5 745 c 128,-1,28
 238 745 238 745 256.5 724 c 128,-1,29
 275 703 275 703 275 672.5 c 128,-1,30
 275 642 275 642 254.5 620 c 128,-1,31
 234 598 234 598 204.5 598 c 128,-1,24
 175 598 175 598 156.5 618.5 c 128,-1,25
379.5 618.5 m 128,-1,33
 361 639 361 639 361 670 c 128,-1,34
 361 701 361 701 381.5 723 c 128,-1,35
 402 745 402 745 431.5 745 c 128,-1,36
 461 745 461 745 479.5 724 c 128,-1,37
 498 703 498 703 498 672.5 c 128,-1,38
 498 642 498 642 477.5 620 c 128,-1,39
 457 598 457 598 427.5 598 c 128,-1,32
 398 598 398 598 379.5 618.5 c 128,-1,33
EndSplineSet
EndChar

StartChar: yacute
Encoding: 253 253 190
Width: 549
GlyphClass: 2
Flags: W
LayerCount: 2
Fore
SplineSet
248 390 m 1,0,-1
 221 390 l 1,1,-1
 295 167 l 1,2,-1
 360 390 l 1,3,-1
 324 390 l 1,4,-1
 324 500 l 1,5,-1
 554 500 l 1,6,-1
 554 390 l 1,7,-1
 492 390 l 1,8,-1
 377 0 l 2,9,10
 311 -226 311 -226 135 -226 c 0,11,12
 81 -226 81 -226 20 -208 c 1,13,-1
 55 -82 l 1,14,15
 101 -95 101 -95 135 -95 c 0,16,17
 197 -95 197 -95 235 -15 c 1,18,-1
 71 390 l 1,19,-1
 10 390 l 1,20,-1
 10 500 l 1,21,-1
 248 500 l 1,22,-1
 248 390 l 1,0,-1
438 718 m 1,23,-1
 310 560 l 1,24,-1
 226 610 l 1,25,-1
 327 793 l 1,26,-1
 438 718 l 1,23,-1
EndSplineSet
EndChar

StartChar: thorn
Encoding: 254 254 191
Width: 582
GlyphClass: 2
Flags: W
LayerCount: 2
Fore
SplineSet
10 -215 m 1,0,-1
 10 -105 l 1,1,-1
 87 -105 l 1,2,-1
 87 590 l 1,3,-1
 10 590 l 1,4,-1
 10 700 l 1,5,-1
 217 700 l 1,6,-1
 217 445 l 1,7,8
 263 510 263 510 335 510 c 0,9,10
 437 510 437 510 492 437.5 c 128,-1,11
 547 365 547 365 547 251.5 c 128,-1,12
 547 138 547 138 487 64 c 128,-1,13
 427 -10 427 -10 316 -10 c 0,14,15
 270 -10 270 -10 217 10 c 1,16,-1
 217 -105 l 1,17,-1
 294 -105 l 1,18,-1
 294 -215 l 1,19,-1
 10 -215 l 1,0,-1
391.5 350 m 128,-1,21
 366 390 366 390 321 390 c 128,-1,22
 276 390 276 390 248 357 c 128,-1,23
 220 324 220 324 217 275 c 1,24,-1
 217 136 l 1,25,26
 251 110 251 110 300.5 110 c 128,-1,27
 350 110 350 110 383.5 147.5 c 128,-1,28
 417 185 417 185 417 247.5 c 128,-1,20
 417 310 417 310 391.5 350 c 128,-1,21
EndSplineSet
EndChar

StartChar: ydieresis
Encoding: 255 255 192
Width: 549
GlyphClass: 2
Flags: W
LayerCount: 2
Fore
SplineSet
248 390 m 1,0,-1
 221 390 l 1,1,-1
 295 167 l 1,2,-1
 360 390 l 1,3,-1
 324 390 l 1,4,-1
 324 500 l 1,5,-1
 554 500 l 1,6,-1
 554 390 l 1,7,-1
 492 390 l 1,8,-1
 377 0 l 2,9,10
 311 -226 311 -226 135 -226 c 0,11,12
 81 -226 81 -226 20 -208 c 1,13,-1
 55 -82 l 1,14,15
 101 -95 101 -95 135 -95 c 0,16,17
 197 -95 197 -95 235 -15 c 1,18,-1
 71 390 l 1,19,-1
 10 390 l 1,20,-1
 10 500 l 1,21,-1
 248 500 l 1,22,-1
 248 390 l 1,0,-1
136.5 618.5 m 128,-1,24
 118 639 118 639 118 670 c 128,-1,25
 118 701 118 701 138.5 723 c 128,-1,26
 159 745 159 745 188.5 745 c 128,-1,27
 218 745 218 745 236.5 724 c 128,-1,28
 255 703 255 703 255 672.5 c 128,-1,29
 255 642 255 642 234.5 620 c 128,-1,30
 214 598 214 598 184.5 598 c 128,-1,23
 155 598 155 598 136.5 618.5 c 128,-1,24
359.5 618.5 m 128,-1,32
 341 639 341 639 341 670 c 128,-1,33
 341 701 341 701 361.5 723 c 128,-1,34
 382 745 382 745 411.5 745 c 128,-1,35
 441 745 441 745 459.5 724 c 128,-1,36
 478 703 478 703 478 672.5 c 128,-1,37
 478 642 478 642 457.5 620 c 128,-1,38
 437 598 437 598 407.5 598 c 128,-1,31
 378 598 378 598 359.5 618.5 c 128,-1,32
EndSplineSet
EndChar

StartChar: Abreve
Encoding: 258 258 193
Width: 852
GlyphClass: 2
Flags: W
LayerCount: 2
Fore
SplineSet
262 335 m 128,-1,1
 221 282 221 282 131 282 c 128,-1,2
 41 282 41 282 -2 333 c 128,-1,3
 -45 384 -45 384 -45 456 c 0,4,5
 -45 570 -45 570 58.5 635 c 128,-1,6
 162 700 162 700 389 700 c 2,7,-1
 663 700 l 1,8,-1
 663 580 l 1,9,-1
 604 580 l 1,10,-1
 786 120 l 1,11,-1
 852 120 l 1,12,-1
 852 0 l 1,13,-1
 595 0 l 1,14,-1
 595 120 l 1,15,-1
 654 120 l 1,16,-1
 633 176 l 1,17,-1
 371 176 l 1,18,-1
 350 120 l 1,19,-1
 410 120 l 1,20,-1
 410 0 l 1,21,-1
 153 0 l 1,22,-1
 153 120 l 1,23,-1
 218 120 l 1,24,-1
 399 580 l 1,25,-1
 389 580 l 2,26,27
 163 580 163 580 108 528 c 0,28,29
 80 501 80 501 80 456 c 0,30,31
 80 402 80 402 131 402 c 0,32,33
 178 402 178 402 178 466 c 1,34,-1
 303 466 l 1,35,0
 303 388 303 388 262 335 c 128,-1,1
502 524 m 1,36,-1
 412 286 l 1,37,-1
 591 286 l 1,38,-1
 502 524 l 1,36,-1
500 858 m 128,-1,40
 563 858 563 858 629 924 c 1,41,-1
 688 864 l 1,42,43
 601 750 601 750 500 750 c 128,-1,44
 399 750 399 750 312 864 c 1,45,-1
 371 924 l 1,46,39
 437 858 437 858 500 858 c 128,-1,40
EndSplineSet
EndChar

StartChar: abreve
Encoding: 259 259 194
Width: 552
GlyphClass: 2
Flags: W
LayerCount: 2
Fore
SplineSet
182 -10 m 128,-1,1
 106 -10 106 -10 63 29 c 128,-1,2
 20 68 20 68 20 138.5 c 128,-1,3
 20 209 20 209 76 258 c 128,-1,4
 132 307 132 307 241 307 c 2,5,-1
 320 307 l 1,6,-1
 320 343 l 2,7,8
 320 390 320 390 261 390 c 128,-1,9
 202 390 202 390 156 377 c 1,10,-1
 156 320 l 1,11,-1
 41 320 l 1,12,-1
 41 469 l 1,13,14
 90 488 90 488 155.5 499 c 128,-1,15
 221 510 221 510 265 510 c 0,16,17
 352 510 352 510 401 464.5 c 128,-1,18
 450 419 450 419 450 343 c 2,19,-1
 450 105 l 1,20,-1
 532 105 l 1,21,-1
 532 18 l 1,22,23
 489 -5 489 -5 424 -5 c 0,24,25
 320 -5 320 -5 320 65 c 1,26,0
 258 -10 258 -10 182 -10 c 128,-1,1
191 110 m 0,27,28
 260 110 260 110 320 192 c 1,29,-1
 320 196 l 1,30,-1
 240 196 l 2,31,32
 194 196 194 196 172 180 c 128,-1,33
 150 164 150 164 150 137 c 128,-1,34
 150 110 150 110 191 110 c 0,27,28
249 658 m 128,-1,36
 312 658 312 658 378 724 c 1,37,-1
 437 664 l 1,38,39
 350 550 350 550 249 550 c 128,-1,40
 148 550 148 550 61 664 c 1,41,-1
 120 724 l 1,42,35
 186 658 186 658 249 658 c 128,-1,36
EndSplineSet
EndChar

StartChar: Cacute
Encoding: 262 262 195
Width: 645
GlyphClass: 2
Flags: W
LayerCount: 2
Fore
SplineSet
569 372 m 128,-1,1
 526 321 526 321 436 321 c 128,-1,2
 346 321 346 321 305 374.5 c 128,-1,3
 264 428 264 428 264 505 c 1,4,-1
 389 505 l 1,5,6
 389 441 389 441 436 441 c 0,7,8
 472 441 472 441 472 495 c 0,9,10
 472 535 472 535 441 560 c 128,-1,11
 410 585 410 585 370 585 c 0,12,13
 279 585 279 585 224.5 518.5 c 128,-1,14
 170 452 170 452 170 350 c 128,-1,15
 170 248 170 248 224.5 181.5 c 128,-1,16
 279 115 279 115 376 115 c 128,-1,17
 473 115 473 115 555 201 c 1,18,-1
 631 106 l 1,19,20
 538 -10 538 -10 376.5 -10 c 128,-1,21
 215 -10 215 -10 125 89.5 c 128,-1,22
 35 189 35 189 35 348 c 128,-1,23
 35 507 35 507 125 608.5 c 128,-1,24
 215 710 215 710 370 710 c 0,25,26
 467 710 467 710 539.5 650 c 128,-1,27
 612 590 612 590 612 495 c 0,28,0
 612 423 612 423 569 372 c 128,-1,1
523 918 m 1,29,-1
 395 760 l 1,30,-1
 311 810 l 1,31,-1
 412 993 l 1,32,-1
 523 918 l 1,29,-1
EndSplineSet
EndChar

StartChar: cacute
Encoding: 263 263 196
Width: 495
GlyphClass: 2
Flags: W
LayerCount: 2
Fore
SplineSet
480 57 m 1,0,1
 402 -10 402 -10 283 -10 c 128,-1,2
 164 -10 164 -10 99.5 63.5 c 128,-1,3
 35 137 35 137 35 250 c 128,-1,4
 35 363 35 363 99.5 436.5 c 128,-1,5
 164 510 164 510 271.5 510 c 128,-1,6
 379 510 379 510 456 469 c 1,7,-1
 456 305 l 1,8,-1
 341 305 l 1,9,-1
 341 382 l 1,10,11
 314 390 314 390 280 390 c 0,12,13
 226 390 226 390 195.5 351 c 128,-1,14
 165 312 165 312 165 250 c 128,-1,15
 165 188 165 188 195.5 149 c 128,-1,16
 226 110 226 110 272.5 110 c 128,-1,17
 319 110 319 110 350.5 119 c 128,-1,18
 382 128 382 128 394.5 135.5 c 128,-1,19
 407 143 407 143 428 158 c 1,20,-1
 480 57 l 1,0,1
433 718 m 1,21,-1
 305 560 l 1,22,-1
 221 610 l 1,23,-1
 322 793 l 1,24,-1
 433 718 l 1,21,-1
EndSplineSet
EndChar

StartChar: ccircumflex
Encoding: 265 265 197
Width: 495
GlyphClass: 2
Flags: W
LayerCount: 2
Fore
SplineSet
480 57 m 1,0,1
 402 -10 402 -10 283 -10 c 128,-1,2
 164 -10 164 -10 99.5 63.5 c 128,-1,3
 35 137 35 137 35 250 c 128,-1,4
 35 363 35 363 99.5 436.5 c 128,-1,5
 164 510 164 510 271.5 510 c 128,-1,6
 379 510 379 510 456 469 c 1,7,-1
 456 305 l 1,8,-1
 341 305 l 1,9,-1
 341 382 l 1,10,11
 314 390 314 390 280 390 c 0,12,13
 226 390 226 390 195.5 351 c 128,-1,14
 165 312 165 312 165 250 c 128,-1,15
 165 188 165 188 195.5 149 c 128,-1,16
 226 110 226 110 272.5 110 c 128,-1,17
 319 110 319 110 350.5 119 c 128,-1,18
 382 128 382 128 394.5 135.5 c 128,-1,19
 407 143 407 143 428 158 c 1,20,-1
 480 57 l 1,0,1
102 600 m 1,21,-1
 232 747 l 1,22,-1
 314 747 l 1,23,-1
 444 600 l 1,24,-1
 382 550 l 1,25,-1
 273 640 l 1,26,-1
 164 550 l 1,27,-1
 102 600 l 1,21,-1
EndSplineSet
EndChar

StartChar: Ccaron
Encoding: 268 268 198
Width: 645
GlyphClass: 2
Flags: W
LayerCount: 2
Fore
SplineSet
569 372 m 128,-1,1
 526 321 526 321 436 321 c 128,-1,2
 346 321 346 321 305 374.5 c 128,-1,3
 264 428 264 428 264 505 c 1,4,-1
 389 505 l 1,5,6
 389 441 389 441 436 441 c 0,7,8
 472 441 472 441 472 495 c 0,9,10
 472 535 472 535 441 560 c 128,-1,11
 410 585 410 585 370 585 c 0,12,13
 279 585 279 585 224.5 518.5 c 128,-1,14
 170 452 170 452 170 350 c 128,-1,15
 170 248 170 248 224.5 181.5 c 128,-1,16
 279 115 279 115 376 115 c 128,-1,17
 473 115 473 115 555 201 c 1,18,-1
 631 106 l 1,19,20
 538 -10 538 -10 376.5 -10 c 128,-1,21
 215 -10 215 -10 125 89.5 c 128,-1,22
 35 189 35 189 35 348 c 128,-1,23
 35 507 35 507 125 608.5 c 128,-1,24
 215 710 215 710 370 710 c 0,25,26
 467 710 467 710 539.5 650 c 128,-1,27
 612 590 612 590 612 495 c 0,28,0
 612 423 612 423 569 372 c 128,-1,1
322 750 m 1,29,-1
 192 897 l 1,30,-1
 254 947 l 1,31,-1
 363 857 l 1,32,-1
 472 947 l 1,33,-1
 534 897 l 1,34,-1
 404 750 l 1,35,-1
 322 750 l 1,29,-1
EndSplineSet
EndChar

StartChar: ccaron
Encoding: 269 269 199
Width: 495
GlyphClass: 2
Flags: W
LayerCount: 2
Fore
SplineSet
480 57 m 1,0,1
 402 -10 402 -10 283 -10 c 128,-1,2
 164 -10 164 -10 99.5 63.5 c 128,-1,3
 35 137 35 137 35 250 c 128,-1,4
 35 363 35 363 99.5 436.5 c 128,-1,5
 164 510 164 510 271.5 510 c 128,-1,6
 379 510 379 510 456 469 c 1,7,-1
 456 305 l 1,8,-1
 341 305 l 1,9,-1
 341 382 l 1,10,11
 314 390 314 390 280 390 c 0,12,13
 226 390 226 390 195.5 351 c 128,-1,14
 165 312 165 312 165 250 c 128,-1,15
 165 188 165 188 195.5 149 c 128,-1,16
 226 110 226 110 272.5 110 c 128,-1,17
 319 110 319 110 350.5 119 c 128,-1,18
 382 128 382 128 394.5 135.5 c 128,-1,19
 407 143 407 143 428 158 c 1,20,-1
 480 57 l 1,0,1
232 550 m 1,21,-1
 102 697 l 1,22,-1
 164 747 l 1,23,-1
 273 657 l 1,24,-1
 382 747 l 1,25,-1
 444 697 l 1,26,-1
 314 550 l 1,27,-1
 232 550 l 1,21,-1
EndSplineSet
EndChar

StartChar: Dcaron
Encoding: 270 270 200
Width: 926
GlyphClass: 2
Flags: W
LayerCount: 2
Fore
SplineSet
349 0 m 1,0,-1
 246 0 l 1,1,-1
 246 120 l 1,2,-1
 334 120 l 1,3,-1
 334 579 l 1,4,5
 192 575 192 575 136 546.5 c 128,-1,6
 80 518 80 518 80 460 c 128,-1,7
 80 402 80 402 131 402 c 0,8,9
 178 402 178 402 178 466 c 1,10,-1
 303 466 l 1,11,12
 303 389 303 389 262 335.5 c 128,-1,13
 221 282 221 282 131 282 c 128,-1,14
 41 282 41 282 -2 333 c 128,-1,15
 -45 384 -45 384 -45 456 c 0,16,17
 -45 570 -45 570 58.5 635 c 128,-1,18
 162 700 162 700 389 700 c 2,19,-1
 434 700 l 2,20,21
 647 700 647 700 759.5 597.5 c 128,-1,22
 872 495 872 495 872 320 c 0,23,24
 872 211 872 211 830 133 c 0,25,26
 751 -10 751 -10 554 -10 c 1,27,-1
 349 0 l 1,0,-1
643.5 128.5 m 128,-1,29
 681 147 681 147 700 178 c 0,30,31
 737 237 737 237 737 320 c 0,32,33
 737 444 737 444 667.5 512 c 128,-1,34
 598 580 598 580 464 580 c 1,35,-1
 464 116 l 1,36,37
 532 110 532 110 569 110 c 128,-1,28
 606 110 606 110 643.5 128.5 c 128,-1,29
375 750 m 1,38,-1
 245 897 l 1,39,-1
 307 947 l 1,40,-1
 416 857 l 1,41,-1
 525 947 l 1,42,-1
 587 897 l 1,43,-1
 457 750 l 1,44,-1
 375 750 l 1,38,-1
EndSplineSet
EndChar

StartChar: ebreve
Encoding: 277 277 201
Width: 533
GlyphClass: 2
Flags: W
LayerCount: 2
Fore
SplineSet
503 254 m 2,0,-1
 503 201 l 1,1,-1
 165 201 l 1,2,3
 168 161 168 161 198.5 135.5 c 128,-1,4
 229 110 229 110 270 110 c 128,-1,5
 311 110 311 110 339.5 116 c 128,-1,6
 368 122 368 122 379.5 127 c 128,-1,7
 391 132 391 132 414 145 c 2,8,-1
 438 158 l 1,9,-1
 490 57 l 1,10,11
 408 -10 408 -10 286 -10 c 128,-1,12
 164 -10 164 -10 99.5 63.5 c 128,-1,13
 35 137 35 137 35 250 c 128,-1,14
 35 363 35 363 99.5 436.5 c 128,-1,15
 164 510 164 510 275.5 510 c 128,-1,16
 387 510 387 510 445 438 c 128,-1,17
 503 366 503 366 503 254 c 2,0,-1
345.5 366 m 128,-1,19
 322 390 322 390 278.5 390 c 128,-1,20
 235 390 235 390 206.5 365.5 c 128,-1,21
 178 341 178 341 169 302 c 1,22,-1
 373 302 l 1,23,18
 369 342 369 342 345.5 366 c 128,-1,19
285 658 m 128,-1,25
 348 658 348 658 414 724 c 1,26,-1
 473 664 l 1,27,28
 386 550 386 550 285 550 c 128,-1,29
 184 550 184 550 97 664 c 1,30,-1
 156 724 l 1,31,24
 222 658 222 658 285 658 c 128,-1,25
EndSplineSet
EndChar

StartChar: Ecaron
Encoding: 282 282 202
Width: 840
GlyphClass: 2
Flags: W
LayerCount: 2
Fore
SplineSet
262 335.5 m 128,-1,1
 221 282 221 282 131 282 c 128,-1,2
 41 282 41 282 -2 333 c 128,-1,3
 -45 384 -45 384 -45 456 c 0,4,5
 -45 570 -45 570 58.5 635 c 128,-1,6
 162 700 162 700 389 700 c 2,7,-1
 799 700 l 1,8,-1
 799 495 l 1,9,-1
 684 495 l 1,10,-1
 684 580 l 1,11,-1
 464 580 l 1,12,-1
 464 406 l 1,13,-1
 542 406 l 1,14,-1
 542 466 l 1,15,-1
 657 466 l 1,16,-1
 657 226 l 1,17,-1
 542 226 l 1,18,-1
 542 286 l 1,19,-1
 464 286 l 1,20,-1
 464 120 l 1,21,-1
 693 120 l 1,22,-1
 693 205 l 1,23,-1
 808 205 l 1,24,-1
 808 0 l 1,25,-1
 237 0 l 1,26,-1
 237 120 l 1,27,-1
 334 120 l 1,28,-1
 334 579 l 1,29,30
 192 575 192 575 136 546.5 c 128,-1,31
 80 518 80 518 80 460 c 128,-1,32
 80 402 80 402 131 402 c 0,33,34
 178 402 178 402 178 466 c 1,35,-1
 303 466 l 1,36,0
 303 389 303 389 262 335.5 c 128,-1,1
460 750 m 1,37,-1
 330 897 l 1,38,-1
 392 947 l 1,39,-1
 501 857 l 1,40,-1
 610 947 l 1,41,-1
 672 897 l 1,42,-1
 542 750 l 1,43,-1
 460 750 l 1,37,-1
EndSplineSet
EndChar

StartChar: ecaron
Encoding: 283 283 203
Width: 533
GlyphClass: 2
Flags: W
LayerCount: 2
Fore
SplineSet
503 254 m 2,0,-1
 503 201 l 1,1,-1
 165 201 l 1,2,3
 168 161 168 161 198.5 135.5 c 128,-1,4
 229 110 229 110 270 110 c 128,-1,5
 311 110 311 110 339.5 116 c 128,-1,6
 368 122 368 122 379.5 127 c 128,-1,7
 391 132 391 132 414 145 c 2,8,-1
 438 158 l 1,9,-1
 490 57 l 1,10,11
 408 -10 408 -10 286 -10 c 128,-1,12
 164 -10 164 -10 99.5 63.5 c 128,-1,13
 35 137 35 137 35 250 c 128,-1,14
 35 363 35 363 99.5 436.5 c 128,-1,15
 164 510 164 510 275.5 510 c 128,-1,16
 387 510 387 510 445 438 c 128,-1,17
 503 366 503 366 503 254 c 2,0,-1
345.5 366 m 128,-1,19
 322 390 322 390 278.5 390 c 128,-1,20
 235 390 235 390 206.5 365.5 c 128,-1,21
 178 341 178 341 169 302 c 1,22,-1
 373 302 l 1,23,18
 369 342 369 342 345.5 366 c 128,-1,19
237 550 m 1,24,-1
 107 697 l 1,25,-1
 169 747 l 1,26,-1
 278 657 l 1,27,-1
 387 747 l 1,28,-1
 449 697 l 1,29,-1
 319 550 l 1,30,-1
 237 550 l 1,24,-1
EndSplineSet
EndChar

StartChar: hbar
Encoding: 295 295 204
Width: 650
GlyphClass: 2
Flags: W
LayerCount: 2
Fore
SplineSet
20 481 m 1,0,-1
 20 590 l 1,1,-1
 107 590 l 1,2,-1
 107 640 l 1,3,-1
 30 640 l 1,4,-1
 30 750 l 1,5,-1
 237 750 l 1,6,-1
 237 466 l 1,7,8
 323 510 323 510 392 510 c 0,9,10
 486 510 486 510 522 455 c 128,-1,11
 558 400 558 400 558 303 c 2,12,-1
 558 105 l 1,13,-1
 640 105 l 1,14,-1
 640 18 l 1,15,16
 597 -5 597 -5 536 -5 c 128,-1,17
 475 -5 475 -5 451.5 22 c 128,-1,18
 428 49 428 49 428 110 c 2,19,-1
 428 303 l 2,20,21
 428 347 428 347 416 368.5 c 128,-1,22
 404 390 404 390 360 390 c 128,-1,23
 316 390 316 390 237 330 c 1,24,-1
 237 110 l 1,25,-1
 324 110 l 1,26,-1
 324 0 l 1,27,-1
 30 0 l 1,28,-1
 30 110 l 1,29,-1
 107 110 l 1,30,-1
 107 481 l 1,31,-1
 20 481 l 1,0,-1
EndSplineSet
EndChar

StartChar: Itilde
Encoding: 296 296 205
Width: 587
GlyphClass: 2
Flags: W
LayerCount: 2
Fore
SplineSet
262 335.5 m 128,-1,1
 221 282 221 282 131 282 c 128,-1,2
 41 282 41 282 -2 333 c 128,-1,3
 -45 384 -45 384 -45 456 c 0,4,5
 -45 570 -45 570 58.5 635 c 128,-1,6
 162 700 162 700 389 700 c 2,7,-1
 561 700 l 1,8,-1
 561 580 l 1,9,-1
 464 580 l 1,10,-1
 464 120 l 1,11,-1
 561 120 l 1,12,-1
 561 0 l 1,13,-1
 246 0 l 1,14,-1
 246 120 l 1,15,-1
 334 120 l 1,16,-1
 334 579 l 1,17,18
 192 575 192 575 136 546.5 c 128,-1,19
 80 518 80 518 80 460 c 128,-1,20
 80 402 80 402 131 402 c 0,21,22
 178 402 178 402 178 466 c 1,23,-1
 303 466 l 1,24,0
 303 389 303 389 262 335.5 c 128,-1,1
457 868 m 1,25,-1
 520 910 l 1,26,-1
 575 867 l 1,27,28
 557 819 557 819 527.5 790.5 c 128,-1,29
 498 762 498 762 463.5 762 c 128,-1,30
 429 762 429 762 340 799 c 1,31,-1
 277 757 l 1,32,-1
 222 800 l 1,33,34
 240 848 240 848 269.5 876.5 c 128,-1,35
 299 905 299 905 337 905 c 0,36,37
 353 905 353 905 362.5 902 c 128,-1,38
 372 899 372 899 377.5 897.5 c 128,-1,39
 383 896 383 896 394.5 892 c 128,-1,40
 406 888 406 888 412 886 c 0,41,42
 427 879 427 879 457 868 c 1,25,-1
EndSplineSet
EndChar

StartChar: itilde
Encoding: 297 297 206
Width: 360
GlyphClass: 2
Flags: W
LayerCount: 2
Fore
SplineSet
41 390 m 1,0,-1
 41 500 l 1,1,-1
 248 500 l 1,2,-1
 248 110 l 1,3,-1
 335 110 l 1,4,-1
 335 0 l 1,5,-1
 40 0 l 1,6,-1
 40 110 l 1,7,-1
 118 110 l 1,8,-1
 118 390 l 1,9,-1
 41 390 l 1,0,-1
226 668 m 1,10,-1
 289 710 l 1,11,-1
 344 667 l 1,12,13
 326 619 326 619 296.5 590.5 c 128,-1,14
 267 562 267 562 232.5 562 c 128,-1,15
 198 562 198 562 109 599 c 1,16,-1
 46 557 l 1,17,-1
 -9 600 l 1,18,19
 9 648 9 648 38.5 676.5 c 128,-1,20
 68 705 68 705 106 705 c 0,21,22
 122 705 122 705 131.5 702 c 128,-1,23
 141 699 141 699 146.5 697.5 c 128,-1,24
 152 696 152 696 163.5 692 c 128,-1,25
 175 688 175 688 181 686 c 0,26,27
 196 679 196 679 226 668 c 1,10,-1
EndSplineSet
EndChar

StartChar: dotlessi
Encoding: 305 305 207
Width: 360
GlyphClass: 2
Flags: W
LayerCount: 2
Fore
SplineSet
41 390 m 1,0,-1
 41 500 l 1,1,-1
 248 500 l 1,2,-1
 248 110 l 1,3,-1
 335 110 l 1,4,-1
 335 0 l 1,5,-1
 40 0 l 1,6,-1
 40 110 l 1,7,-1
 118 110 l 1,8,-1
 118 390 l 1,9,-1
 41 390 l 1,0,-1
EndSplineSet
EndChar

StartChar: IJ
Encoding: 306 306 208
Width: 924
GlyphClass: 2
Flags: W
LayerCount: 2
Fore
SplineSet
262 335.5 m 128,-1,1
 221 282 221 282 131 282 c 128,-1,2
 41 282 41 282 -2 333 c 128,-1,3
 -45 384 -45 384 -45 456 c 0,4,5
 -45 570 -45 570 58.5 635 c 128,-1,6
 162 700 162 700 389 700 c 2,7,-1
 900 700 l 1,8,-1
 900 580 l 1,9,-1
 803 580 l 1,10,-1
 803 100 l 2,11,12
 803 -21 803 -21 737 -90.5 c 128,-1,13
 671 -160 671 -160 544 -160 c 1,14,-1
 544 -45 l 1,15,16
 606 -45 606 -45 639.5 -7 c 128,-1,17
 673 31 673 31 673 100 c 2,18,-1
 673 580 l 1,19,-1
 464 580 l 1,20,-1
 464 120 l 1,21,-1
 561 120 l 1,22,-1
 561 0 l 1,23,-1
 246 0 l 1,24,-1
 246 120 l 1,25,-1
 334 120 l 1,26,-1
 334 579 l 1,27,28
 192 575 192 575 136 546.5 c 128,-1,29
 80 518 80 518 80 460 c 128,-1,30
 80 402 80 402 131 402 c 0,31,32
 178 402 178 402 178 466 c 1,33,-1
 303 466 l 1,34,0
 303 389 303 389 262 335.5 c 128,-1,1
EndSplineSet
EndChar

StartChar: ij
Encoding: 307 307 209
Width: 589
GlyphClass: 2
Flags: W
LayerCount: 2
Fore
SplineSet
41 390 m 1,0,-1
 41 500 l 1,1,-1
 248 500 l 1,2,-1
 248 110 l 1,3,-1
 335 110 l 1,4,-1
 335 0 l 1,5,-1
 40 0 l 1,6,-1
 40 110 l 1,7,-1
 118 110 l 1,8,-1
 118 390 l 1,9,-1
 41 390 l 1,0,-1
132.5 571 m 128,-1,11
 113 593 113 593 113 624 c 128,-1,12
 113 655 113 655 134 677.5 c 128,-1,13
 155 700 155 700 186.5 700 c 128,-1,14
 218 700 218 700 237 678 c 128,-1,15
 256 656 256 656 256 625 c 128,-1,16
 256 594 256 594 235 571.5 c 128,-1,17
 214 549 214 549 183 549 c 128,-1,10
 152 549 152 549 132.5 571 c 128,-1,11
307 390 m 1,18,-1
 307 500 l 1,19,-1
 514 500 l 1,20,-1
 514 25 l 2,21,22
 514 -88 514 -88 453.5 -156.5 c 128,-1,23
 393 -225 393 -225 263 -225 c 1,24,-1
 263 -106 l 1,25,26
 326 -106 326 -106 355 -73.5 c 128,-1,27
 384 -41 384 -41 384 25 c 2,28,-1
 384 390 l 1,29,-1
 307 390 l 1,18,-1
398.5 571 m 128,-1,31
 379 593 379 593 379 624 c 128,-1,32
 379 655 379 655 400 677.5 c 128,-1,33
 421 700 421 700 452.5 700 c 128,-1,34
 484 700 484 700 503 678 c 128,-1,35
 522 656 522 656 522 625 c 128,-1,36
 522 594 522 594 501 571.5 c 128,-1,37
 480 549 480 549 449 549 c 128,-1,30
 418 549 418 549 398.5 571 c 128,-1,31
EndSplineSet
EndChar

StartChar: Jcircumflex
Encoding: 308 308 210
Width: 582
GlyphClass: 2
Flags: W
LayerCount: 2
Fore
SplineSet
464 580 m 1,0,-1
 464 100 l 2,1,2
 464 -21 464 -21 398 -90.5 c 128,-1,3
 332 -160 332 -160 205 -160 c 1,4,-1
 205 -45 l 1,5,6
 267 -45 267 -45 300.5 -7 c 128,-1,7
 334 31 334 31 334 100 c 2,8,-1
 334 579 l 1,9,10
 192 575 192 575 136 546.5 c 128,-1,11
 80 518 80 518 80 460 c 128,-1,12
 80 402 80 402 131 402 c 0,13,14
 178 402 178 402 178 466 c 1,15,-1
 303 466 l 1,16,17
 303 389 303 389 262 335.5 c 128,-1,18
 221 282 221 282 131 282 c 128,-1,19
 41 282 41 282 -2 333 c 128,-1,20
 -45 384 -45 384 -45 456 c 0,21,22
 -45 570 -45 570 58.5 635 c 128,-1,23
 162 700 162 700 389 700 c 2,24,-1
 561 700 l 1,25,-1
 561 580 l 1,26,-1
 464 580 l 1,0,-1
244 795 m 1,27,-1
 374 942 l 1,28,-1
 456 942 l 1,29,-1
 586 795 l 1,30,-1
 524 745 l 1,31,-1
 415 835 l 1,32,-1
 306 745 l 1,33,-1
 244 795 l 1,27,-1
EndSplineSet
EndChar

StartChar: jcircumflex
Encoding: 309 309 211
Width: 323
GlyphClass: 2
Flags: W
LayerCount: 2
Fore
SplineSet
41 390 m 1,0,-1
 41 500 l 1,1,-1
 248 500 l 1,2,-1
 248 25 l 2,3,4
 248 -88 248 -88 187.5 -156.5 c 128,-1,5
 127 -225 127 -225 -3 -225 c 1,6,-1
 -3 -106 l 1,7,8
 60 -106 60 -106 89 -73.5 c 128,-1,9
 118 -41 118 -41 118 25 c 2,10,-1
 118 390 l 1,11,-1
 41 390 l 1,0,-1
-9 594 m 1,12,-1
 121 741 l 1,13,-1
 203 741 l 1,14,-1
 333 594 l 1,15,-1
 271 544 l 1,16,-1
 162 634 l 1,17,-1
 53 544 l 1,18,-1
 -9 594 l 1,12,-1
EndSplineSet
EndChar

StartChar: kcommaaccent
Encoding: 311 311 212
Width: 567
GlyphClass: 2
Flags: W
LayerCount: 2
Fore
SplineSet
209 -151 m 128,-1,1
 196 -129 196 -129 196 -104.5 c 128,-1,2
 196 -80 196 -80 217 -60.5 c 128,-1,3
 238 -41 238 -41 269.5 -41 c 128,-1,4
 301 -41 301 -41 323 -61.5 c 128,-1,5
 345 -82 345 -82 345 -119 c 128,-1,6
 345 -156 345 -156 326.5 -205.5 c 128,-1,7
 308 -255 308 -255 278 -297 c 1,8,-1
 216 -262 l 1,9,10
 243 -214 243 -214 246 -182 c 1,11,0
 222 -173 222 -173 209 -151 c 128,-1,1
11 640 m 1,12,-1
 11 750 l 1,13,-1
 218 750 l 1,14,-1
 218 311 l 1,15,-1
 253 324 l 1,16,-1
 320 390 l 1,17,-1
 286 390 l 1,18,-1
 286 500 l 1,19,-1
 546 500 l 1,20,-1
 546 390 l 1,21,-1
 490 390 l 1,22,-1
 362 263 l 1,23,-1
 491 105 l 1,24,-1
 567 105 l 1,25,-1
 567 18 l 1,26,27
 545 5 545 5 528 0 c 128,-1,28
 511 -5 511 -5 473 -5 c 128,-1,29
 435 -5 435 -5 411 8.5 c 128,-1,30
 387 22 387 22 366 50 c 2,31,-1
 250 202 l 1,32,-1
 218 189 l 1,33,-1
 218 110 l 1,34,-1
 285 110 l 1,35,-1
 285 0 l 1,36,-1
 10 0 l 1,37,-1
 10 110 l 1,38,-1
 88 110 l 1,39,-1
 88 640 l 1,40,-1
 11 640 l 1,12,-1
EndSplineSet
EndChar

StartChar: kgreenlandic
Encoding: 312 312 213
Width: 567
GlyphClass: 2
Flags: W
LayerCount: 2
Fore
SplineSet
11 390 m 1,0,-1
 11 500 l 1,1,-1
 218 500 l 1,2,-1
 218 311 l 1,3,-1
 253 324 l 1,4,-1
 320 390 l 1,5,-1
 286 390 l 1,6,-1
 286 500 l 1,7,-1
 546 500 l 1,8,-1
 546 390 l 1,9,-1
 490 390 l 1,10,-1
 362 263 l 1,11,-1
 491 105 l 1,12,-1
 567 105 l 1,13,-1
 567 18 l 1,14,15
 545 5 545 5 528 0 c 128,-1,16
 511 -5 511 -5 473 -5 c 128,-1,17
 435 -5 435 -5 411 8.5 c 128,-1,18
 387 22 387 22 366 50 c 2,19,-1
 250 202 l 1,20,-1
 218 189 l 1,21,-1
 218 110 l 1,22,-1
 285 110 l 1,23,-1
 285 0 l 1,24,-1
 10 0 l 1,25,-1
 10 110 l 1,26,-1
 88 110 l 1,27,-1
 88 390 l 1,28,-1
 11 390 l 1,0,-1
225 -151 m 128,-1,30
 212 -129 212 -129 212 -104.5 c 128,-1,31
 212 -80 212 -80 233 -60.5 c 128,-1,32
 254 -41 254 -41 285.5 -41 c 128,-1,33
 317 -41 317 -41 339 -61.5 c 128,-1,34
 361 -82 361 -82 361 -119 c 128,-1,35
 361 -156 361 -156 342.5 -205.5 c 128,-1,36
 324 -255 324 -255 294 -297 c 1,37,-1
 232 -262 l 1,38,39
 259 -214 259 -214 262 -182 c 1,40,29
 238 -173 238 -173 225 -151 c 128,-1,30
EndSplineSet
EndChar

StartChar: Lacute
Encoding: 313 313 214
Width: 824
GlyphClass: 2
Flags: W
LayerCount: 2
Fore
SplineSet
262 335.5 m 128,-1,1
 221 282 221 282 131 282 c 128,-1,2
 41 282 41 282 -2 333 c 128,-1,3
 -45 384 -45 384 -45 456 c 0,4,5
 -45 570 -45 570 58.5 635 c 128,-1,6
 162 700 162 700 389 700 c 2,7,-1
 536 700 l 1,8,-1
 536 580 l 1,9,-1
 464 580 l 1,10,-1
 464 120 l 1,11,-1
 683 120 l 1,12,-1
 683 205 l 1,13,-1
 798 205 l 1,14,-1
 798 0 l 1,15,-1
 237 0 l 1,16,-1
 237 120 l 1,17,-1
 334 120 l 1,18,-1
 334 579 l 1,19,20
 192 575 192 575 136 546.5 c 128,-1,21
 80 518 80 518 80 460 c 128,-1,22
 80 402 80 402 131 402 c 0,23,24
 178 402 178 402 178 466 c 1,25,-1
 303 466 l 1,26,0
 303 389 303 389 262 335.5 c 128,-1,1
524 918 m 1,27,-1
 396 760 l 1,28,-1
 312 810 l 1,29,-1
 413 993 l 1,30,-1
 524 918 l 1,27,-1
EndSplineSet
EndChar

StartChar: lacute
Encoding: 314 314 215
Width: 340
GlyphClass: 2
Flags: W
LayerCount: 2
Fore
SplineSet
21 640 m 1,0,-1
 21 750 l 1,1,-1
 228 750 l 1,2,-1
 228 110 l 1,3,-1
 315 110 l 1,4,-1
 315 0 l 1,5,-1
 20 0 l 1,6,-1
 20 110 l 1,7,-1
 98 110 l 1,8,-1
 98 640 l 1,9,-1
 21 640 l 1,0,-1
313 950 m 1,10,-1
 185 792 l 1,11,-1
 101 842 l 1,12,-1
 202 1025 l 1,13,-1
 313 950 l 1,10,-1
EndSplineSet
EndChar

StartChar: Ldotaccent
Encoding: 319 319 216
Width: 824
GlyphClass: 2
Flags: W
LayerCount: 2
Fore
SplineSet
547.5 319.5 m 128,-1,1
 526 341 526 341 526 371.5 c 128,-1,2
 526 402 526 402 547.5 423.5 c 128,-1,3
 569 445 569 445 599.5 445 c 128,-1,4
 630 445 630 445 651.5 423.5 c 128,-1,5
 673 402 673 402 673 371.5 c 128,-1,6
 673 341 673 341 651.5 319.5 c 128,-1,7
 630 298 630 298 599.5 298 c 128,-1,0
 569 298 569 298 547.5 319.5 c 128,-1,1
262 335.5 m 128,-1,9
 221 282 221 282 131 282 c 128,-1,10
 41 282 41 282 -2 333 c 128,-1,11
 -45 384 -45 384 -45 456 c 0,12,13
 -45 570 -45 570 58.5 635 c 128,-1,14
 162 700 162 700 389 700 c 2,15,-1
 536 700 l 1,16,-1
 536 580 l 1,17,-1
 464 580 l 1,18,-1
 464 120 l 1,19,-1
 683 120 l 1,20,-1
 683 205 l 1,21,-1
 798 205 l 1,22,-1
 798 0 l 1,23,-1
 237 0 l 1,24,-1
 237 120 l 1,25,-1
 334 120 l 1,26,-1
 334 579 l 1,27,28
 192 575 192 575 136 546.5 c 128,-1,29
 80 518 80 518 80 460 c 128,-1,30
 80 402 80 402 131 402 c 0,31,32
 178 402 178 402 178 466 c 1,33,-1
 303 466 l 1,34,8
 303 389 303 389 262 335.5 c 128,-1,9
EndSplineSet
EndChar

StartChar: ldot
Encoding: 320 320 217
Width: 419
GlyphClass: 2
Flags: W
LayerCount: 2
Fore
SplineSet
21 640 m 1,0,-1
 21 750 l 1,1,-1
 228 750 l 1,2,-1
 228 110 l 1,3,-1
 315 110 l 1,4,-1
 315 0 l 1,5,-1
 20 0 l 1,6,-1
 20 110 l 1,7,-1
 98 110 l 1,8,-1
 98 640 l 1,9,-1
 21 640 l 1,0,-1
296.5 329.5 m 128,-1,11
 275 351 275 351 275 381.5 c 128,-1,12
 275 412 275 412 296.5 433.5 c 128,-1,13
 318 455 318 455 348.5 455 c 128,-1,14
 379 455 379 455 400.5 433.5 c 128,-1,15
 422 412 422 412 422 381.5 c 128,-1,16
 422 351 422 351 400.5 329.5 c 128,-1,17
 379 308 379 308 348.5 308 c 128,-1,10
 318 308 318 308 296.5 329.5 c 128,-1,11
EndSplineSet
EndChar

StartChar: Lslash
Encoding: 321 321 218
Width: 824
GlyphClass: 2
Flags: W
LayerCount: 2
Fore
SplineSet
262 335.5 m 128,-1,1
 221 282 221 282 131 282 c 128,-1,2
 41 282 41 282 -2 333 c 128,-1,3
 -45 384 -45 384 -45 456 c 0,4,5
 -45 570 -45 570 58.5 635 c 128,-1,6
 162 700 162 700 389 700 c 2,7,-1
 536 700 l 1,8,-1
 536 580 l 1,9,-1
 464 580 l 1,10,-1
 464 382 l 1,11,-1
 549 417 l 1,12,-1
 596 310 l 1,13,-1
 464 255 l 1,14,-1
 464 120 l 1,15,-1
 683 120 l 1,16,-1
 683 205 l 1,17,-1
 798 205 l 1,18,-1
 798 0 l 1,19,-1
 237 0 l 1,20,-1
 237 120 l 1,21,-1
 334 120 l 1,22,-1
 334 202 l 1,23,-1
 278 179 l 1,24,-1
 231 286 l 1,25,-1
 334 328 l 1,26,-1
 334 579 l 1,27,28
 192 575 192 575 136 546.5 c 128,-1,29
 80 518 80 518 80 460 c 128,-1,30
 80 402 80 402 131 402 c 0,31,32
 178 402 178 402 178 466 c 1,33,-1
 303 466 l 1,34,0
 303 389 303 389 262 335.5 c 128,-1,1
EndSplineSet
EndChar

StartChar: lslash
Encoding: 322 322 219
Width: 355
GlyphClass: 2
Flags: W
LayerCount: 2
Fore
SplineSet
36 640 m 1,0,-1
 36 750 l 1,1,-1
 243 750 l 1,2,-1
 243 433 l 1,3,-1
 279 445 l 1,4,-1
 315 340 l 1,5,-1
 243 317 l 1,6,-1
 243 110 l 1,7,-1
 330 110 l 1,8,-1
 330 0 l 1,9,-1
 35 0 l 1,10,-1
 35 110 l 1,11,-1
 113 110 l 1,12,-1
 113 276 l 1,13,-1
 55 258 l 1,14,-1
 19 363 l 1,15,-1
 113 392 l 1,16,-1
 113 640 l 1,17,-1
 36 640 l 1,0,-1
EndSplineSet
EndChar

StartChar: Nacute
Encoding: 323 323 220
Width: 994
GlyphClass: 2
Flags: W
LayerCount: 2
Fore
SplineSet
262 335.5 m 128,-1,1
 221 282 221 282 131 282 c 128,-1,2
 41 282 41 282 -2 333 c 128,-1,3
 -45 384 -45 384 -45 456 c 0,4,5
 -45 570 -45 570 58.5 635 c 128,-1,6
 162 700 162 700 389 700 c 2,7,-1
 466 700 l 1,8,-1
 757 233 l 1,9,-1
 757 580 l 1,10,-1
 670 580 l 1,11,-1
 670 700 l 1,12,-1
 984 700 l 1,13,-1
 984 580 l 1,14,-1
 887 580 l 1,15,-1
 887 0 l 1,16,-1
 764 0 l 1,17,-1
 464 479 l 1,18,-1
 464 120 l 1,19,-1
 551 120 l 1,20,-1
 551 0 l 1,21,-1
 237 0 l 1,22,-1
 237 120 l 1,23,-1
 334 120 l 1,24,-1
 334 579 l 1,25,26
 192 575 192 575 136 546.5 c 128,-1,27
 80 518 80 518 80 460 c 128,-1,28
 80 402 80 402 131 402 c 0,29,30
 178 402 178 402 178 466 c 1,31,-1
 303 466 l 1,32,0
 303 389 303 389 262 335.5 c 128,-1,1
720 918 m 1,33,-1
 592 760 l 1,34,-1
 508 810 l 1,35,-1
 609 993 l 1,36,-1
 720 918 l 1,33,-1
EndSplineSet
EndChar

StartChar: nacute
Encoding: 324 324 221
Width: 640
GlyphClass: 2
Flags: W
LayerCount: 2
Fore
SplineSet
227 110 m 1,0,-1
 314 110 l 1,1,-1
 314 0 l 1,2,-1
 20 0 l 1,3,-1
 20 110 l 1,4,-1
 97 110 l 1,5,-1
 97 390 l 1,6,-1
 20 390 l 1,7,-1
 20 500 l 1,8,-1
 197 500 l 1,9,-1
 212 451 l 1,10,11
 306 510 306 510 382 510 c 0,12,13
 476 510 476 510 512 455 c 128,-1,14
 548 400 548 400 548 303 c 2,15,-1
 548 105 l 1,16,-1
 630 105 l 1,17,-1
 630 18 l 1,18,19
 587 -5 587 -5 526 -5 c 128,-1,20
 465 -5 465 -5 441.5 22 c 128,-1,21
 418 49 418 49 418 110 c 2,22,-1
 418 303 l 2,23,24
 418 347 418 347 406 368.5 c 128,-1,25
 394 390 394 390 350 390 c 128,-1,26
 306 390 306 390 227 330 c 1,27,-1
 227 110 l 1,0,-1
439 718 m 1,28,-1
 311 560 l 1,29,-1
 227 610 l 1,30,-1
 328 793 l 1,31,-1
 439 718 l 1,28,-1
EndSplineSet
EndChar

StartChar: Ncaron
Encoding: 327 327 222
Width: 994
GlyphClass: 2
Flags: W
LayerCount: 2
Fore
SplineSet
262 335.5 m 128,-1,1
 221 282 221 282 131 282 c 128,-1,2
 41 282 41 282 -2 333 c 128,-1,3
 -45 384 -45 384 -45 456 c 0,4,5
 -45 570 -45 570 58.5 635 c 128,-1,6
 162 700 162 700 389 700 c 2,7,-1
 466 700 l 1,8,-1
 757 233 l 1,9,-1
 757 580 l 1,10,-1
 670 580 l 1,11,-1
 670 700 l 1,12,-1
 984 700 l 1,13,-1
 984 580 l 1,14,-1
 887 580 l 1,15,-1
 887 0 l 1,16,-1
 764 0 l 1,17,-1
 464 479 l 1,18,-1
 464 120 l 1,19,-1
 551 120 l 1,20,-1
 551 0 l 1,21,-1
 237 0 l 1,22,-1
 237 120 l 1,23,-1
 334 120 l 1,24,-1
 334 579 l 1,25,26
 192 575 192 575 136 546.5 c 128,-1,27
 80 518 80 518 80 460 c 128,-1,28
 80 402 80 402 131 402 c 0,29,30
 178 402 178 402 178 466 c 1,31,-1
 303 466 l 1,32,0
 303 389 303 389 262 335.5 c 128,-1,1
564 750 m 1,33,-1
 434 897 l 1,34,-1
 496 947 l 1,35,-1
 605 857 l 1,36,-1
 714 947 l 1,37,-1
 776 897 l 1,38,-1
 646 750 l 1,39,-1
 564 750 l 1,33,-1
EndSplineSet
EndChar

StartChar: ncaron
Encoding: 328 328 223
Width: 640
GlyphClass: 2
Flags: W
LayerCount: 2
Fore
SplineSet
227 110 m 1,0,-1
 314 110 l 1,1,-1
 314 0 l 1,2,-1
 20 0 l 1,3,-1
 20 110 l 1,4,-1
 97 110 l 1,5,-1
 97 390 l 1,6,-1
 20 390 l 1,7,-1
 20 500 l 1,8,-1
 197 500 l 1,9,-1
 212 451 l 1,10,11
 306 510 306 510 382 510 c 0,12,13
 476 510 476 510 512 455 c 128,-1,14
 548 400 548 400 548 303 c 2,15,-1
 548 105 l 1,16,-1
 630 105 l 1,17,-1
 630 18 l 1,18,19
 587 -5 587 -5 526 -5 c 128,-1,20
 465 -5 465 -5 441.5 22 c 128,-1,21
 418 49 418 49 418 110 c 2,22,-1
 418 303 l 2,23,24
 418 347 418 347 406 368.5 c 128,-1,25
 394 390 394 390 350 390 c 128,-1,26
 306 390 306 390 227 330 c 1,27,-1
 227 110 l 1,0,-1
267 550 m 1,28,-1
 137 697 l 1,29,-1
 199 747 l 1,30,-1
 308 657 l 1,31,-1
 417 747 l 1,32,-1
 479 697 l 1,33,-1
 349 550 l 1,34,-1
 267 550 l 1,28,-1
EndSplineSet
EndChar

StartChar: obreve
Encoding: 335 335 224
Width: 580
GlyphClass: 2
Flags: W
LayerCount: 2
Fore
SplineSet
35 250 m 128,-1,1
 35 363 35 363 102 436.5 c 128,-1,2
 169 510 169 510 290 510 c 128,-1,3
 411 510 411 510 478 436.5 c 128,-1,4
 545 363 545 363 545 250 c 128,-1,5
 545 137 545 137 478 63.5 c 128,-1,6
 411 -10 411 -10 290 -10 c 128,-1,7
 169 -10 169 -10 102 63.5 c 128,-1,0
 35 137 35 137 35 250 c 128,-1,1
165 250 m 128,-1,9
 165 189 165 189 198 149.5 c 128,-1,10
 231 110 231 110 290 110 c 128,-1,11
 349 110 349 110 382 149.5 c 128,-1,12
 415 189 415 189 415 250 c 128,-1,13
 415 311 415 311 382 350.5 c 128,-1,14
 349 390 349 390 290 390 c 128,-1,15
 231 390 231 390 198 350.5 c 128,-1,8
 165 311 165 311 165 250 c 128,-1,9
290 658 m 128,-1,17
 353 658 353 658 419 724 c 1,18,-1
 478 664 l 1,19,20
 391 550 391 550 290 550 c 128,-1,21
 189 550 189 550 102 664 c 1,22,-1
 161 724 l 1,23,16
 227 658 227 658 290 658 c 128,-1,17
EndSplineSet
EndChar

StartChar: OE
Encoding: 338 338 225
Width: 996
GlyphClass: 2
Flags: W
LayerCount: 2
Fore
SplineSet
490 50 m 1,0,1
 408 -10 408 -10 290 -10 c 0,2,3
 135 -10 135 -10 45 91.5 c 128,-1,4
 -45 193 -45 193 -45 350 c 128,-1,5
 -45 507 -45 507 46 608.5 c 128,-1,6
 137 710 137 710 290 710 c 0,7,8
 407 710 407 710 490 649 c 1,9,-1
 490 700 l 1,10,-1
 955 700 l 1,11,-1
 955 495 l 1,12,-1
 840 495 l 1,13,-1
 840 580 l 1,14,-1
 620 580 l 1,15,-1
 620 419 l 1,16,-1
 622 406 l 1,17,-1
 698 406 l 1,18,-1
 698 466 l 1,19,-1
 813 466 l 1,20,-1
 813 226 l 1,21,-1
 698 226 l 1,22,-1
 698 286 l 1,23,-1
 621 286 l 1,24,25
 620 284 620 284 620 280 c 2,26,-1
 620 120 l 1,27,-1
 849 120 l 1,28,-1
 849 205 l 1,29,-1
 964 205 l 1,30,-1
 964 0 l 1,31,-1
 490 0 l 1,32,-1
 490 50 l 1,0,1
223 321 m 0,33,34
 182 321 182 321 147 347 c 128,-1,35
 112 373 112 373 95 404 c 1,36,37
 90 392 90 392 90 350 c 0,38,39
 90 246 90 246 144.5 178 c 128,-1,40
 199 110 199 110 290 110 c 128,-1,41
 381 110 381 110 435.5 178 c 128,-1,42
 490 246 490 246 490 350 c 2,43,-1
 490 362 l 1,44,45
 489 404 489 404 476 443 c 0,46,47
 454 508 454 508 405.5 546.5 c 128,-1,48
 357 585 357 585 290 585 c 0,49,50
 250 585 250 585 219 560 c 128,-1,51
 188 535 188 535 188 495 c 0,52,53
 188 441 188 441 224 441 c 0,54,55
 271 441 271 441 271 505 c 1,56,-1
 396 505 l 1,57,58
 396 427 396 427 355 374 c 128,-1,59
 314 321 314 321 223 321 c 0,33,34
EndSplineSet
EndChar

StartChar: oe
Encoding: 339 339 226
Width: 928
GlyphClass: 2
Flags: W
LayerCount: 2
Fore
SplineSet
898 254 m 2,0,-1
 898 201 l 1,1,-1
 560 201 l 1,2,3
 563 161 563 161 593.5 135.5 c 128,-1,4
 624 110 624 110 665 110 c 128,-1,5
 706 110 706 110 734.5 116 c 128,-1,6
 763 122 763 122 774.5 127 c 128,-1,7
 786 132 786 132 810 145 c 2,8,-1
 833 158 l 1,9,-1
 885 57 l 1,10,11
 803 -10 803 -10 678 -10 c 128,-1,12
 553 -10 553 -10 486 73 c 1,13,14
 416 -10 416 -10 292.5 -10 c 128,-1,15
 169 -10 169 -10 102 63.5 c 128,-1,16
 35 137 35 137 35 250 c 128,-1,17
 35 363 35 363 102 436.5 c 128,-1,18
 169 510 169 510 292.5 510 c 128,-1,19
 416 510 416 510 486 427 c 1,20,21
 553 510 553 510 667.5 510 c 128,-1,22
 782 510 782 510 840 438 c 128,-1,23
 898 366 898 366 898 254 c 2,0,-1
165 250 m 128,-1,25
 165 189 165 189 198 149.5 c 128,-1,26
 231 110 231 110 290 110 c 128,-1,27
 349 110 349 110 382 149.5 c 128,-1,28
 415 189 415 189 415 250 c 128,-1,29
 415 311 415 311 382 350.5 c 128,-1,30
 349 390 349 390 290 390 c 128,-1,31
 231 390 231 390 198 350.5 c 128,-1,24
 165 311 165 311 165 250 c 128,-1,25
740.5 366 m 128,-1,33
 717 390 717 390 673.5 390 c 128,-1,34
 630 390 630 390 601.5 365.5 c 128,-1,35
 573 341 573 341 564 302 c 1,36,-1
 768 302 l 1,37,32
 764 342 764 342 740.5 366 c 128,-1,33
EndSplineSet
EndChar

StartChar: Racute
Encoding: 340 340 227
Width: 889
GlyphClass: 2
Flags: W
LayerCount: 2
Fore
SplineSet
464 120 m 1,0,-1
 521 120 l 1,1,-1
 521 0 l 1,2,-1
 237 0 l 1,3,-1
 237 120 l 1,4,-1
 334 120 l 1,5,-1
 334 579 l 1,6,7
 192 575 192 575 136 546.5 c 128,-1,8
 80 518 80 518 80 460 c 128,-1,9
 80 402 80 402 131 402 c 0,10,11
 178 402 178 402 178 466 c 1,12,-1
 303 466 l 1,13,14
 303 389 303 389 262 335.5 c 128,-1,15
 221 282 221 282 131 282 c 128,-1,16
 41 282 41 282 -2 333 c 128,-1,17
 -45 384 -45 384 -45 456 c 0,18,19
 -45 570 -45 570 58.5 635 c 128,-1,20
 162 700 162 700 389 700 c 2,21,-1
 434 700 l 2,22,23
 621 700 621 700 711.5 638.5 c 128,-1,24
 802 577 802 577 802 471 c 0,25,26
 802 383 802 383 757.5 326.5 c 128,-1,27
 713 270 713 270 638 251 c 1,28,29
 660 174 660 174 684 141.5 c 128,-1,30
 708 109 708 109 739 109 c 0,31,32
 763 109 763 109 763 140 c 1,33,-1
 883 140 l 1,34,35
 883 63 883 63 844 26 c 128,-1,36
 805 -11 805 -11 749 -11 c 0,37,38
 661 -11 661 -11 607.5 46.5 c 128,-1,39
 554 104 554 104 511 243 c 1,40,41
 481 246 481 246 464 250 c 1,42,-1
 464 120 l 1,0,-1
464 580 m 1,43,-1
 464 373 l 1,44,45
 502 362 502 362 555 362 c 128,-1,46
 608 362 608 362 640 392 c 128,-1,47
 672 422 672 422 672 473.5 c 128,-1,48
 672 525 672 525 624.5 552.5 c 128,-1,49
 577 580 577 580 464 580 c 1,43,-1
570 918 m 1,50,-1
 442 760 l 1,51,-1
 358 810 l 1,52,-1
 459 993 l 1,53,-1
 570 918 l 1,50,-1
EndSplineSet
EndChar

StartChar: racute
Encoding: 341 341 228
Width: 451
GlyphClass: 2
Flags: W
LayerCount: 2
Fore
SplineSet
227 110 m 1,0,-1
 299 110 l 1,1,-1
 299 0 l 1,2,-1
 20 0 l 1,3,-1
 20 110 l 1,4,-1
 97 110 l 1,5,-1
 97 390 l 1,6,-1
 20 390 l 1,7,-1
 20 500 l 1,8,-1
 208 500 l 1,9,-1
 220 447 l 1,10,11
 313 510 313 510 382 510 c 1,12,-1
 453 495 l 1,13,-1
 415 368 l 1,14,-1
 370 380 l 1,15,16
 302 380 302 380 227 338 c 1,17,-1
 227 110 l 1,0,-1
376 708 m 1,18,-1
 248 550 l 1,19,-1
 164 600 l 1,20,-1
 265 783 l 1,21,-1
 376 708 l 1,18,-1
EndSplineSet
EndChar

StartChar: Rcommaaccent
Encoding: 342 342 229
Width: 889
GlyphClass: 2
Flags: W
LayerCount: 2
Fore
SplineSet
401 -151 m 128,-1,1
 388 -129 388 -129 388 -104.5 c 128,-1,2
 388 -80 388 -80 409 -60.5 c 128,-1,3
 430 -41 430 -41 461.5 -41 c 128,-1,4
 493 -41 493 -41 515 -61.5 c 128,-1,5
 537 -82 537 -82 537 -119 c 128,-1,6
 537 -156 537 -156 518.5 -205.5 c 128,-1,7
 500 -255 500 -255 470 -297 c 1,8,-1
 408 -262 l 1,9,10
 435 -214 435 -214 438 -182 c 1,11,0
 414 -173 414 -173 401 -151 c 128,-1,1
464 120 m 1,12,-1
 521 120 l 1,13,-1
 521 0 l 1,14,-1
 237 0 l 1,15,-1
 237 120 l 1,16,-1
 334 120 l 1,17,-1
 334 579 l 1,18,19
 192 575 192 575 136 546.5 c 128,-1,20
 80 518 80 518 80 460 c 128,-1,21
 80 402 80 402 131 402 c 0,22,23
 178 402 178 402 178 466 c 1,24,-1
 303 466 l 1,25,26
 303 389 303 389 262 335.5 c 128,-1,27
 221 282 221 282 131 282 c 128,-1,28
 41 282 41 282 -2 333 c 128,-1,29
 -45 384 -45 384 -45 456 c 0,30,31
 -45 570 -45 570 58.5 635 c 128,-1,32
 162 700 162 700 389 700 c 2,33,-1
 434 700 l 2,34,35
 621 700 621 700 711.5 638.5 c 128,-1,36
 802 577 802 577 802 471 c 0,37,38
 802 383 802 383 757.5 326.5 c 128,-1,39
 713 270 713 270 638 251 c 1,40,41
 660 174 660 174 684 141.5 c 128,-1,42
 708 109 708 109 739 109 c 0,43,44
 763 109 763 109 763 140 c 1,45,-1
 883 140 l 1,46,47
 883 63 883 63 844 26 c 128,-1,48
 805 -11 805 -11 749 -11 c 0,49,50
 661 -11 661 -11 607.5 46.5 c 128,-1,51
 554 104 554 104 511 243 c 1,52,53
 481 246 481 246 464 250 c 1,54,-1
 464 120 l 1,12,-1
464 580 m 1,55,-1
 464 373 l 1,56,57
 502 362 502 362 555 362 c 128,-1,58
 608 362 608 362 640 392 c 128,-1,59
 672 422 672 422 672 473.5 c 128,-1,60
 672 525 672 525 624.5 552.5 c 128,-1,61
 577 580 577 580 464 580 c 1,55,-1
EndSplineSet
EndChar

StartChar: rcommaaccent
Encoding: 343 343 230
Width: 451
GlyphClass: 2
Flags: W
LayerCount: 2
Fore
SplineSet
92 -151 m 128,-1,1
 79 -129 79 -129 79 -104.5 c 128,-1,2
 79 -80 79 -80 100 -60.5 c 128,-1,3
 121 -41 121 -41 152.5 -41 c 128,-1,4
 184 -41 184 -41 206 -61.5 c 128,-1,5
 228 -82 228 -82 228 -119 c 128,-1,6
 228 -156 228 -156 209.5 -205.5 c 128,-1,7
 191 -255 191 -255 161 -297 c 1,8,-1
 99 -262 l 1,9,10
 126 -214 126 -214 129 -182 c 1,11,0
 105 -173 105 -173 92 -151 c 128,-1,1
227 110 m 1,12,-1
 299 110 l 1,13,-1
 299 0 l 1,14,-1
 20 0 l 1,15,-1
 20 110 l 1,16,-1
 97 110 l 1,17,-1
 97 390 l 1,18,-1
 20 390 l 1,19,-1
 20 500 l 1,20,-1
 208 500 l 1,21,-1
 220 447 l 1,22,23
 313 510 313 510 382 510 c 1,24,-1
 453 495 l 1,25,-1
 415 368 l 1,26,-1
 370 380 l 1,27,28
 302 380 302 380 227 338 c 1,29,-1
 227 110 l 1,12,-1
EndSplineSet
EndChar

